<svg width="94" height="29" viewBox="0 0 94 29" fill="none" xmlns="http://www.w3.org/2000/svg">
<g id="g]kfn ;/sf/ cy{ dGqfno">
<path d="M3.93103 5.18989C4.78036 5.52589 5.20036 6.11389 5.19103 6.95389C5.17236 8.54055 4.4257 9.35255 2.95103 9.38989C2.2137 9.40855 1.61636 9.18922 1.15903 8.73189C0.701698 8.27455 0.473031 7.67722 0.473031 6.93989C0.473031 6.02522 0.799698 5.32989 1.45303 4.85389C2.0317 4.44322 2.79703 4.23789 3.74903 4.23789C4.42103 4.23789 5.11636 4.35922 5.83503 4.60189L5.82103 3.67789H0.207031V2.82389H8.62103V3.67789H7.62703V9.79589H5.83503V5.65189C5.39636 5.39989 4.7617 5.24589 3.93103 5.18989ZM3.09103 5.93189L3.84703 5.30189C2.9977 5.32055 2.55436 5.86655 2.51703 6.93989C2.5077 7.21055 2.55436 7.46722 2.65703 7.70989C2.7877 8.02722 2.9697 8.18589 3.20303 8.18589C3.6137 8.18589 3.80503 7.78455 3.77703 6.98189C3.75836 6.25389 3.5997 5.88989 3.30103 5.88989C3.2357 5.88989 3.1657 5.90389 3.09103 5.93189Z" fill="black"/>
<path d="M2.69947 0.429887C3.02614 0.29922 3.4088 0.233887 3.84747 0.233887C4.60347 0.233887 5.17747 0.434553 5.56947 0.835886L7.50147 2.80989H5.40147L4.33747 1.61989C3.9548 1.27455 3.5768 1.10189 3.20347 1.10189C3.0168 1.10189 2.8488 1.14855 2.69947 1.24189V0.429887Z" fill="black"/>
<path d="M12.8215 7.54189V3.66389H10.7915V6.92589C10.7915 7.70055 11.1368 8.08789 11.8275 8.08789C12.3501 8.08789 12.6815 7.90589 12.8215 7.54189ZM9.02747 7.07989V3.66389H8.38347V2.82389H15.4955V3.66389H14.5155V9.79589H12.8215V8.82989C12.4108 9.16589 11.9255 9.33389 11.3655 9.33389C10.6935 9.33389 10.1335 9.12855 9.68547 8.71789C9.2468 8.29789 9.02747 7.75189 9.02747 7.07989Z" fill="black"/>
<path d="M15.7507 9.79589V3.66389H15.2467V2.82389H18.5368V3.66389H17.5427V9.79589H15.7507Z" fill="black"/>
<path d="M22.1739 6.58989C22.1739 6.28189 22.1086 6.01122 21.9779 5.77789C21.8192 5.47922 21.5999 5.32989 21.3199 5.32989C20.9559 5.32989 20.6899 5.57722 20.5219 6.07189C20.4006 6.42655 20.3399 6.82322 20.3399 7.26189C20.3399 8.63389 20.8252 9.31989 21.7959 9.31989C22.2346 9.31989 22.7619 9.17522 23.3779 8.88589L23.0139 10.1039C22.5472 10.2252 22.0946 10.2859 21.6559 10.2859C20.7412 10.2859 19.9852 10.0386 19.3879 9.54389C18.7439 9.01189 18.4219 8.29789 18.4219 7.40189C18.4219 6.52455 18.6179 5.80589 19.0099 5.24589C19.4579 4.60189 20.1019 4.27989 20.9419 4.27989C21.4086 4.27989 21.8379 4.40122 22.2299 4.64389C22.6312 4.87722 22.9112 5.20389 23.0699 5.62389C23.1259 5.28789 23.2892 5.02189 23.5599 4.82589C23.8306 4.62989 24.1386 4.53189 24.4839 4.53189C24.8292 4.53189 25.0952 4.62522 25.2819 4.81189V3.66389H18.2819V2.82389H28.1519V3.66389H27.1719V9.79589H25.2819V5.97389C25.1139 5.81522 24.8946 5.73589 24.6239 5.73589C24.1666 5.73589 23.9379 6.03455 23.9379 6.63189V8.03189H22.1739V6.58989Z" fill="black"/>
<path d="M35.5926 5.84789C35.3872 6.22122 35.0746 6.49189 34.6546 6.65989C34.4212 6.75322 34.0806 6.83255 33.6326 6.89789C34.2859 7.04722 34.7572 7.41589 35.0466 8.00389C35.2706 8.45189 35.4386 8.75522 35.5506 8.91389C35.8212 9.27789 36.0966 9.45989 36.3766 9.45989C36.5352 9.45989 36.7266 9.41322 36.9506 9.31989L36.5726 10.3279C36.2646 10.4399 35.9706 10.4959 35.6906 10.4959C35.0652 10.4959 34.5006 10.1972 33.9966 9.59989C33.9686 9.56255 33.5999 8.99789 32.8906 7.90589C32.4986 7.29922 32.1392 6.99589 31.8126 6.99589C31.7099 6.99589 31.6072 7.01922 31.5046 7.06589V5.72189C31.9806 5.88989 32.3959 5.97389 32.7506 5.97389C33.5812 5.97389 33.9966 5.59589 33.9966 4.83989C33.9966 4.58789 33.9312 4.34522 33.8006 4.11189C33.6512 3.84122 33.4646 3.69189 33.2406 3.66389H31.4206V2.82389H40.2406V3.66389H39.2466V9.79589H37.4266V6.15589H35.5926C35.5832 6.02522 35.5832 5.92255 35.5926 5.84789ZM37.4266 5.23189V3.66389H34.9486C35.1632 3.71055 35.3546 3.86922 35.5226 4.13989C35.6906 4.41055 35.7746 4.66255 35.7746 4.89589C35.7746 5.01722 35.7559 5.12922 35.7186 5.23189H37.4266Z" fill="black"/>
<path d="M46.8812 3.66389H44.0672C44.3378 3.72922 44.5572 3.90655 44.7252 4.19589C44.8932 4.48522 44.9772 4.77922 44.9772 5.07789C44.9772 5.67522 44.6925 6.12789 44.1232 6.43589C43.6938 6.66922 43.1432 6.79989 42.4712 6.82789C42.8258 6.93989 43.0918 7.11255 43.2692 7.34589C43.3065 7.39255 43.4465 7.63522 43.6892 8.07389C44.1465 8.89522 44.5898 9.30589 45.0192 9.30589C45.3178 9.30589 45.7238 9.15655 46.2372 8.85789L45.8592 10.0619C45.3552 10.2299 44.8932 10.3139 44.4732 10.3139C43.7078 10.3139 43.0452 10.0292 42.4852 9.45989C42.2892 9.25455 41.9158 8.72722 41.3652 7.87789C41.0012 7.30855 40.6652 7.02389 40.3572 7.02389C40.2825 7.02389 40.2078 7.03322 40.1332 7.05189V5.70789C40.7118 5.98789 41.2252 6.12789 41.6732 6.12789C42.0838 6.12789 42.4152 6.01122 42.6672 5.77789C42.9192 5.54455 43.0452 5.22722 43.0452 4.82589C43.0452 4.24722 42.8165 3.85989 42.3592 3.66389H39.9792V2.82389H46.8812V3.66389Z" fill="black"/>
<path d="M50.2513 5.32989C49.9993 5.18989 49.7707 5.11989 49.5653 5.11989C49.2013 5.11989 48.9307 5.32055 48.7533 5.72189C48.6227 6.02055 48.5573 6.37989 48.5573 6.79989C48.5573 7.21055 48.6367 7.56522 48.7953 7.86389C48.9913 8.23722 49.276 8.42389 49.6493 8.42389C49.892 8.42389 50.1253 8.34922 50.3493 8.19989V3.64989H46.5553V2.82389H56.7193V3.64989H52.1413V4.54589C52.5707 4.28455 53.042 4.15389 53.5553 4.15389C54.302 4.15389 54.904 4.39189 55.3613 4.86789C55.8187 5.34389 56.0427 5.95522 56.0333 6.70189C56.024 7.48589 55.7627 8.13455 55.2493 8.64789C54.736 9.16122 54.092 9.41789 53.3173 9.41789C53.1587 9.41789 53 9.40389 52.8413 9.37589L52.4773 8.17189C52.6733 8.36789 52.888 8.46589 53.1213 8.46589C53.4667 8.46589 53.7233 8.25589 53.8913 7.83589C54.0127 7.52789 54.0733 7.17322 54.0733 6.77189C54.064 5.78255 53.7 5.28789 52.9813 5.28789C52.7013 5.28789 52.426 5.36722 52.1553 5.52589L52.1413 9.79589H50.3213L50.3353 9.23589C50.1953 9.35722 49.878 9.41789 49.3833 9.41789C48.5527 9.41789 47.8853 9.20789 47.3813 8.78789C46.8307 8.33055 46.5553 7.69589 46.5553 6.88389C46.5553 6.06255 46.7653 5.40922 47.1853 4.92389C47.6333 4.40122 48.2587 4.13989 49.0613 4.13989C49.3413 4.13989 49.626 4.17722 49.9153 4.25189L50.2513 5.32989Z" fill="black"/>
<path d="M56.9715 9.79589V3.66389H56.4675V2.82389H59.7575V3.66389H58.7635V9.79589H56.9715Z" fill="black"/>
<path d="M66.4046 3.66389H63.5906C63.8613 3.72922 64.0806 3.90655 64.2486 4.19589C64.4166 4.48522 64.5006 4.77922 64.5006 5.07789C64.5006 5.67522 64.2159 6.12789 63.6466 6.43589C63.2173 6.66922 62.6666 6.79989 61.9946 6.82789C62.3493 6.93989 62.6153 7.11255 62.7926 7.34589C62.8299 7.39255 62.9699 7.63522 63.2126 8.07389C63.6699 8.89522 64.1133 9.30589 64.5426 9.30589C64.8413 9.30589 65.2473 9.15655 65.7606 8.85789L65.3826 10.0619C64.8786 10.2299 64.4166 10.3139 63.9966 10.3139C63.2313 10.3139 62.5686 10.0292 62.0086 9.45989C61.8126 9.25455 61.4393 8.72722 60.8886 7.87789C60.5246 7.30855 60.1886 7.02389 59.8806 7.02389C59.8059 7.02389 59.7313 7.03322 59.6566 7.05189V5.70789C60.2353 5.98789 60.7486 6.12789 61.1966 6.12789C61.6073 6.12789 61.9386 6.01122 62.1906 5.77789C62.4426 5.54455 62.5686 5.22722 62.5686 4.82589C62.5686 4.24722 62.3399 3.85989 61.8826 3.66389H59.5026V2.82389H66.4046V3.66389Z" fill="black"/>
<path d="M8.23503 17.8359H14.075V19.0359H12.655V27.7959H10.055V23.3159H8.25503V21.9559H10.055V19.0359H8.23503V17.8359ZM1.49503 19.0359H0.235031V17.8359H1.49503V19.0359ZM8.19503 20.2959C8.19503 20.8959 8.03503 21.3892 7.71503 21.7759C7.36837 22.2026 6.9017 22.4092 6.31503 22.3959C7.04837 22.3959 7.6417 22.6692 8.09503 23.2159C8.54836 23.7492 8.77503 24.3892 8.77503 25.1359C8.77503 26.1092 8.39503 26.8559 7.63503 27.3759C6.96836 27.8426 6.12836 28.0759 5.11503 28.0759C3.19503 28.0759 1.59503 27.3292 0.315031 25.8359L1.87503 24.0159C2.3017 25.4692 3.04836 26.1959 4.11503 26.1959C4.52836 26.1959 4.89503 26.0692 5.21503 25.8159C5.54837 25.5626 5.71503 25.2359 5.71503 24.8359C5.71503 23.5959 5.11503 22.9759 3.91503 22.9759C3.67503 22.9759 3.40836 22.9959 3.11503 23.0359V21.5559C3.27503 21.6226 3.45503 21.6559 3.65503 21.6559C4.13503 21.6559 4.53503 21.5226 4.85503 21.2559C5.18836 20.9759 5.36836 20.6026 5.39503 20.1359C5.40836 19.8026 5.24836 19.5292 4.91503 19.3159C4.59503 19.1026 4.2617 18.9959 3.91503 18.9959C3.16837 18.9959 2.39503 19.3692 1.59503 20.1159V18.3159C2.3417 17.8626 3.24836 17.6359 4.31503 17.6359C5.51503 17.6359 6.40836 17.8426 6.99503 18.2559C7.79503 18.8159 8.19503 19.4959 8.19503 20.2959Z" fill="black"/>
<path d="M17.6102 17.6159C19.0635 17.6159 20.1169 18.2159 20.7702 19.4159C21.0769 19.9759 21.2302 20.5359 21.2302 21.0959C21.2302 21.6826 21.0635 22.2559 20.7302 22.8159C19.9969 24.0426 18.6569 24.6892 16.7102 24.7559C18.1102 25.7026 19.1835 26.1759 19.9302 26.1759C20.7702 26.1759 21.5169 25.7026 22.1702 24.7559V19.0359H20.8902V17.8359H26.1502V19.0359H24.6302V27.7959H22.1902V26.7759C21.4035 27.3759 20.4435 27.6759 19.3102 27.6759C18.2835 27.6759 17.2902 27.4426 16.3302 26.9759C15.2902 26.4826 14.5235 25.8226 14.0302 24.9959V22.7759C14.8435 23.1626 15.5702 23.3559 16.2102 23.3559C16.9702 23.3559 17.5769 23.1026 18.0302 22.5959C18.4969 22.0759 18.7302 21.4292 18.7302 20.6559C18.7302 20.2559 18.6569 19.8959 18.5102 19.5759C18.3235 19.1759 18.0569 18.9559 17.7102 18.9159C17.3769 18.8759 17.1102 18.9892 16.9102 19.2559C16.7235 19.5092 16.6302 19.8092 16.6302 20.1559C16.6302 20.8626 16.9302 21.2159 17.5302 21.2159C17.6102 21.2159 17.6969 21.2092 17.7902 21.1959L16.7502 22.0759C16.6302 22.1026 16.4969 22.1159 16.3502 22.1159C15.7902 22.1159 15.2902 21.9292 14.8502 21.5559C14.4102 21.1692 14.1902 20.7026 14.1902 20.1559C14.1902 19.7826 14.3102 19.4092 14.5502 19.0359H13.7702V17.8359H14.9102V18.4359C15.4569 17.8892 16.3569 17.6159 17.6102 17.6159Z" fill="black"/>
<path d="M24.4824 17.8359H21.9224C21.6024 17.5559 21.469 17.0559 21.5224 16.3359C21.589 15.3492 22.1624 14.7892 23.2424 14.6559C23.869 14.5759 24.529 14.6292 25.2224 14.8159L25.5024 16.2359C25.1824 16.0092 24.8957 15.8959 24.6424 15.8959C24.3357 15.8959 24.1357 16.0692 24.0424 16.4159C23.989 16.6159 23.9624 16.7892 23.9624 16.9359C23.9624 17.3626 24.1357 17.6626 24.4824 17.8359Z" fill="black"/>
<path d="M42.8624 17.8359V19.0359H41.4624V27.7959H38.8824V22.5959H37.2624C37.289 23.9826 37.1357 25.0359 36.8024 25.7559C36.3357 26.7426 35.4824 27.2626 34.2424 27.3159C33.2024 27.3559 32.3824 27.1092 31.7824 26.5759C31.1824 26.0292 30.8824 25.2359 30.8824 24.1959C30.8824 23.3426 31.1357 22.6292 31.6424 22.0559C32.149 21.4826 32.8224 21.1959 33.6624 21.1959C33.889 21.1959 34.1224 21.2226 34.3624 21.2759L34.8024 22.5959C34.6157 22.5159 34.4424 22.4759 34.2824 22.4759C33.8957 22.4759 33.5957 22.6759 33.3824 23.0759C33.209 23.3959 33.1224 23.7692 33.1224 24.1959C33.1224 24.6226 33.209 25.0026 33.3824 25.3359C33.5957 25.7626 33.8957 25.9759 34.2824 25.9759C34.7624 25.9759 35.0024 25.5692 35.0024 24.7559V19.0359H30.7624V17.8359H42.8624ZM37.2424 19.0359V21.2759H38.8824V19.0359H37.2424Z" fill="black"/>
<path d="M46.6002 22.2759L47.6802 21.3759C46.4669 21.4026 45.8335 22.1826 45.7802 23.7159C45.7669 24.1026 45.8335 24.4692 45.9802 24.8159C46.1669 25.2692 46.4269 25.4959 46.7602 25.4959C47.3469 25.4959 47.6202 24.9226 47.5802 23.7759C47.5535 22.7359 47.3269 22.2159 46.9002 22.2159C46.8069 22.2159 46.7069 22.2359 46.6002 22.2759ZM42.5202 19.0359V17.8359H51.7802V19.0359H42.5202ZM51.6002 22.1159C50.9069 21.4626 49.9602 21.1359 48.7602 21.1359C48.4135 21.1359 48.0935 21.1626 47.8002 21.2159C49.0135 21.6959 49.6135 22.5359 49.6002 23.7359C49.5735 26.0026 48.5069 27.1626 46.4002 27.2159C45.3469 27.2426 44.4935 26.9292 43.8402 26.2759C43.1869 25.6226 42.8602 24.7692 42.8602 23.7159C42.8602 21.9826 43.7402 20.7959 45.5002 20.1559C46.2735 19.8759 47.1135 19.7359 48.0202 19.7359C49.2869 19.7359 50.4802 20.0292 51.6002 20.6159V22.1159Z" fill="black"/>
<path d="M57.1833 24.9559C56.9966 23.9692 56.85 23.3226 56.7433 23.0159C56.4766 22.2559 56.09 21.8426 55.5833 21.7759C55.1833 21.7226 54.87 21.8292 54.6433 22.0959C54.43 22.3626 54.3233 22.7026 54.3233 23.1159C54.3233 23.3959 54.37 23.7092 54.4633 24.0559L51.4833 22.8759C51.6566 21.2626 52.9366 20.4359 55.3233 20.3959C56.19 20.3826 56.8966 20.5959 57.4433 21.0359C57.8966 21.3959 58.4433 22.1226 59.0833 23.2159V19.0359H50.7233V17.8359H63.0833V19.0359H61.6833V27.7959H59.0433V25.3159C56.51 27.5159 54.4966 28.6159 53.0033 28.6159C52.4166 28.6159 51.8833 28.4626 51.4033 28.1559L51.0633 26.2559C51.8366 26.7359 52.47 26.9759 52.9633 26.9759C53.8833 26.9759 55.29 26.3026 57.1833 24.9559Z" fill="black"/>
<path d="M63.4355 27.7959V19.0359H62.7155V17.8359H67.4155V19.0359H65.9955V27.7959H63.4355Z" fill="black"/>
<path d="M72.6114 23.2159C72.6114 22.7759 72.5181 22.3892 72.3314 22.0559C72.1048 21.6292 71.7914 21.4159 71.3914 21.4159C70.8714 21.4159 70.4914 21.7692 70.2514 22.4759C70.0781 22.9826 69.9914 23.5492 69.9914 24.1759C69.9914 26.1359 70.6848 27.1159 72.0714 27.1159C72.6981 27.1159 73.4514 26.9092 74.3314 26.4959L73.8114 28.2359C73.1448 28.4092 72.4981 28.4959 71.8714 28.4959C70.5648 28.4959 69.4848 28.1426 68.6314 27.4359C67.7114 26.6759 67.2514 25.6559 67.2514 24.3759C67.2514 23.1226 67.5314 22.0959 68.0914 21.2959C68.7314 20.3759 69.6514 19.9159 70.8514 19.9159C71.5181 19.9159 72.1314 20.0892 72.6914 20.4359C73.2648 20.7692 73.6648 21.2359 73.8914 21.8359C73.9714 21.3559 74.2048 20.9759 74.5914 20.6959C74.9781 20.4159 75.4181 20.2759 75.9114 20.2759C76.4048 20.2759 76.7848 20.4092 77.0514 20.6759V19.0359H67.0514V17.8359H81.1514V19.0359H79.7514V27.7959H77.0514V22.3359C76.8114 22.1092 76.4981 21.9959 76.1114 21.9959C75.4581 21.9959 75.1314 22.4226 75.1314 23.2759V25.2759H72.6114V23.2159Z" fill="black"/>
<path d="M93.081 17.8359V19.0359H91.681V27.7959H89.221V26.7759C88.5943 27.2559 87.8343 27.4959 86.941 27.4959C85.8476 27.4959 84.741 27.1759 83.621 26.5359C82.5143 25.8959 81.6743 25.1026 81.101 24.1559V21.8159C82.0076 22.2826 82.8076 22.5159 83.501 22.5159C84.0876 22.5159 84.5676 22.3426 84.941 21.9959C85.3143 21.6359 85.501 21.1626 85.501 20.5759C85.501 20.1759 85.3943 19.8226 85.181 19.5159C84.9676 19.1959 84.6743 19.0359 84.301 19.0359H80.821V17.8359H93.081ZM87.341 19.0359C87.861 19.3826 88.121 19.9759 88.121 20.8159C88.121 21.7892 87.761 22.5492 87.041 23.0959C86.3876 23.6026 85.561 23.8559 84.561 23.8559C84.2943 23.8559 84.0076 23.8359 83.701 23.7959C84.061 24.3826 84.561 24.8892 85.201 25.3159C85.8543 25.7426 86.501 25.9559 87.141 25.9559C88.0076 25.9559 88.701 25.5559 89.221 24.7559V19.0359H87.341Z" fill="black"/>
</g>
</svg>
