<svg width="119" height="12" viewBox="0 0 119 12" fill="none" xmlns="http://www.w3.org/2000/svg">
<g id="Government of Nepal">
<path d="M4.58105 5.79736V4.3501H8.31934V7.77197C7.95605 8.12354 7.42871 8.43408 6.7373 8.70361C6.0498 8.96924 5.35254 9.10205 4.64551 9.10205C3.74707 9.10205 2.96387 8.91455 2.2959 8.53955C1.62793 8.16064 1.12598 7.62158 0.790039 6.92236C0.454102 6.21924 0.286133 5.45557 0.286133 4.63135C0.286133 3.73682 0.473633 2.94189 0.848633 2.24658C1.22363 1.55127 1.77246 1.01807 2.49512 0.646973C3.0459 0.361816 3.73145 0.219238 4.55176 0.219238C5.61816 0.219238 6.4502 0.443848 7.04785 0.893066C7.64941 1.33838 8.03613 1.95557 8.20801 2.74463L6.48535 3.06689C6.36426 2.64502 6.13574 2.31299 5.7998 2.0708C5.46777 1.82471 5.05176 1.70166 4.55176 1.70166C3.79395 1.70166 3.19043 1.94189 2.74121 2.42236C2.2959 2.90283 2.07324 3.61572 2.07324 4.56104C2.07324 5.58057 2.2998 6.34619 2.75293 6.85791C3.20605 7.36572 3.7998 7.61963 4.53418 7.61963C4.89746 7.61963 5.26074 7.54932 5.62402 7.40869C5.99121 7.26416 6.30566 7.09033 6.56738 6.88721V5.79736H4.58105Z" fill="black"/>
<path d="M9.41223 5.75635C9.41223 5.20947 9.54699 4.68018 9.81652 4.16846C10.0861 3.65674 10.4669 3.26611 10.9591 2.99658C11.4552 2.72705 12.0079 2.59229 12.6173 2.59229C13.5587 2.59229 14.3302 2.89893 14.9318 3.51221C15.5333 4.12158 15.8341 4.89307 15.8341 5.82666C15.8341 6.76807 15.5294 7.54932 14.92 8.17041C14.3146 8.7876 13.5509 9.09619 12.629 9.09619C12.0587 9.09619 11.5138 8.96729 10.9943 8.70947C10.4786 8.45166 10.0861 8.07471 9.81652 7.57861C9.54699 7.07861 9.41223 6.47119 9.41223 5.75635ZM11.0997 5.84424C11.0997 6.46143 11.2462 6.93408 11.5392 7.26221C11.8321 7.59033 12.1935 7.75439 12.6232 7.75439C13.0529 7.75439 13.4122 7.59033 13.7013 7.26221C13.9943 6.93408 14.1407 6.45752 14.1407 5.83252C14.1407 5.22314 13.9943 4.75439 13.7013 4.42627C13.4122 4.09814 13.0529 3.93408 12.6232 3.93408C12.1935 3.93408 11.8321 4.09814 11.5392 4.42627C11.2462 4.75439 11.0997 5.22705 11.0997 5.84424Z" fill="black"/>
<path d="M18.72 8.95557L16.2121 2.73291H17.9407L19.1125 5.90869L19.4524 6.96924C19.5422 6.69971 19.5989 6.52197 19.6223 6.43604C19.677 6.26025 19.7356 6.08447 19.7981 5.90869L20.9817 2.73291H22.675L20.2024 8.95557H18.72Z" fill="black"/>
<path d="M27.1722 6.9751L28.8129 7.25049C28.6019 7.85205 28.2679 8.31104 27.8109 8.62744C27.3578 8.93994 26.7894 9.09619 26.1058 9.09619C25.0238 9.09619 24.223 8.74268 23.7035 8.03564C23.2933 7.46924 23.0882 6.75439 23.0882 5.89111C23.0882 4.85986 23.3578 4.05322 23.8968 3.47119C24.4359 2.88525 25.1175 2.59229 25.9418 2.59229C26.8675 2.59229 27.598 2.89893 28.1332 3.51221C28.6683 4.12158 28.9242 5.05713 28.9007 6.31885H24.7757C24.7875 6.80713 24.9203 7.18799 25.1742 7.46143C25.4281 7.73096 25.7445 7.86572 26.1234 7.86572C26.3812 7.86572 26.598 7.79541 26.7738 7.65479C26.9496 7.51416 27.0824 7.2876 27.1722 6.9751ZM27.266 5.31104C27.2543 4.83447 27.1312 4.47314 26.8968 4.22705C26.6625 3.97705 26.3773 3.85205 26.0414 3.85205C25.682 3.85205 25.3851 3.98291 25.1507 4.24463C24.9164 4.50635 24.8011 4.86182 24.805 5.31104H27.266Z" fill="black"/>
<path d="M31.7046 8.95557H30.0581V2.73291H31.5874V3.61768C31.8491 3.19971 32.0835 2.92432 32.2905 2.7915C32.5014 2.65869 32.7397 2.59229 33.0054 2.59229C33.3804 2.59229 33.7417 2.6958 34.0893 2.90283L33.5796 4.33838C33.3022 4.15869 33.0444 4.06885 32.8061 4.06885C32.5757 4.06885 32.3804 4.1333 32.2202 4.26221C32.06 4.38721 31.9331 4.61572 31.8393 4.94775C31.7495 5.27979 31.7046 5.9751 31.7046 7.03369V8.95557Z" fill="black"/>
<path d="M40.3443 8.95557H38.6979V5.77979C38.6979 5.10791 38.6627 4.67432 38.5924 4.479C38.5221 4.27979 38.4068 4.12549 38.2467 4.01611C38.0904 3.90674 37.901 3.85205 37.6783 3.85205C37.3932 3.85205 37.1373 3.93018 36.9107 4.08643C36.6842 4.24268 36.5279 4.44971 36.442 4.70752C36.36 4.96533 36.3189 5.44189 36.3189 6.13721V8.95557H34.6725V2.73291H36.2018V3.64697C36.7447 2.94385 37.4283 2.59229 38.2525 2.59229C38.6158 2.59229 38.9479 2.65869 39.2486 2.7915C39.5494 2.92041 39.776 3.08643 39.9283 3.28955C40.0846 3.49268 40.192 3.72314 40.2506 3.98096C40.3131 4.23877 40.3443 4.60791 40.3443 5.08838V8.95557Z" fill="black"/>
<path d="M41.7771 2.73291H43.2946V3.58252C43.8376 2.92236 44.4841 2.59229 45.2341 2.59229C45.6325 2.59229 45.9782 2.67432 46.2712 2.83838C46.5642 3.00244 46.8044 3.25049 46.9919 3.58252C47.2654 3.25049 47.5603 3.00244 47.8767 2.83838C48.1931 2.67432 48.531 2.59229 48.8904 2.59229C49.3474 2.59229 49.7341 2.68604 50.0505 2.87354C50.3669 3.05713 50.6032 3.32861 50.7595 3.68799C50.8728 3.95361 50.9294 4.3833 50.9294 4.97705V8.95557H49.2829V5.39893C49.2829 4.78174 49.2263 4.3833 49.113 4.20361C48.9607 3.96924 48.7263 3.85205 48.4099 3.85205C48.1794 3.85205 47.9626 3.92236 47.7595 4.06299C47.5564 4.20361 47.4099 4.41064 47.32 4.68408C47.2302 4.95361 47.1853 5.38135 47.1853 5.96729V8.95557H45.5388V5.54541C45.5388 4.93994 45.5095 4.54932 45.4509 4.37354C45.3923 4.19775 45.3005 4.06689 45.1755 3.98096C45.0544 3.89502 44.8884 3.85205 44.6775 3.85205C44.4236 3.85205 44.195 3.92041 43.9919 4.05713C43.7888 4.19385 43.6423 4.39111 43.5525 4.64893C43.4665 4.90674 43.4236 5.33447 43.4236 5.93213V8.95557H41.7771V2.73291Z" fill="black"/>
<path d="M56.0594 6.9751L57.7 7.25049C57.4891 7.85205 57.1551 8.31104 56.6981 8.62744C56.245 8.93994 55.6766 9.09619 54.993 9.09619C53.911 9.09619 53.1102 8.74268 52.5907 8.03564C52.1805 7.46924 51.9754 6.75439 51.9754 5.89111C51.9754 4.85986 52.245 4.05322 52.784 3.47119C53.3231 2.88525 54.0047 2.59229 54.8289 2.59229C55.7547 2.59229 56.4852 2.89893 57.0204 3.51221C57.5555 4.12158 57.8114 5.05713 57.7879 6.31885H53.6629C53.6746 6.80713 53.8075 7.18799 54.0614 7.46143C54.3153 7.73096 54.6317 7.86572 55.0106 7.86572C55.2684 7.86572 55.4852 7.79541 55.661 7.65479C55.8368 7.51416 55.9696 7.2876 56.0594 6.9751ZM56.1532 5.31104C56.1414 4.83447 56.0184 4.47314 55.784 4.22705C55.5496 3.97705 55.2645 3.85205 54.9286 3.85205C54.5692 3.85205 54.2723 3.98291 54.0379 4.24463C53.8036 4.50635 53.6883 4.86182 53.6922 5.31104H56.1532Z" fill="black"/>
<path d="M64.6757 8.95557H63.0293V5.77979C63.0293 5.10791 62.9941 4.67432 62.9238 4.479C62.8535 4.27979 62.7382 4.12549 62.5781 4.01611C62.4218 3.90674 62.2324 3.85205 62.0097 3.85205C61.7246 3.85205 61.4687 3.93018 61.2421 4.08643C61.0156 4.24268 60.8593 4.44971 60.7734 4.70752C60.6914 4.96533 60.6504 5.44189 60.6504 6.13721V8.95557H59.0039V2.73291H60.5332V3.64697C61.0761 2.94385 61.7597 2.59229 62.5839 2.59229C62.9472 2.59229 63.2793 2.65869 63.58 2.7915C63.8808 2.92041 64.1074 3.08643 64.2597 3.28955C64.416 3.49268 64.5234 3.72314 64.582 3.98096C64.6445 4.23877 64.6757 4.60791 64.6757 5.08838V8.95557Z" fill="black"/>
<path d="M69.085 2.73291V4.04541H67.96V6.55322C67.96 7.06104 67.9698 7.35791 67.9893 7.44385C68.0128 7.52588 68.0616 7.59424 68.1358 7.64893C68.2139 7.70361 68.3077 7.73096 68.4171 7.73096C68.5694 7.73096 68.7901 7.67822 69.0792 7.57275L69.2198 8.8501C68.837 9.01416 68.4034 9.09619 67.919 9.09619C67.6221 9.09619 67.3546 9.04736 67.1163 8.94971C66.878 8.84814 66.7022 8.71924 66.5889 8.56299C66.4796 8.40283 66.4034 8.18799 66.3604 7.91846C66.3253 7.72705 66.3077 7.34033 66.3077 6.7583V4.04541H65.5518V2.73291H66.3077V1.49658L67.96 0.535645V2.73291H69.085Z" fill="black"/>
<path d="M72.9466 5.75635C72.9466 5.20947 73.0814 4.68018 73.3509 4.16846C73.6204 3.65674 74.0013 3.26611 74.4935 2.99658C74.9896 2.72705 75.5423 2.59229 76.1517 2.59229C77.0931 2.59229 77.8646 2.89893 78.4661 3.51221C79.0677 4.12158 79.3685 4.89307 79.3685 5.82666C79.3685 6.76807 79.0638 7.54932 78.4544 8.17041C77.8489 8.7876 77.0853 9.09619 76.1634 9.09619C75.5931 9.09619 75.0482 8.96729 74.5286 8.70947C74.013 8.45166 73.6204 8.07471 73.3509 7.57861C73.0814 7.07861 72.9466 6.47119 72.9466 5.75635ZM74.6341 5.84424C74.6341 6.46143 74.7806 6.93408 75.0736 7.26221C75.3665 7.59033 75.7279 7.75439 76.1575 7.75439C76.5872 7.75439 76.9466 7.59033 77.2357 7.26221C77.5286 6.93408 77.6751 6.45752 77.6751 5.83252C77.6751 5.22314 77.5286 4.75439 77.2357 4.42627C76.9466 4.09814 76.5872 3.93408 76.1575 3.93408C75.7279 3.93408 75.3665 4.09814 75.0736 4.42627C74.7806 4.75439 74.6341 5.22705 74.6341 5.84424Z" fill="black"/>
<path d="M79.8227 2.73291H80.7368V2.26416C80.7368 1.74072 80.7914 1.3501 80.9008 1.09229C81.0141 0.834473 81.2192 0.625488 81.5161 0.465332C81.8168 0.30127 82.1957 0.219238 82.6528 0.219238C83.1215 0.219238 83.5805 0.289551 84.0297 0.430176L83.8071 1.57861C83.5453 1.51611 83.2934 1.48486 83.0512 1.48486C82.8129 1.48486 82.6411 1.5415 82.5356 1.65479C82.434 1.76416 82.3832 1.97705 82.3832 2.29346V2.73291H83.6137V4.02783H82.3832V8.95557H80.7368V4.02783H79.8227V2.73291Z" fill="black"/>
<path d="M87.6686 8.95557V0.365723H89.3561L92.8718 6.10205V0.365723H94.4831V8.95557H92.7429L89.28 3.354V8.95557H87.6686Z" fill="black"/>
<path d="M99.7947 6.9751L101.435 7.25049C101.224 7.85205 100.89 8.31104 100.433 8.62744C99.9803 8.93994 99.4119 9.09619 98.7283 9.09619C97.6463 9.09619 96.8455 8.74268 96.326 8.03564C95.9158 7.46924 95.7107 6.75439 95.7107 5.89111C95.7107 4.85986 95.9803 4.05322 96.5193 3.47119C97.0584 2.88525 97.74 2.59229 98.5643 2.59229C99.49 2.59229 100.221 2.89893 100.756 3.51221C101.291 4.12158 101.547 5.05713 101.523 6.31885H97.3982C97.41 6.80713 97.5428 7.18799 97.7967 7.46143C98.0506 7.73096 98.367 7.86572 98.7459 7.86572C99.0037 7.86572 99.2205 7.79541 99.3963 7.65479C99.5721 7.51416 99.7049 7.2876 99.7947 6.9751ZM99.8885 5.31104C99.8768 4.83447 99.7537 4.47314 99.5193 4.22705C99.285 3.97705 98.9998 3.85205 98.6639 3.85205C98.3045 3.85205 98.0076 3.98291 97.7732 4.24463C97.5389 4.50635 97.4236 4.86182 97.4275 5.31104H99.8885Z" fill="black"/>
<path d="M102.704 2.73291H104.239V3.64697C104.438 3.33447 104.708 3.08057 105.048 2.88525C105.388 2.68994 105.765 2.59229 106.179 2.59229C106.901 2.59229 107.515 2.87549 108.018 3.44189C108.522 4.0083 108.774 4.79736 108.774 5.80908C108.774 6.84814 108.52 7.65674 108.013 8.23486C107.505 8.80908 106.89 9.09619 106.167 9.09619C105.823 9.09619 105.511 9.02783 105.229 8.89111C104.952 8.75439 104.659 8.52002 104.351 8.18799V11.3228H102.704V2.73291ZM104.333 5.73877C104.333 6.43799 104.472 6.95557 104.749 7.2915C105.026 7.62354 105.364 7.78955 105.763 7.78955C106.145 7.78955 106.464 7.63721 106.718 7.33252C106.972 7.02393 107.099 6.52002 107.099 5.8208C107.099 5.16846 106.968 4.68408 106.706 4.36768C106.444 4.05127 106.12 3.89307 105.733 3.89307C105.331 3.89307 104.997 4.04932 104.731 4.36182C104.466 4.67041 104.333 5.12939 104.333 5.73877Z" fill="black"/>
<path d="M111.197 4.63135L109.703 4.36182C109.871 3.76025 110.16 3.31494 110.57 3.02588C110.981 2.73682 111.59 2.59229 112.398 2.59229C113.133 2.59229 113.68 2.68018 114.039 2.85596C114.398 3.02783 114.65 3.24854 114.795 3.51807C114.943 3.78369 115.018 4.27393 115.018 4.98877L115 6.91064C115 7.45752 115.025 7.86182 115.076 8.12354C115.131 8.38135 115.231 8.65869 115.375 8.95557H113.746C113.703 8.84619 113.65 8.68408 113.588 8.46924C113.561 8.37158 113.541 8.30713 113.529 8.27588C113.248 8.54932 112.947 8.75439 112.627 8.89111C112.307 9.02783 111.965 9.09619 111.602 9.09619C110.961 9.09619 110.455 8.92236 110.084 8.57471C109.717 8.22705 109.533 7.7876 109.533 7.25635C109.533 6.90479 109.617 6.59229 109.785 6.31885C109.953 6.0415 110.188 5.83057 110.488 5.68604C110.793 5.5376 111.231 5.40869 111.801 5.29932C112.57 5.15479 113.104 5.02002 113.4 4.89502V4.73096C113.4 4.41455 113.322 4.18994 113.166 4.05713C113.01 3.92041 112.715 3.85205 112.281 3.85205C111.988 3.85205 111.76 3.91064 111.596 4.02783C111.432 4.14111 111.299 4.34229 111.197 4.63135ZM113.4 5.96729C113.189 6.0376 112.856 6.12158 112.398 6.21924C111.941 6.31689 111.643 6.4126 111.502 6.50635C111.287 6.65869 111.18 6.85205 111.18 7.08643C111.18 7.31689 111.266 7.51611 111.438 7.68408C111.609 7.85205 111.828 7.93604 112.094 7.93604C112.391 7.93604 112.674 7.83838 112.943 7.64307C113.143 7.49463 113.273 7.31299 113.336 7.09814C113.379 6.95752 113.4 6.68994 113.4 6.29541V5.96729Z" fill="black"/>
<path d="M116.527 8.95557V0.365723H118.173V8.95557H116.527Z" fill="black"/>
</g>
</svg>
