<svg width="272" height="32" viewBox="0 0 272 32" fill="none" xmlns="http://www.w3.org/2000/svg">
<path d="M3.696 5.99004C3.444 5.85004 3.21533 5.78004 3.01 5.78004C2.646 5.78004 2.37533 5.98071 2.198 6.38204C2.06733 6.68071 2.002 7.04004 2.002 7.46004C2.002 7.87071 2.08133 8.22538 2.24 8.52404C2.436 8.89738 2.72067 9.08404 3.094 9.08404C3.33667 9.08404 3.57 9.00938 3.794 8.86004V4.31004H0V3.48404H10.164V4.31004H5.586V5.20604C6.01533 4.94471 6.48667 4.81404 7 4.81404C7.74667 4.81404 8.34867 5.05204 8.806 5.52804C9.26333 6.00404 9.48733 6.61538 9.478 7.36204C9.46867 8.14604 9.20733 8.79471 8.694 9.30804C8.18067 9.82138 7.53667 10.078 6.762 10.078C6.60333 10.078 6.44467 10.064 6.286 10.036L5.922 8.83204C6.118 9.02804 6.33267 9.12604 6.566 9.12604C6.91133 9.12604 7.168 8.91604 7.336 8.49604C7.45733 8.18804 7.518 7.83338 7.518 7.43204C7.50867 6.44271 7.14467 5.94804 6.426 5.94804C6.146 5.94804 5.87067 6.02738 5.6 6.18604L5.586 10.456H3.766L3.78 9.89604C3.64 10.0174 3.32267 10.078 2.828 10.078C1.99733 10.078 1.33 9.86804 0.826 9.44804C0.275333 8.99071 0 8.35604 0 7.54404C0 6.72271 0.21 6.06938 0.63 5.58404C1.078 5.06138 1.70333 4.80004 2.506 4.80004C2.786 4.80004 3.07067 4.83738 3.36 4.91204L3.696 5.99004Z" fill="black"/>
<path d="M12.2361 4.32404V6.63404C12.2361 7.24071 12.2734 7.65604 12.3481 7.88004C12.4601 8.21604 12.6888 8.38404 13.0341 8.38404C13.4261 8.38404 13.6781 8.22071 13.7901 7.89404C13.8461 7.72604 13.8741 7.38538 13.8741 6.87204C13.8741 6.01338 13.7948 5.45338 13.6361 5.19204C13.4774 4.92138 13.1974 4.78138 12.7961 4.77204L13.6081 4.32404H12.2361ZM9.91211 4.32404V3.48404H16.5901L16.6041 4.32404H14.2241C14.6814 4.40804 15.0314 4.68804 15.2741 5.16404C15.4794 5.56538 15.5821 6.02271 15.5821 6.53604C15.5821 7.20804 15.4048 7.80071 15.0501 8.31404C14.7048 8.82738 14.2148 9.19138 13.5801 9.40604C13.3841 9.47138 13.1648 9.50404 12.9221 9.50404C12.3248 9.50404 11.7741 9.34538 11.2701 9.02804C10.6914 8.67338 10.4021 8.21138 10.4021 7.64204V4.32404H9.91211Z" fill="black"/>
<path d="M16.8282 10.456V4.32404H16.3242V3.48404H19.6142V4.32404H18.6202V10.456H16.8282Z" fill="black"/>
<path d="M19.8634 10.456V4.32404H19.3594V3.48404H22.6494V4.32404H21.6554V10.456H19.8634Z" fill="black"/>
<path d="M21.4985 3.48404H19.7065C19.4825 3.28804 19.3892 2.93804 19.4265 2.43404C19.4732 1.74338 19.8745 1.35138 20.6305 1.25804C21.0692 1.20204 21.5312 1.23938 22.0165 1.37004L22.2125 2.36404C21.9885 2.20538 21.7879 2.12604 21.6105 2.12604C21.3959 2.12604 21.2559 2.24738 21.1905 2.49004C21.1532 2.63004 21.1345 2.75138 21.1345 2.85404C21.1345 3.15271 21.2559 3.36271 21.4985 3.48404Z" fill="black"/>
<path d="M26.2865 7.25004C26.2865 6.94204 26.2212 6.67138 26.0905 6.43804C25.9319 6.13938 25.7125 5.99004 25.4325 5.99004C25.0685 5.99004 24.8025 6.23738 24.6345 6.73204C24.5132 7.08671 24.4525 7.48338 24.4525 7.92204C24.4525 9.29404 24.9379 9.98004 25.9085 9.98004C26.3472 9.98004 26.8745 9.83538 27.4905 9.54604L27.1265 10.764C26.6599 10.8854 26.2072 10.946 25.7685 10.946C24.8539 10.946 24.0979 10.6987 23.5005 10.204C22.8565 9.67204 22.5345 8.95804 22.5345 8.06204C22.5345 7.18471 22.7305 6.46604 23.1225 5.90604C23.5705 5.26204 24.2145 4.94004 25.0545 4.94004C25.5212 4.94004 25.9505 5.06138 26.3425 5.30404C26.7439 5.53738 27.0239 5.86404 27.1825 6.28404C27.2385 5.94804 27.4019 5.68204 27.6725 5.48604C27.9432 5.29004 28.2512 5.19204 28.5965 5.19204C28.9419 5.19204 29.2079 5.28538 29.3945 5.47204V4.32404H22.3945V3.48404H32.2645V4.32404H31.2845V10.456H29.3945V6.63404C29.2265 6.47538 29.0072 6.39604 28.7365 6.39604C28.2792 6.39604 28.0505 6.69471 28.0505 7.29204V8.69204H26.2865V7.25004Z" fill="black"/>
<path d="M31.0812 1.95804C30.7639 1.98604 30.6052 2.11671 30.6052 2.35004C30.6052 2.53671 30.7032 2.74671 30.8992 2.98004C30.9925 3.09204 31.1745 3.26471 31.4452 3.49804H29.4712C29.0979 3.13404 28.9112 2.74204 28.9112 2.32204C28.9112 1.84604 29.1259 1.48671 29.5552 1.24404C29.9005 1.04804 30.3299 0.950043 30.8432 0.950043C31.5059 0.950043 32.1219 1.13671 32.6912 1.51004C33.1485 1.80871 33.6992 2.31738 34.3432 3.03604L33.1952 3.48404H35.4772V4.32404H34.4972V10.456H32.7052V4.32404H32.0332V3.48404H32.6212C32.5839 3.11071 32.4065 2.75604 32.0892 2.42004C31.7812 2.07471 31.4452 1.92071 31.0812 1.95804Z" fill="black"/>
<path d="M43.1567 8.20204V4.32404H41.1268V7.58604C41.1268 8.36071 41.4721 8.74804 42.1628 8.74804C42.6854 8.74804 43.0168 8.56604 43.1567 8.20204ZM39.3628 7.74004V4.32404H38.7188V3.48404H45.8307V4.32404H44.8507V10.456H43.1567V9.49004C42.7461 9.82604 42.2607 9.99404 41.7007 9.99404C41.0287 9.99404 40.4688 9.78871 40.0207 9.37804C39.5821 8.95804 39.3628 8.41204 39.3628 7.74004Z" fill="black"/>
<path d="M43.678 9.44804L42.04 10.918C41.4614 11.3474 40.7847 11.6134 40.01 11.716L39.632 10.246C39.9027 10.358 40.1827 10.414 40.472 10.414C41.48 10.414 42.5534 9.69071 43.692 8.24404L43.678 9.44804Z" fill="black"/>
<path d="M51.322 9.50404C51.5834 9.83071 51.9847 9.96604 52.526 9.91004L51.224 11.296C51.0187 11.156 50.8134 11.0207 50.608 10.89C50.4494 10.7407 50.342 10.4747 50.286 10.092C49.838 10.176 49.418 10.218 49.026 10.218C48.1114 10.218 47.346 9.98004 46.73 9.50404C46.0394 8.98138 45.722 8.27204 45.778 7.37604C45.834 6.40538 46.3054 5.70538 47.192 5.27604C47.892 4.93071 48.774 4.78138 49.838 4.82804V4.32404H45.582V3.48404H53.002V4.32404H51.616V5.85004C51.1027 5.76604 50.6314 5.72404 50.202 5.72404C49.5207 5.72404 48.956 5.83604 48.508 6.06004C47.92 6.34938 47.6214 6.79738 47.612 7.40404C47.6027 7.90804 47.7754 8.34204 48.13 8.70604C48.494 9.06071 48.928 9.23804 49.432 9.23804C49.5347 9.23804 49.6374 9.22871 49.74 9.21004C49.5067 8.96738 49.39 8.66871 49.39 8.31404C49.39 7.91271 49.5207 7.57204 49.782 7.29204C50.0527 7.01204 50.3887 6.88138 50.79 6.90004C51.1634 6.91871 51.4574 7.04004 51.672 7.26404C51.8867 7.48804 51.994 7.78671 51.994 8.16004C51.994 8.76671 51.77 9.21471 51.322 9.50404Z" fill="black"/>
<path d="M47.0621 1.09004C47.3888 0.959376 47.7714 0.894043 48.2101 0.894043C48.9661 0.894043 49.5401 1.09471 49.9321 1.49604L51.8641 3.47004H49.7641L48.7001 2.28004C48.3174 1.93471 47.9394 1.76204 47.5661 1.76204C47.3794 1.76204 47.2114 1.80871 47.0621 1.90204V1.09004Z" fill="black"/>
<path d="M57.7861 3.48404H61.6501V4.32404H60.6561V10.456H58.8361V4.32404H57.7861V3.48404ZM55.0141 8.11804C55.7234 8.27671 56.1948 8.61738 56.4281 9.14004C56.7268 9.82138 57.1281 10.162 57.6321 10.162C57.8281 10.162 58.0708 10.1014 58.3601 9.98004L57.9541 10.988C57.6088 11.1094 57.2821 11.17 56.9741 11.17C56.3301 11.17 55.7421 10.876 55.2101 10.288C54.8088 9.71871 54.4354 9.20538 54.0901 8.74804C53.8194 8.39338 53.5301 8.21604 53.2221 8.21604C53.1101 8.21604 52.9981 8.23938 52.8861 8.28604V6.94204C53.4554 7.23138 53.9688 7.37604 54.4261 7.37604C54.9768 7.37604 55.4154 7.18004 55.7421 6.78804C56.0501 6.42404 56.2041 5.96204 56.2041 5.40204C56.2041 4.60871 55.9521 4.21204 55.4481 4.21204C55.1401 4.21204 54.9861 4.46404 54.9861 4.96804C54.9861 5.49071 55.1774 5.75204 55.5601 5.75204C55.6161 5.75204 55.6721 5.74271 55.7281 5.72404L55.0281 6.50804C54.9441 6.52671 54.8508 6.53604 54.7481 6.53604C54.3374 6.53604 53.9548 6.39138 53.6001 6.10204C53.2454 5.80338 53.0681 5.45338 53.0681 5.05204C53.0681 4.80938 53.1428 4.56671 53.2921 4.32404H52.7461V3.48404H53.5441V3.89004C54.0014 3.47004 54.6688 3.27404 55.5461 3.30204C56.5541 3.33938 57.2588 3.75938 57.6601 4.56204C57.8374 4.91671 57.9261 5.26204 57.9261 5.59804C57.9261 6.00871 57.8001 6.41471 57.5481 6.81604C57.0441 7.62804 56.1994 8.06204 55.0141 8.11804Z" fill="black"/>
<path d="M69.0724 6.50804C68.8671 6.88138 68.5544 7.15204 68.1344 7.32004C67.9011 7.41338 67.5604 7.49271 67.1124 7.55804C67.7657 7.70738 68.2371 8.07604 68.5264 8.66404C68.7504 9.11204 68.9184 9.41538 69.0304 9.57404C69.3011 9.93804 69.5764 10.12 69.8564 10.12C70.0151 10.12 70.2064 10.0734 70.4304 9.98004L70.0524 10.988C69.7444 11.1 69.4504 11.156 69.1704 11.156C68.5451 11.156 67.9804 10.8574 67.4764 10.26C67.4484 10.2227 67.0797 9.65804 66.3704 8.56604C65.9784 7.95938 65.6191 7.65604 65.2924 7.65604C65.1897 7.65604 65.0871 7.67938 64.9844 7.72604V6.38204C65.4604 6.55004 65.8757 6.63404 66.2304 6.63404C67.0611 6.63404 67.4764 6.25604 67.4764 5.50004C67.4764 5.24804 67.4111 5.00538 67.2804 4.77204C67.1311 4.50138 66.9444 4.35204 66.7204 4.32404H64.9004V3.48404H73.7204V4.32404H72.7264V10.456H70.9064V6.81604H69.0724C69.0631 6.68538 69.0631 6.58271 69.0724 6.50804ZM70.9064 5.89204V4.32404H68.4284C68.6431 4.37071 68.8344 4.52938 69.0024 4.80004C69.1704 5.07071 69.2544 5.32271 69.2544 5.55604C69.2544 5.67738 69.2357 5.78938 69.1984 5.89204H70.9064Z" fill="black"/>
<path d="M80.361 4.32404H77.547C77.8176 4.38938 78.037 4.56671 78.205 4.85604C78.373 5.14538 78.457 5.43938 78.457 5.73804C78.457 6.33538 78.1723 6.78804 77.603 7.09604C77.1736 7.32938 76.623 7.46004 75.951 7.48804C76.3056 7.60004 76.5717 7.77271 76.749 8.00604C76.7863 8.05271 76.9263 8.29538 77.169 8.73404C77.6263 9.55538 78.0696 9.96604 78.499 9.96604C78.7977 9.96604 79.2037 9.81671 79.717 9.51804L79.339 10.722C78.835 10.89 78.373 10.974 77.953 10.974C77.1877 10.974 76.525 10.6894 75.965 10.12C75.769 9.91471 75.3957 9.38738 74.845 8.53804C74.481 7.96871 74.145 7.68404 73.837 7.68404C73.7623 7.68404 73.6877 7.69338 73.613 7.71204V6.36804C74.1917 6.64804 74.705 6.78804 75.153 6.78804C75.5637 6.78804 75.895 6.67138 76.147 6.43804C76.399 6.20471 76.525 5.88738 76.525 5.48604C76.525 4.90738 76.2963 4.52004 75.839 4.32404H73.459V3.48404H80.361V4.32404Z" fill="black"/>
<path d="M83.7312 5.99004C83.4792 5.85004 83.2505 5.78004 83.0452 5.78004C82.6812 5.78004 82.4105 5.98071 82.2332 6.38204C82.1025 6.68071 82.0372 7.04004 82.0372 7.46004C82.0372 7.87071 82.1165 8.22538 82.2752 8.52404C82.4712 8.89738 82.7558 9.08404 83.1292 9.08404C83.3718 9.08404 83.6052 9.00938 83.8292 8.86004V4.31004H80.0352V3.48404H90.1992V4.31004H85.6212V5.20604C86.0505 4.94471 86.5218 4.81404 87.0352 4.81404C87.7818 4.81404 88.3838 5.05204 88.8412 5.52804C89.2985 6.00404 89.5225 6.61538 89.5132 7.36204C89.5038 8.14604 89.2425 8.79471 88.7292 9.30804C88.2158 9.82138 87.5718 10.078 86.7972 10.078C86.6385 10.078 86.4798 10.064 86.3212 10.036L85.9572 8.83204C86.1532 9.02804 86.3678 9.12604 86.6012 9.12604C86.9465 9.12604 87.2032 8.91604 87.3712 8.49604C87.4925 8.18804 87.5532 7.83338 87.5532 7.43204C87.5438 6.44271 87.1798 5.94804 86.4612 5.94804C86.1812 5.94804 85.9058 6.02738 85.6352 6.18604L85.6212 10.456H83.8012L83.8152 9.89604C83.6752 10.0174 83.3578 10.078 82.8632 10.078C82.0325 10.078 81.3652 9.86804 80.8612 9.44804C80.3105 8.99071 80.0352 8.35604 80.0352 7.54404C80.0352 6.72271 80.2452 6.06938 80.6652 5.58404C81.1132 5.06138 81.7385 4.80004 82.5412 4.80004C82.8212 4.80004 83.1058 4.83738 83.3952 4.91204L83.7312 5.99004Z" fill="black"/>
<path d="M90.4513 10.456V4.32404H89.9473V3.48404H93.2373V4.32404H92.2433V10.456H90.4513Z" fill="black"/>
<path d="M99.8844 4.32404H97.0704C97.3411 4.38938 97.5604 4.56671 97.7284 4.85604C97.8964 5.14538 97.9804 5.43938 97.9804 5.73804C97.9804 6.33538 97.6958 6.78804 97.1264 7.09604C96.6971 7.32938 96.1464 7.46004 95.4744 7.48804C95.8291 7.60004 96.0951 7.77271 96.2724 8.00604C96.3098 8.05271 96.4498 8.29538 96.6924 8.73404C97.1498 9.55538 97.5931 9.96604 98.0224 9.96604C98.3211 9.96604 98.7271 9.81671 99.2404 9.51804L98.8624 10.722C98.3584 10.89 97.8964 10.974 97.4764 10.974C96.7111 10.974 96.0484 10.6894 95.4884 10.12C95.2924 9.91471 94.9191 9.38738 94.3684 8.53804C94.0044 7.96871 93.6684 7.68404 93.3604 7.68404C93.2858 7.68404 93.2111 7.69338 93.1364 7.71204V6.36804C93.7151 6.64804 94.2284 6.78804 94.6764 6.78804C95.0871 6.78804 95.4184 6.67138 95.6704 6.43804C95.9224 6.20471 96.0484 5.88738 96.0484 5.48604C96.0484 4.90738 95.8198 4.52004 95.3624 4.32404H92.9824V3.48404H99.8844V4.32404Z" fill="black"/>
<path d="M12.1 18.496V19.696H10.7V28.456H8.12V23.256H6.5C6.52667 24.6427 6.37333 25.696 6.04 26.416C5.57333 27.4027 4.72 27.9227 3.48 27.976C2.44 28.016 1.62 27.7694 1.02 27.236C0.42 26.6894 0.12 25.896 0.12 24.856C0.12 24.0027 0.373333 23.2894 0.88 22.716C1.38667 22.1427 2.06 21.856 2.9 21.856C3.12667 21.856 3.36 21.8827 3.6 21.936L4.04 23.256C3.85333 23.176 3.68 23.136 3.52 23.136C3.13333 23.136 2.83333 23.336 2.62 23.736C2.44667 24.056 2.36 24.4294 2.36 24.856C2.36 25.2827 2.44667 25.6627 2.62 25.996C2.83333 26.4227 3.13333 26.636 3.52 26.636C4 26.636 4.24 26.2294 4.24 25.416V19.696H0V18.496H12.1ZM6.48 19.696V21.936H8.12V19.696H6.48Z" fill="black"/>
<path d="M7.97781 29.036V30.356C8.27115 29.916 8.68448 29.696 9.21781 29.696C9.67115 29.696 9.89781 29.8694 9.89781 30.216C9.89781 30.6694 9.60448 30.896 9.01781 30.896C8.55115 30.896 8.07781 30.7494 7.59781 30.456C7.11781 30.176 6.81781 29.8227 6.69781 29.396L5.57781 30.656C6.79115 31.5227 7.93115 31.956 8.99781 31.956C11.3311 31.956 12.5045 31.3494 12.5178 30.136C12.5311 29.016 11.6911 28.456 9.99781 28.456C8.97115 28.456 8.29781 28.6494 7.97781 29.036Z" fill="black"/>
<path d="M22.4378 24.576V22.436C22.3178 22.276 22.1511 22.196 21.9378 22.196C21.2978 22.196 20.9778 22.6494 20.9778 23.556C20.9778 23.8894 21.0578 24.1894 21.2178 24.456C21.3911 24.7227 21.6378 24.856 21.9578 24.856C22.1978 24.856 22.3578 24.7627 22.4378 24.576ZM17.5978 19.696C17.9845 19.7894 18.2978 20.0427 18.5378 20.456C18.7778 20.8694 18.8978 21.2894 18.8978 21.716C18.8978 22.5694 18.4911 23.216 17.6778 23.656C17.0645 23.9894 16.2778 24.176 15.3178 24.216C16.1578 24.4027 16.8978 24.956 17.5378 25.876C18.3778 27.076 19.1711 27.676 19.9178 27.676C20.3978 27.676 20.9378 27.496 21.5378 27.136L20.9978 28.896C20.2911 29.1227 19.6245 29.236 18.9978 29.236C17.8511 29.236 16.8178 28.8294 15.8978 28.016C15.6178 27.7627 14.9711 26.996 13.9578 25.716C13.3178 24.9027 12.7645 24.496 12.2978 24.496C12.1911 24.496 12.0845 24.5094 11.9778 24.536L11.9978 22.616C12.8245 23.016 13.5578 23.216 14.1978 23.216C14.7578 23.216 15.2245 23.0494 15.5978 22.716C15.9711 22.3827 16.1578 21.936 16.1578 21.376C16.1578 20.536 15.8245 19.976 15.1578 19.696H11.7578V18.496H23.0578V19.696H17.5978ZM22.7578 25.956C22.5445 26.1827 22.1978 26.296 21.7178 26.296C20.9311 26.296 20.2511 26.056 19.6778 25.576C19.0645 25.0694 18.7511 24.436 18.7378 23.676C18.7245 22.8227 18.9845 22.136 19.5178 21.616C20.0511 21.096 20.7445 20.836 21.5978 20.836C22.0911 20.836 22.4778 20.936 22.7578 21.136V25.956Z" fill="black"/>
<path d="M34.3108 18.496V19.696H32.9108V28.456H30.4508V27.436C29.8241 27.916 29.0641 28.156 28.1708 28.156C27.0774 28.156 25.9708 27.836 24.8508 27.196C23.7441 26.556 22.9041 25.7627 22.3308 24.816V22.476C23.2374 22.9427 24.0374 23.176 24.7308 23.176C25.3174 23.176 25.7974 23.0027 26.1708 22.656C26.5441 22.296 26.7308 21.8227 26.7308 21.236C26.7308 20.836 26.6241 20.4827 26.4108 20.176C26.1974 19.856 25.9041 19.696 25.5308 19.696H22.0508V18.496H34.3108ZM28.5708 19.696C29.0908 20.0427 29.3508 20.636 29.3508 21.476C29.3508 22.4494 28.9908 23.2094 28.2708 23.756C27.6174 24.2627 26.7908 24.516 25.7908 24.516C25.5241 24.516 25.2374 24.496 24.9308 24.456C25.2908 25.0427 25.7908 25.5494 26.4308 25.976C27.0841 26.4027 27.7308 26.616 28.3708 26.616C29.2374 26.616 29.9308 26.216 30.4508 25.416V19.696H28.5708Z" fill="black"/>
<path d="M46.0258 18.496V19.696H44.6258V28.456H42.0458V23.256H40.4258C40.4524 24.6427 40.2991 25.696 39.9658 26.416C39.4991 27.4027 38.6458 27.9227 37.4058 27.976C36.3658 28.016 35.5458 27.7694 34.9458 27.236C34.3458 26.6894 34.0458 25.896 34.0458 24.856C34.0458 24.0027 34.2991 23.2894 34.8058 22.716C35.3125 22.1427 35.9858 21.856 36.8258 21.856C37.0524 21.856 37.2858 21.8827 37.5258 21.936L37.9658 23.256C37.7791 23.176 37.6058 23.136 37.4458 23.136C37.0591 23.136 36.7591 23.336 36.5458 23.736C36.3724 24.056 36.2858 24.4294 36.2858 24.856C36.2858 25.2827 36.3724 25.6627 36.5458 25.996C36.7591 26.4227 37.0591 26.636 37.4458 26.636C37.9258 26.636 38.1658 26.2294 38.1658 25.416V19.696H33.9258V18.496H46.0258ZM40.4058 19.696V21.936H42.0458V19.696H40.4058Z" fill="black"/>
<path d="M49.7636 22.936L50.8436 22.036C49.6303 22.0627 48.9969 22.8427 48.9436 24.376C48.9303 24.7627 48.9969 25.1294 49.1436 25.476C49.3303 25.9294 49.5903 26.156 49.9236 26.156C50.5103 26.156 50.7836 25.5827 50.7436 24.436C50.7169 23.396 50.4903 22.876 50.0636 22.876C49.9703 22.876 49.8703 22.896 49.7636 22.936ZM45.6836 19.696V18.496H54.9436V19.696H45.6836ZM54.7636 22.776C54.0703 22.1227 53.1236 21.796 51.9236 21.796C51.5769 21.796 51.2569 21.8227 50.9636 21.876C52.1769 22.356 52.7769 23.196 52.7636 24.396C52.7369 26.6627 51.6703 27.8227 49.5636 27.876C48.5103 27.9027 47.6569 27.5894 47.0036 26.936C46.3503 26.2827 46.0236 25.4294 46.0236 24.376C46.0236 22.6427 46.9036 21.456 48.6636 20.816C49.4369 20.536 50.2769 20.396 51.1836 20.396C52.4503 20.396 53.6436 20.6894 54.7636 21.276V22.776Z" fill="black"/>
<path d="M60.3467 25.616C60.16 24.6294 60.0134 23.9827 59.9067 23.676C59.6401 22.916 59.2534 22.5027 58.7467 22.436C58.3467 22.3827 58.0334 22.4894 57.8067 22.756C57.5934 23.0227 57.4867 23.3627 57.4867 23.776C57.4867 24.056 57.5334 24.3694 57.6267 24.716L54.6467 23.536C54.82 21.9227 56.1001 21.096 58.4867 21.056C59.3534 21.0427 60.0601 21.256 60.6067 21.696C61.0601 22.056 61.6067 22.7827 62.2467 23.876V19.696H53.8867V18.496H66.2467V19.696H64.8467V28.456H62.2067V25.976C59.6734 28.176 57.66 29.276 56.1667 29.276C55.5801 29.276 55.0467 29.1227 54.5667 28.816L54.2267 26.916C55.0001 27.396 55.6334 27.636 56.1267 27.636C57.0467 27.636 58.4534 26.9627 60.3467 25.616Z" fill="black"/>
<path d="M64.5189 16.316C64.0656 16.356 63.8389 16.5427 63.8389 16.876C63.8389 17.1427 63.9789 17.4427 64.2589 17.776C64.3922 17.936 64.6522 18.1827 65.0389 18.516H62.2189C61.6856 17.996 61.4189 17.436 61.4189 16.836C61.4189 16.156 61.7256 15.6427 62.3389 15.296C62.8322 15.016 63.4456 14.876 64.1789 14.876C65.1256 14.876 66.0056 15.1427 66.8189 15.676C67.4722 16.1027 68.2589 16.8294 69.1789 17.856L67.5389 18.496H70.7989V19.696H69.3989V28.456H66.8389V19.696H65.8789V18.496H66.7189C66.6656 17.9627 66.4122 17.456 65.9589 16.976C65.5189 16.4827 65.0389 16.2627 64.5189 16.316Z" fill="black"/>
<path d="M81.9497 28.456V22.476C81.4164 22.2094 80.9164 22.076 80.4497 22.076C79.7297 22.076 79.1897 22.3694 78.8297 22.956C78.5097 23.4494 78.3564 24.076 78.3697 24.836C78.383 26.7294 79.0697 27.6694 80.4297 27.656C80.683 27.656 80.9097 27.636 81.1097 27.596L80.2697 29.176C78.9364 29.1494 77.8564 28.7894 77.0297 28.096C76.1497 27.3627 75.683 26.3427 75.6297 25.036C75.5763 23.676 75.943 22.616 76.7297 21.856C77.5297 21.096 78.6163 20.716 79.9897 20.716C80.6163 20.716 81.2697 20.8027 81.9497 20.976V19.696H75.4297V18.496H86.0697V19.696H84.6697L84.6497 28.456H81.9497Z" fill="black"/>
<path d="M89.5627 18.276C91.016 18.276 92.0693 18.876 92.7227 20.076C93.0293 20.636 93.1827 21.196 93.1827 21.756C93.1827 22.3427 93.016 22.916 92.6827 23.476C91.9493 24.7027 90.6093 25.3494 88.6627 25.416C90.0627 26.3627 91.136 26.836 91.8827 26.836C92.7227 26.836 93.4693 26.3627 94.1227 25.416V19.696H92.8427V18.496H98.1027V19.696H96.5827V28.456H94.1427V27.436C93.356 28.036 92.396 28.336 91.2627 28.336C90.236 28.336 89.2427 28.1027 88.2827 27.636C87.2427 27.1427 86.476 26.4827 85.9827 25.656V23.436C86.796 23.8227 87.5227 24.016 88.1627 24.016C88.9227 24.016 89.5293 23.7627 89.9827 23.256C90.4493 22.736 90.6827 22.0894 90.6827 21.316C90.6827 20.916 90.6093 20.556 90.4627 20.236C90.276 19.836 90.0093 19.616 89.6627 19.576C89.3293 19.536 89.0627 19.6494 88.8627 19.916C88.676 20.1694 88.5827 20.4694 88.5827 20.816C88.5827 21.5227 88.8827 21.876 89.4827 21.876C89.5627 21.876 89.6493 21.8694 89.7427 21.856L88.7027 22.736C88.5827 22.7627 88.4493 22.776 88.3027 22.776C87.7427 22.776 87.2427 22.5894 86.8027 22.216C86.3627 21.8294 86.1427 21.3627 86.1427 20.816C86.1427 20.4427 86.2627 20.0694 86.5027 19.696H85.7227V18.496H86.8627V19.096C87.4093 18.5494 88.3093 18.276 89.5627 18.276Z" fill="black"/>
<path d="M98.4348 28.456V19.696H97.7148V18.496H102.415V19.696H100.995V28.456H98.4348Z" fill="black"/>
<path d="M119.151 18.496V19.696H117.751V28.456H115.171V23.256H113.551C113.577 24.6427 113.424 25.696 113.091 26.416C112.624 27.4027 111.771 27.9227 110.531 27.976C109.491 28.016 108.671 27.7694 108.071 27.236C107.471 26.6894 107.171 25.896 107.171 24.856C107.171 24.0027 107.424 23.2894 107.931 22.716C108.437 22.1427 109.111 21.856 109.951 21.856C110.177 21.856 110.411 21.8827 110.651 21.936L111.091 23.256C110.904 23.176 110.731 23.136 110.571 23.136C110.184 23.136 109.884 23.336 109.671 23.736C109.497 24.056 109.411 24.4294 109.411 24.856C109.411 25.2827 109.497 25.6627 109.671 25.996C109.884 26.4227 110.184 26.636 110.571 26.636C111.051 26.636 111.291 26.2294 111.291 25.416V19.696H107.051V18.496H119.151ZM113.531 19.696V21.936H115.171V19.696H113.531Z" fill="black"/>
<path d="M123.449 18.496V19.696H122.049V28.456H119.489V19.696H118.809V18.496H119.569C119.302 18.2694 119.155 18.0094 119.129 17.716C119.022 16.596 119.435 15.756 120.369 15.196C121.075 14.7694 122.042 14.5294 123.269 14.476C124.509 14.4227 125.855 14.6427 127.309 15.136C128.989 15.7094 130.302 16.5094 131.249 17.536L128.609 18.476C127.622 16.8227 126.215 15.996 124.389 15.996C122.682 15.996 121.749 16.4827 121.589 17.456C121.522 17.8294 121.682 18.176 122.069 18.496H123.449Z" fill="black"/>
<path d="M127.166 22.936L128.246 22.036C127.033 22.0627 126.399 22.8427 126.346 24.376C126.333 24.7627 126.399 25.1294 126.546 25.476C126.733 25.9294 126.993 26.156 127.326 26.156C127.913 26.156 128.186 25.5827 128.146 24.436C128.119 23.396 127.893 22.876 127.466 22.876C127.373 22.876 127.273 22.896 127.166 22.936ZM123.086 19.696V18.496H132.346V19.696H123.086ZM132.166 22.776C131.473 22.1227 130.526 21.796 129.326 21.796C128.979 21.796 128.659 21.8227 128.366 21.876C129.579 22.356 130.179 23.196 130.166 24.396C130.139 26.6627 129.073 27.8227 126.966 27.876C125.913 27.9027 125.059 27.5894 124.406 26.936C123.753 26.2827 123.426 25.4294 123.426 24.376C123.426 22.6427 124.306 21.456 126.066 20.816C126.839 20.536 127.679 20.396 128.586 20.396C129.853 20.396 131.046 20.6894 132.166 21.276V22.776Z" fill="black"/>
<path d="M137.749 25.616C137.562 24.6294 137.416 23.9827 137.309 23.676C137.042 22.916 136.656 22.5027 136.149 22.436C135.749 22.3827 135.436 22.4894 135.209 22.756C134.996 23.0227 134.889 23.3627 134.889 23.776C134.889 24.056 134.936 24.3694 135.029 24.716L132.049 23.536C132.222 21.9227 133.502 21.096 135.889 21.056C136.756 21.0427 137.462 21.256 138.009 21.696C138.462 22.056 139.009 22.7827 139.649 23.876V19.696H131.289V18.496H143.649V19.696H142.249V28.456H139.609V25.976C137.076 28.176 135.062 29.276 133.569 29.276C132.982 29.276 132.449 29.1227 131.969 28.816L131.629 26.916C132.402 27.396 133.036 27.636 133.529 27.636C134.449 27.636 135.856 26.9627 137.749 25.616Z" fill="black"/>
<path d="M149.621 25.236V19.696H146.721V24.356C146.721 25.4627 147.215 26.016 148.201 26.016C148.948 26.016 149.421 25.756 149.621 25.236ZM144.201 24.576V19.696H143.281V18.496H153.441V19.696H152.041V28.456H149.621V27.076C149.035 27.556 148.341 27.796 147.541 27.796C146.581 27.796 145.781 27.5027 145.141 26.916C144.515 26.316 144.201 25.536 144.201 24.576Z" fill="black"/>
<path d="M157.726 18.496V19.696H156.326V28.456H153.766V19.696H153.086V18.496H153.846C153.579 18.2694 153.433 18.0094 153.406 17.716C153.299 16.596 153.713 15.756 154.646 15.196C155.353 14.7694 156.319 14.5294 157.546 14.476C158.786 14.4227 160.133 14.6427 161.586 15.136C163.266 15.7094 164.579 16.5094 165.526 17.536L162.886 18.476C161.899 16.8227 160.493 15.996 158.666 15.996C156.959 15.996 156.026 16.4827 155.866 17.456C155.799 17.8294 155.959 18.176 156.346 18.496H157.726Z" fill="black"/>
<path d="M167.223 19.696H163.203C163.59 19.7894 163.903 20.0427 164.143 20.456C164.383 20.8694 164.503 21.2894 164.503 21.716C164.503 22.5694 164.097 23.216 163.283 23.656C162.67 23.9894 161.883 24.176 160.923 24.216C161.43 24.376 161.81 24.6227 162.063 24.956C162.117 25.0227 162.317 25.3694 162.663 25.996C163.317 27.1694 163.95 27.756 164.563 27.756C164.99 27.756 165.57 27.5427 166.303 27.116L165.763 28.836C165.043 29.076 164.383 29.196 163.783 29.196C162.69 29.196 161.743 28.7894 160.943 27.976C160.663 27.6827 160.13 26.9294 159.343 25.716C158.823 24.9027 158.343 24.496 157.903 24.496C157.797 24.496 157.69 24.5094 157.583 24.536V22.616C158.41 23.016 159.143 23.216 159.783 23.216C160.37 23.216 160.843 23.0494 161.203 22.716C161.563 22.3827 161.743 21.9294 161.743 21.356C161.743 20.5294 161.417 19.976 160.763 19.696H157.363V18.496H167.223V19.696Z" fill="black"/>
<path d="M173.338 25.276L170.198 20.576V24.356C170.198 25.476 170.744 26.036 171.838 26.036C172.638 26.036 173.138 25.7827 173.338 25.276ZM174.518 18.496V19.696H171.118L174.478 24.536L174.458 26.276C173.791 27.156 172.811 27.596 171.518 27.596C170.531 27.596 169.671 27.3427 168.938 26.836C168.098 26.2627 167.678 25.5094 167.678 24.576V19.696H166.758V18.496H174.518Z" fill="black"/>
<path d="M173.474 28.456V19.696H172.754V18.496H177.454V19.696H176.034V28.456H173.474Z" fill="black"/>
<path d="M185.29 27.096C185.663 27.5627 186.237 27.756 187.01 27.676L185.15 29.656C184.857 29.456 184.563 29.2627 184.27 29.076C184.043 28.8627 183.89 28.4827 183.81 27.936C183.17 28.056 182.57 28.116 182.01 28.116C180.703 28.116 179.61 27.776 178.73 27.096C177.743 26.3494 177.29 25.336 177.37 24.056C177.45 22.6694 178.123 21.6694 179.39 21.056C180.39 20.5627 181.65 20.3494 183.17 20.416V19.696H177.09V18.496H187.69V19.696H185.71V21.876C184.977 21.756 184.303 21.696 183.69 21.696C182.717 21.696 181.91 21.856 181.27 22.176C180.43 22.5894 180.003 23.2294 179.99 24.096C179.977 24.816 180.223 25.436 180.73 25.956C181.25 26.4627 181.87 26.716 182.59 26.716C182.737 26.716 182.883 26.7027 183.03 26.676C182.697 26.3294 182.53 25.9027 182.53 25.396C182.53 24.8227 182.717 24.336 183.09 23.936C183.477 23.536 183.957 23.3494 184.53 23.376C185.063 23.4027 185.483 23.576 185.79 23.896C186.097 24.216 186.25 24.6427 186.25 25.176C186.25 26.0427 185.93 26.6827 185.29 27.096Z" fill="black"/>
<path d="M188.524 30.536L187.124 31.116L184.724 29.436L186.964 28.776L188.524 30.536Z" fill="black"/>
<path d="M192.604 22.076C192.244 21.876 191.918 21.776 191.624 21.776C191.104 21.776 190.718 22.0627 190.464 22.636C190.278 23.0627 190.184 23.576 190.184 24.176C190.184 24.7627 190.298 25.2694 190.524 25.696C190.804 26.2294 191.211 26.496 191.744 26.496C192.091 26.496 192.424 26.3894 192.744 26.176V19.676H187.324V18.496H201.844V19.676H195.304V20.956C195.918 20.5827 196.591 20.396 197.324 20.396C198.391 20.396 199.251 20.736 199.904 21.416C200.558 22.096 200.878 22.9694 200.864 24.036C200.851 25.156 200.478 26.0827 199.744 26.816C199.011 27.5494 198.091 27.916 196.984 27.916C196.758 27.916 196.531 27.896 196.304 27.856L195.784 26.136C196.064 26.416 196.371 26.556 196.704 26.556C197.198 26.556 197.564 26.256 197.804 25.656C197.978 25.216 198.064 24.7094 198.064 24.136C198.051 22.7227 197.531 22.016 196.504 22.016C196.104 22.016 195.711 22.1294 195.324 22.356L195.304 28.456H192.704L192.724 27.656C192.524 27.8294 192.071 27.916 191.364 27.916C190.178 27.916 189.224 27.616 188.504 27.016C187.718 26.3627 187.324 25.456 187.324 24.296C187.324 23.1227 187.624 22.1894 188.224 21.496C188.864 20.7494 189.758 20.376 190.904 20.376C191.304 20.376 191.711 20.4294 192.124 20.536L192.604 22.076Z" fill="black"/>
<path d="M202.204 28.456V19.696H201.484V18.496H206.184V19.696H204.764V28.456H202.204Z" fill="black"/>
<path d="M197.7 15.076C198.167 14.8894 198.714 14.796 199.34 14.796C200.42 14.796 201.24 15.0827 201.8 15.656L204.56 18.476H201.56L200.04 16.776C199.494 16.2827 198.954 16.036 198.42 16.036C198.154 16.036 197.914 16.1027 197.7 16.236V15.076Z" fill="black"/>
<path d="M216.1 22.076C215.74 21.876 215.414 21.776 215.12 21.776C214.6 21.776 214.214 22.0627 213.96 22.636C213.774 23.0627 213.68 23.576 213.68 24.176C213.68 24.7627 213.794 25.2694 214.02 25.696C214.3 26.2294 214.707 26.496 215.24 26.496C215.587 26.496 215.92 26.3894 216.24 26.176V19.676H210.82V18.496H225.34V19.676H218.8V20.956C219.414 20.5827 220.087 20.396 220.82 20.396C221.887 20.396 222.747 20.736 223.4 21.416C224.054 22.096 224.374 22.9694 224.36 24.036C224.347 25.156 223.974 26.0827 223.24 26.816C222.507 27.5494 221.587 27.916 220.48 27.916C220.254 27.916 220.027 27.896 219.8 27.856L219.28 26.136C219.56 26.416 219.867 26.556 220.2 26.556C220.694 26.556 221.06 26.256 221.3 25.656C221.474 25.216 221.56 24.7094 221.56 24.136C221.547 22.7227 221.027 22.016 220 22.016C219.6 22.016 219.207 22.1294 218.82 22.356L218.8 28.456H216.2L216.22 27.656C216.02 27.8294 215.567 27.916 214.86 27.916C213.674 27.916 212.72 27.616 212 27.016C211.214 26.3627 210.82 25.456 210.82 24.296C210.82 23.1227 211.12 22.1894 211.72 21.496C212.36 20.7494 213.254 20.376 214.4 20.376C214.8 20.376 215.207 20.4294 215.62 20.536L216.1 22.076Z" fill="black"/>
<path d="M225.7 28.456V19.696H224.98V18.496H229.68V19.696H228.26V28.456H225.7Z" fill="black"/>
<path d="M241.576 18.496V19.696H240.176V28.456H237.716V27.436C237.09 27.916 236.33 28.156 235.436 28.156C234.343 28.156 233.236 27.836 232.116 27.196C231.01 26.556 230.17 25.7627 229.596 24.816V22.476C230.503 22.9427 231.303 23.176 231.996 23.176C232.583 23.176 233.063 23.0027 233.436 22.656C233.81 22.296 233.996 21.8227 233.996 21.236C233.996 20.836 233.89 20.4827 233.676 20.176C233.463 19.856 233.17 19.696 232.796 19.696H229.316V18.496H241.576ZM235.836 19.696C236.356 20.0427 236.616 20.636 236.616 21.476C236.616 22.4494 236.256 23.2094 235.536 23.756C234.883 24.2627 234.056 24.516 233.056 24.516C232.79 24.516 232.503 24.496 232.196 24.456C232.556 25.0427 233.056 25.5494 233.696 25.976C234.35 26.4027 234.996 26.616 235.636 26.616C236.503 26.616 237.196 26.216 237.716 25.416V19.696H235.836Z" fill="black"/>
<path d="M241.911 28.456V19.696H241.191V18.496H245.891V19.696H244.471V28.456H241.911Z" fill="black"/>
<path d="M244.247 18.496H241.687C241.367 18.216 241.234 17.716 241.287 16.996C241.354 16.0094 241.927 15.4494 243.007 15.316C243.634 15.236 244.294 15.2894 244.987 15.476L245.267 16.896C244.947 16.6694 244.661 16.556 244.407 16.556C244.101 16.556 243.901 16.7294 243.807 17.076C243.754 17.276 243.727 17.4494 243.727 17.596C243.727 18.0227 243.901 18.3227 244.247 18.496Z" fill="black"/>
<path d="M251.087 23.876C251.087 23.436 250.994 23.0494 250.807 22.716C250.581 22.2894 250.267 22.076 249.867 22.076C249.347 22.076 248.967 22.4294 248.727 23.136C248.554 23.6427 248.467 24.2094 248.467 24.836C248.467 26.796 249.161 27.776 250.547 27.776C251.174 27.776 251.927 27.5694 252.807 27.156L252.287 28.896C251.621 29.0694 250.974 29.156 250.347 29.156C249.041 29.156 247.961 28.8027 247.107 28.096C246.187 27.336 245.727 26.316 245.727 25.036C245.727 23.7827 246.007 22.756 246.567 21.956C247.207 21.036 248.127 20.576 249.327 20.576C249.994 20.576 250.607 20.7494 251.167 21.096C251.741 21.4294 252.141 21.896 252.367 22.496C252.447 22.016 252.681 21.636 253.067 21.356C253.454 21.076 253.894 20.936 254.387 20.936C254.881 20.936 255.261 21.0694 255.527 21.336V19.696H245.527V18.496H259.627V19.696H258.227V28.456H255.527V22.996C255.287 22.7694 254.974 22.656 254.587 22.656C253.934 22.656 253.607 23.0827 253.607 23.936V25.936H251.087V23.876Z" fill="black"/>
<path d="M271.557 18.496V19.696H270.157V28.456H267.697V27.436C267.07 27.916 266.31 28.156 265.417 28.156C264.324 28.156 263.217 27.836 262.097 27.196C260.99 26.556 260.15 25.7627 259.577 24.816V22.476C260.484 22.9427 261.284 23.176 261.977 23.176C262.564 23.176 263.044 23.0027 263.417 22.656C263.79 22.296 263.977 21.8227 263.977 21.236C263.977 20.836 263.87 20.4827 263.657 20.176C263.444 19.856 263.15 19.696 262.777 19.696H259.297V18.496H271.557ZM265.817 19.696C266.337 20.0427 266.597 20.636 266.597 21.476C266.597 22.4494 266.237 23.2094 265.517 23.756C264.864 24.2627 264.037 24.516 263.037 24.516C262.77 24.516 262.484 24.496 262.177 24.456C262.537 25.0427 263.037 25.5494 263.677 25.976C264.33 26.4027 264.977 26.616 265.617 26.616C266.484 26.616 267.177 26.216 267.697 25.416V19.696H265.817Z" fill="black"/>
</svg>
