<svg width="247" height="33" viewBox="0 0 247 33" fill="none" xmlns="http://www.w3.org/2000/svg">
<g id="Group 2086">
<g id="Group 2089">
<g id="Line Ministry Budget Information System">
<path d="M0.705078 29.1094V17.75H2.69382V27.1797H7.63879V29.1094H0.705078Z" fill="black"/>
<path d="M8.49932 19.6875V17.6562H10.3873V19.6875H8.49932ZM8.49932 29.1094V20.8125H10.3873V29.1094H8.49932Z" fill="black"/>
<path d="M18.2689 29.1094H16.3809V24.875C16.3809 23.9792 16.3406 23.401 16.26 23.1406C16.1793 22.875 16.0472 22.6693 15.8636 22.5234C15.6844 22.3776 15.4672 22.3047 15.2118 22.3047C14.8849 22.3047 14.5915 22.4089 14.3317 22.6172C14.0719 22.8255 13.8927 23.1016 13.7942 23.4453C13.7001 23.7891 13.6531 24.4245 13.6531 25.3516V29.1094H11.7651V20.8125H13.5187V22.0312C14.1413 21.0938 14.9252 20.625 15.8703 20.625C16.2868 20.625 16.6676 20.7135 17.0125 20.8906C17.3574 21.0625 17.6171 21.2839 17.7918 21.5547C17.971 21.8255 18.0942 22.1328 18.1614 22.4766C18.233 22.8203 18.2689 23.3125 18.2689 23.9531V29.1094Z" fill="black"/>
<path d="M23.772 26.4688L25.6533 26.8359C25.4114 27.638 25.0284 28.25 24.5044 28.6719C23.9848 29.0885 23.3331 29.2969 22.5492 29.2969C21.3085 29.2969 20.3903 28.8255 19.7945 27.8828C19.3242 27.1276 19.0891 26.1745 19.0891 25.0234C19.0891 23.6484 19.3981 22.5729 20.0163 21.7969C20.6344 21.0156 21.416 20.625 22.3611 20.625C23.4226 20.625 24.2602 21.0339 24.8739 21.8516C25.4875 22.6641 25.7809 23.9115 25.754 25.5938H21.0241C21.0375 26.2448 21.1898 26.7526 21.4809 27.1172C21.7721 27.4766 22.1349 27.6562 22.5694 27.6562C22.865 27.6562 23.1136 27.5625 23.3151 27.375C23.5167 27.1875 23.669 26.8854 23.772 26.4688ZM23.8795 24.25C23.8661 23.6146 23.725 23.1328 23.4562 22.8047C23.1875 22.4714 22.8605 22.3047 22.4753 22.3047C22.0632 22.3047 21.7228 22.4792 21.4541 22.8281C21.1853 23.1771 21.0532 23.651 21.0577 24.25H23.8795Z" fill="black"/>
<path d="M30.0148 29.1094V17.6562H32.9912L34.7783 25.4688L36.5454 17.6562H39.5285V29.1094H37.6808V20.0938L35.7257 29.1094H33.8108L31.8624 20.0938V29.1094H30.0148Z" fill="black"/>
<path d="M40.9399 19.6875V17.6562H42.8279V19.6875H40.9399ZM40.9399 29.1094V20.8125H42.8279V29.1094H40.9399Z" fill="black"/>
<path d="M50.7095 29.1094H48.8215V24.875C48.8215 23.9792 48.7812 23.401 48.7006 23.1406C48.62 22.875 48.4878 22.6693 48.3042 22.5234C48.125 22.3776 47.9078 22.3047 47.6525 22.3047C47.3255 22.3047 47.0321 22.4089 46.7723 22.6172C46.5125 22.8255 46.3334 23.1016 46.2348 23.4453C46.1408 23.7891 46.0937 24.4245 46.0937 25.3516V29.1094H44.2058V20.8125H45.9593V22.0312C46.5819 21.0938 47.3658 20.625 48.3109 20.625C48.7275 20.625 49.1082 20.7135 49.4531 20.8906C49.798 21.0625 50.0578 21.2839 50.2324 21.5547C50.4116 21.8255 50.5348 22.1328 50.602 22.4766C50.6736 22.8203 50.7095 23.3125 50.7095 23.9531V29.1094Z" fill="black"/>
<path d="M52.0806 19.6875V17.6562H53.9686V19.6875H52.0806ZM52.0806 29.1094V20.8125H53.9686V29.1094H52.0806Z" fill="black"/>
<path d="M54.6947 26.7422L56.5894 26.4062C56.67 26.8333 56.8335 27.1589 57.0799 27.3828C57.3262 27.6016 57.6711 27.7109 58.1146 27.7109C58.6028 27.7109 58.9701 27.6068 59.2164 27.3984C59.3822 27.2526 59.465 27.0573 59.465 26.8125C59.465 26.6458 59.4202 26.5078 59.3307 26.3984C59.2366 26.2943 59.0261 26.1979 58.6991 26.1094C57.1762 25.7188 56.2109 25.362 55.8033 25.0391C55.239 24.5911 54.9568 23.9688 54.9568 23.1719C54.9568 22.4531 55.2009 21.849 55.6891 21.3594C56.1773 20.8698 56.9343 20.625 57.96 20.625C58.9365 20.625 59.6621 20.8099 60.1369 21.1797C60.6117 21.5495 60.9387 22.0964 61.1178 22.8203L59.3374 23.2031C59.2612 22.8802 59.1157 22.6328 58.9007 22.4609C58.6901 22.2891 58.3878 22.2031 57.9936 22.2031C57.4964 22.2031 57.1404 22.2839 56.9254 22.4453C56.782 22.5599 56.7104 22.7083 56.7104 22.8906C56.7104 23.0469 56.7731 23.1797 56.8985 23.2891C57.0687 23.4349 57.6555 23.6406 58.6588 23.9062C59.6666 24.1719 60.3698 24.4974 60.7685 24.8828C61.1626 25.2734 61.3597 25.8177 61.3597 26.5156C61.3597 27.276 61.0865 27.9297 60.54 28.4766C59.9936 29.0234 59.1851 29.2969 58.1146 29.2969C57.1426 29.2969 56.3722 29.0677 55.8033 28.6094C55.239 28.151 54.8694 27.5286 54.6947 26.7422Z" fill="black"/>
<path d="M65.7408 20.8125V22.5625H64.4508V25.9062C64.4508 26.5833 64.462 26.9792 64.4844 27.0938C64.5113 27.2031 64.5673 27.2943 64.6524 27.3672C64.742 27.4401 64.8495 27.4766 64.9749 27.4766C65.1496 27.4766 65.4027 27.4062 65.7341 27.2656L65.8954 28.9688C65.4564 29.1875 64.9592 29.2969 64.4038 29.2969C64.0634 29.2969 63.7566 29.2318 63.4833 29.1016C63.2101 28.9661 63.0086 28.7943 62.8787 28.5859C62.7532 28.3724 62.6659 28.0859 62.6166 27.7266C62.5763 27.4714 62.5562 26.9557 62.5562 26.1797V22.5625H61.6895V20.8125H62.5562V19.1641L64.4508 17.8828V20.8125H65.7408Z" fill="black"/>
<path d="M68.3079 29.1094H66.42V20.8125H68.1735V21.9922C68.4736 21.4349 68.7424 21.0677 68.9798 20.8906C69.2217 20.7135 69.4949 20.625 69.7995 20.625C70.2295 20.625 70.6438 20.763 71.0424 21.0391L70.4579 22.9531C70.1399 22.7135 69.8443 22.5938 69.571 22.5938C69.3068 22.5938 69.0828 22.6797 68.8992 22.8516C68.7155 23.0182 68.5699 23.3229 68.4624 23.7656C68.3594 24.2083 68.3079 25.1354 68.3079 26.5469V29.1094Z" fill="black"/>
<path d="M70.4181 20.8125H72.427L74.1336 26.7031L75.7998 20.8125H77.755L75.2354 28.7969L74.7853 30.2422C74.6196 30.7266 74.4606 31.0964 74.3083 31.3516C74.1605 31.6068 73.988 31.8125 73.7909 31.9688C73.5983 32.1302 73.3587 32.2552 73.072 32.3438C72.7898 32.4323 72.4696 32.4766 72.1112 32.4766C71.7484 32.4766 71.3923 32.4323 71.043 32.3438L70.875 30.625C71.1706 30.6927 71.4371 30.7266 71.6745 30.7266C72.1135 30.7266 72.4382 30.5755 72.6487 30.2734C72.8593 29.9766 73.0205 29.5964 73.1325 29.1328L70.4181 20.8125Z" fill="black"/>
<path d="M81.7201 17.6562H85.6572C86.4366 17.6562 87.0167 17.6953 87.3974 17.7734C87.7826 17.8464 88.1252 18.0026 88.4253 18.2422C88.7299 18.4818 88.983 18.8021 89.1846 19.2031C89.3861 19.599 89.4869 20.0443 89.4869 20.5391C89.4869 21.0755 89.3615 21.5677 89.1107 22.0156C88.8643 22.4635 88.5284 22.7995 88.1028 23.0234C88.703 23.2266 89.1644 23.5729 89.4869 24.0625C89.8094 24.5521 89.9706 25.1276 89.9706 25.7891C89.9706 26.3099 89.8654 26.8177 89.6549 27.3125C89.4488 27.8021 89.1644 28.1953 88.8016 28.4922C88.4433 28.7839 87.9998 28.9635 87.4713 29.0312C87.1398 29.0729 86.3403 29.099 85.0727 29.1094H81.7201V17.6562ZM83.7088 19.5625V22.2109H85.0122C85.7871 22.2109 86.2686 22.1979 86.4568 22.1719C86.7972 22.125 87.0637 21.9896 87.2563 21.7656C87.4534 21.5365 87.5519 21.237 87.5519 20.8672C87.5519 20.513 87.4668 20.2266 87.2966 20.0078C87.1309 19.7839 86.8823 19.6484 86.5508 19.6016C86.3537 19.5755 85.7871 19.5625 84.851 19.5625H83.7088ZM83.7088 24.1172V27.1797H85.5497C86.2664 27.1797 86.721 27.1562 86.9136 27.1094C87.2093 27.0469 87.4489 26.8958 87.6325 26.6562C87.8207 26.4115 87.9147 26.0859 87.9147 25.6797C87.9147 25.3359 87.8431 25.0443 87.6997 24.8047C87.5564 24.5651 87.3481 24.3906 87.0749 24.2812C86.8061 24.1719 86.2194 24.1172 85.3146 24.1172H83.7088Z" fill="black"/>
<path d="M95.7896 29.1094V27.8672C95.5298 28.3099 95.1871 28.6589 94.7616 28.9141C94.3406 29.1693 93.8949 29.2969 93.4246 29.2969C92.9453 29.2969 92.5153 29.1745 92.1346 28.9297C91.7539 28.6849 91.4784 28.3411 91.3082 27.8984C91.138 27.4557 91.0529 26.8438 91.0529 26.0625V20.8125H92.9409V24.625C92.9409 25.7917 92.9744 26.5078 93.0416 26.7734C93.1133 27.0339 93.241 27.2422 93.4246 27.3984C93.6082 27.5495 93.8412 27.625 94.1234 27.625C94.4458 27.625 94.7347 27.5234 94.9901 27.3203C95.2454 27.112 95.4201 26.8568 95.5141 26.5547C95.6082 26.2474 95.6552 25.5 95.6552 24.3125V20.8125H97.5432V29.1094H95.7896Z" fill="black"/>
<path d="M105.499 29.1094H103.745V27.8906C103.454 28.3646 103.109 28.7188 102.71 28.9531C102.316 29.1823 101.918 29.2969 101.514 29.2969C100.695 29.2969 99.9916 28.9141 99.4048 28.1484C98.8225 27.3776 98.5314 26.3047 98.5314 24.9297C98.5314 23.5234 98.8158 22.4557 99.3846 21.7266C99.9535 20.9922 100.672 20.625 101.541 20.625C102.339 20.625 103.028 21.0104 103.611 21.7812V17.6562H105.499V29.1094ZM100.46 24.7812C100.46 25.6667 100.565 26.3073 100.775 26.7031C101.08 27.276 101.506 27.5625 102.052 27.5625C102.486 27.5625 102.856 27.349 103.161 26.9219C103.465 26.4896 103.617 25.8464 103.617 24.9922C103.617 24.0391 103.47 23.3542 103.174 22.9375C102.878 22.5156 102.5 22.3047 102.039 22.3047C101.591 22.3047 101.214 22.513 100.91 22.9297C100.61 23.3411 100.46 23.9583 100.46 24.7812Z" fill="black"/>
<path d="M106.641 29.6562L108.798 29.9609C108.834 30.2526 108.917 30.4531 109.047 30.5625C109.226 30.7188 109.508 30.7969 109.893 30.7969C110.386 30.7969 110.755 30.7109 111.002 30.5391C111.168 30.4245 111.293 30.2396 111.378 29.9844C111.436 29.8021 111.465 29.4661 111.465 28.9766V27.7656C110.901 28.6615 110.189 29.1094 109.329 29.1094C108.37 29.1094 107.611 28.638 107.051 27.6953C106.612 26.9505 106.393 26.0234 106.393 24.9141C106.393 23.5234 106.679 22.4609 107.253 21.7266C107.831 20.9922 108.547 20.625 109.403 20.625C110.285 20.625 111.013 21.0755 111.586 21.9766V20.8125H113.353V28.2578C113.353 29.237 113.284 29.9688 113.145 30.4531C113.006 30.9375 112.811 31.3177 112.561 31.5938C112.31 31.8698 111.974 32.0859 111.553 32.2422C111.136 32.3984 110.608 32.4766 109.967 32.4766C108.758 32.4766 107.9 32.2344 107.394 31.75C106.888 31.2708 106.635 30.6615 106.635 29.9219C106.635 29.849 106.637 29.7604 106.641 29.6562ZM108.328 24.7891C108.328 25.6693 108.473 26.3151 108.764 26.7266C109.06 27.1328 109.423 27.3359 109.853 27.3359C110.314 27.3359 110.704 27.1276 111.022 26.7109C111.34 26.2891 111.499 25.6667 111.499 24.8438C111.499 23.9844 111.347 23.3464 111.042 22.9297C110.738 22.513 110.352 22.3047 109.887 22.3047C109.434 22.3047 109.06 22.5104 108.764 22.9219C108.473 23.3281 108.328 23.9505 108.328 24.7891Z" fill="black"/>
<path d="M118.809 26.4688L120.691 26.8359C120.449 27.638 120.066 28.25 119.542 28.6719C119.022 29.0885 118.371 29.2969 117.587 29.2969C116.346 29.2969 115.428 28.8255 114.832 27.8828C114.362 27.1276 114.127 26.1745 114.127 25.0234C114.127 23.6484 114.436 22.5729 115.054 21.7969C115.672 21.0156 116.453 20.625 117.399 20.625C118.46 20.625 119.298 21.0339 119.911 21.8516C120.525 22.6641 120.818 23.9115 120.792 25.5938H116.062C116.075 26.2448 116.227 26.7526 116.518 27.1172C116.81 27.4766 117.172 27.6562 117.607 27.6562C117.902 27.6562 118.151 27.5625 118.353 27.375C118.554 27.1875 118.706 26.8854 118.809 26.4688ZM118.917 24.25C118.904 23.6146 118.762 23.1328 118.494 22.8047C118.225 22.4714 117.898 22.3047 117.513 22.3047C117.101 22.3047 116.76 22.4792 116.492 22.8281C116.223 23.1771 116.091 23.651 116.095 24.25H118.917Z" fill="black"/>
<path d="M125.058 20.8125V22.5625H123.768V25.9062C123.768 26.5833 123.78 26.9792 123.802 27.0938C123.829 27.2031 123.885 27.2943 123.97 27.3672C124.06 27.4401 124.167 27.4766 124.292 27.4766C124.467 27.4766 124.72 27.4062 125.052 27.2656L125.213 28.9688C124.774 29.1875 124.277 29.2969 123.721 29.2969C123.381 29.2969 123.074 29.2318 122.801 29.1016C122.528 28.9661 122.326 28.7943 122.196 28.5859C122.071 28.3724 121.983 28.0859 121.934 27.7266C121.894 27.4714 121.874 26.9557 121.874 26.1797V22.5625H121.007V20.8125H121.874V19.1641L123.768 17.8828V20.8125H125.058Z" fill="black"/>
<path d="M129.05 29.1094V17.6562H131.039V29.1094H129.05Z" fill="black"/>
<path d="M138.867 29.1094H136.979V24.875C136.979 23.9792 136.939 23.401 136.858 23.1406C136.777 22.875 136.645 22.6693 136.462 22.5234C136.283 22.3776 136.065 22.3047 135.81 22.3047C135.483 22.3047 135.19 22.4089 134.93 22.6172C134.67 22.8255 134.491 23.1016 134.392 23.4453C134.298 23.7891 134.251 24.4245 134.251 25.3516V29.1094H132.363V20.8125H134.117V22.0312C134.739 21.0938 135.523 20.625 136.468 20.625C136.885 20.625 137.266 20.7135 137.611 20.8906C137.955 21.0625 138.215 21.2839 138.39 21.5547C138.569 21.8255 138.692 22.1328 138.759 22.4766C138.831 22.8203 138.867 23.3125 138.867 23.9531V29.1094Z" fill="black"/>
<path d="M139.412 20.8125H140.46V20.1875C140.46 19.4896 140.523 18.9688 140.648 18.625C140.778 18.2812 141.013 18.0026 141.353 17.7891C141.698 17.5703 142.133 17.4609 142.657 17.4609C143.194 17.4609 143.721 17.5547 144.236 17.7422L143.98 19.2734C143.68 19.1901 143.391 19.1484 143.114 19.1484C142.841 19.1484 142.643 19.224 142.523 19.375C142.406 19.5208 142.348 19.8047 142.348 20.2266V20.8125H143.759V22.5391H142.348V29.1094H140.46V22.5391H139.412V20.8125Z" fill="black"/>
<path d="M143.833 24.8438C143.833 24.1146 143.988 23.4089 144.297 22.7266C144.606 22.0443 145.043 21.5234 145.607 21.1641C146.176 20.8047 146.81 20.625 147.508 20.625C148.588 20.625 149.472 21.0339 150.162 21.8516C150.852 22.6641 151.197 23.6927 151.197 24.9375C151.197 26.1927 150.848 27.2344 150.149 28.0625C149.455 28.8854 148.579 29.2969 147.522 29.2969C146.868 29.2969 146.243 29.125 145.647 28.7812C145.056 28.4375 144.606 27.9349 144.297 27.2734C143.988 26.6068 143.833 25.7969 143.833 24.8438ZM145.768 24.9609C145.768 25.7839 145.936 26.4141 146.272 26.8516C146.608 27.2891 147.022 27.5078 147.515 27.5078C148.008 27.5078 148.42 27.2891 148.751 26.8516C149.087 26.4141 149.255 25.7786 149.255 24.9453C149.255 24.1328 149.087 23.5078 148.751 23.0703C148.42 22.6328 148.008 22.4141 147.515 22.4141C147.022 22.4141 146.608 22.6328 146.272 23.0703C145.936 23.5078 145.768 24.138 145.768 24.9609Z" fill="black"/>
<path d="M153.939 29.1094H152.051V20.8125H153.804V21.9922C154.104 21.4349 154.373 21.0677 154.611 20.8906C154.852 20.7135 155.126 20.625 155.43 20.625C155.86 20.625 156.275 20.763 156.673 21.0391L156.089 22.9531C155.771 22.7135 155.475 22.5938 155.202 22.5938C154.938 22.5938 154.714 22.6797 154.53 22.8516C154.346 23.0182 154.201 23.3229 154.093 23.7656C153.99 24.2083 153.939 25.1354 153.939 26.5469V29.1094Z" fill="black"/>
<path d="M156.801 20.8125H158.542V21.9453C159.164 21.0651 159.905 20.625 160.765 20.625C161.222 20.625 161.619 20.7344 161.955 20.9531C162.291 21.1719 162.566 21.5026 162.781 21.9453C163.095 21.5026 163.433 21.1719 163.796 20.9531C164.158 20.7344 164.546 20.625 164.958 20.625C165.482 20.625 165.925 20.75 166.288 21C166.651 21.2448 166.922 21.6068 167.101 22.0859C167.231 22.4401 167.296 23.013 167.296 23.8047V29.1094H165.408V24.3672C165.408 23.5443 165.343 23.013 165.213 22.7734C165.039 22.4609 164.77 22.3047 164.407 22.3047C164.143 22.3047 163.894 22.3984 163.661 22.5859C163.428 22.7734 163.26 23.0495 163.157 23.4141C163.054 23.7734 163.003 24.3438 163.003 25.125V29.1094H161.115V24.5625C161.115 23.7552 161.081 23.2344 161.014 23C160.947 22.7656 160.842 22.5911 160.698 22.4766C160.559 22.362 160.369 22.3047 160.127 22.3047C159.836 22.3047 159.574 22.3958 159.341 22.5781C159.108 22.7604 158.94 23.0234 158.837 23.3672C158.739 23.7109 158.689 24.2812 158.689 25.0781V29.1094H156.801V20.8125Z" fill="black"/>
<path d="M170.044 23.3438L168.331 22.9844C168.524 22.1823 168.855 21.5885 169.326 21.2031C169.796 20.8177 170.495 20.625 171.422 20.625C172.264 20.625 172.891 20.7422 173.303 20.9766C173.715 21.2057 174.004 21.5 174.17 21.8594C174.34 22.2135 174.425 22.8672 174.425 23.8203L174.405 26.3828C174.405 27.112 174.434 27.651 174.492 28C174.555 28.3438 174.669 28.7135 174.835 29.1094H172.967C172.918 28.9635 172.857 28.7474 172.786 28.4609C172.754 28.3307 172.732 28.2448 172.719 28.2031C172.396 28.5677 172.051 28.8411 171.684 29.0234C171.317 29.2057 170.925 29.2969 170.508 29.2969C169.773 29.2969 169.193 29.0651 168.768 28.6016C168.347 28.138 168.136 27.5521 168.136 26.8438C168.136 26.375 168.233 25.9583 168.425 25.5938C168.618 25.224 168.887 24.9427 169.232 24.75C169.581 24.5521 170.083 24.3802 170.737 24.2344C171.619 24.0417 172.23 23.862 172.571 23.6953V23.4766C172.571 23.0547 172.481 22.7552 172.302 22.5781C172.123 22.3958 171.785 22.3047 171.287 22.3047C170.952 22.3047 170.689 22.3828 170.501 22.5391C170.313 22.6901 170.161 22.9583 170.044 23.3438ZM172.571 25.125C172.329 25.2188 171.946 25.3307 171.422 25.4609C170.898 25.5911 170.555 25.7188 170.394 25.8438C170.148 26.0469 170.024 26.3047 170.024 26.6172C170.024 26.9245 170.123 27.1901 170.32 27.4141C170.517 27.638 170.768 27.75 171.072 27.75C171.413 27.75 171.738 27.6198 172.047 27.3594C172.275 27.1615 172.425 26.9193 172.497 26.6328C172.546 26.4453 172.571 26.0885 172.571 25.5625V25.125Z" fill="black"/>
<path d="M179.014 20.8125V22.5625H177.725V25.9062C177.725 26.5833 177.736 26.9792 177.758 27.0938C177.785 27.2031 177.841 27.2943 177.926 27.3672C178.016 27.4401 178.123 27.4766 178.249 27.4766C178.423 27.4766 178.676 27.4062 179.008 27.2656L179.169 28.9688C178.73 29.1875 178.233 29.2969 177.677 29.2969C177.337 29.2969 177.03 29.2318 176.757 29.1016C176.484 28.9661 176.282 28.7943 176.152 28.5859C176.027 28.3724 175.94 28.0859 175.89 27.7266C175.85 27.4714 175.83 26.9557 175.83 26.1797V22.5625H174.963V20.8125H175.83V19.1641L177.725 17.8828V20.8125H179.014Z" fill="black"/>
<path d="M179.774 19.6875V17.6562H181.662V19.6875H179.774ZM179.774 29.1094V20.8125H181.662V29.1094H179.774Z" fill="black"/>
<path d="M182.617 24.8438C182.617 24.1146 182.771 23.4089 183.08 22.7266C183.389 22.0443 183.826 21.5234 184.391 21.1641C184.959 20.8047 185.593 20.625 186.292 20.625C187.371 20.625 188.256 21.0339 188.946 21.8516C189.636 22.6641 189.981 23.6927 189.981 24.9375C189.981 26.1927 189.631 27.2344 188.932 28.0625C188.238 28.8854 187.362 29.2969 186.305 29.2969C185.651 29.2969 185.027 29.125 184.431 28.7812C183.84 28.4375 183.389 27.9349 183.08 27.2734C182.771 26.6068 182.617 25.7969 182.617 24.8438ZM184.552 24.9609C184.552 25.7839 184.72 26.4141 185.056 26.8516C185.392 27.2891 185.806 27.5078 186.299 27.5078C186.791 27.5078 187.203 27.2891 187.535 26.8516C187.871 26.4141 188.039 25.7786 188.039 24.9453C188.039 24.1328 187.871 23.5078 187.535 23.0703C187.203 22.6328 186.791 22.4141 186.299 22.4141C185.806 22.4141 185.392 22.6328 185.056 23.0703C184.72 23.5078 184.552 24.138 184.552 24.9609Z" fill="black"/>
<path d="M197.405 29.1094H195.517V24.875C195.517 23.9792 195.477 23.401 195.396 23.1406C195.316 22.875 195.184 22.6693 195 22.5234C194.821 22.3776 194.604 22.3047 194.348 22.3047C194.021 22.3047 193.728 22.4089 193.468 22.6172C193.208 22.8255 193.029 23.1016 192.931 23.4453C192.837 23.7891 192.789 24.4245 192.789 25.3516V29.1094H190.902V20.8125H192.655V22.0312C193.278 21.0938 194.062 20.625 195.007 20.625C195.423 20.625 195.804 20.7135 196.149 20.8906C196.494 21.0625 196.754 21.2839 196.928 21.5547C197.107 21.8255 197.231 22.1328 197.298 22.4766C197.369 22.8203 197.405 23.3125 197.405 23.9531V29.1094Z" fill="black"/>
<path d="M201.565 25.3828L203.5 25.1641C203.617 25.9193 203.852 26.474 204.206 26.8281C204.564 27.1823 205.045 27.3594 205.65 27.3594C206.291 27.3594 206.772 27.2031 207.095 26.8906C207.422 26.5729 207.585 26.2031 207.585 25.7812C207.585 25.5104 207.516 25.2812 207.377 25.0938C207.242 24.901 207.005 24.7344 206.665 24.5938C206.432 24.5 205.901 24.3333 205.072 24.0938C204.006 23.7865 203.258 23.4089 202.828 22.9609C202.224 22.3307 201.921 21.5625 201.921 20.6562C201.921 20.0729 202.062 19.5286 202.345 19.0234C202.631 18.513 203.041 18.125 203.574 17.8594C204.112 17.5938 204.759 17.4609 205.516 17.4609C206.752 17.4609 207.681 17.776 208.304 18.4062C208.931 19.0365 209.26 19.8776 209.292 20.9297L207.303 21.0312C207.218 20.4427 207.034 20.0208 206.752 19.7656C206.474 19.5052 206.056 19.375 205.496 19.375C204.918 19.375 204.465 19.513 204.138 19.7891C203.928 19.9661 203.823 20.2031 203.823 20.5C203.823 20.7708 203.921 21.0026 204.118 21.1953C204.369 21.4401 204.978 21.6953 205.946 21.9609C206.913 22.2266 207.628 22.5026 208.089 22.7891C208.555 23.0703 208.918 23.4583 209.177 23.9531C209.442 24.4427 209.574 25.0495 209.574 25.7734C209.574 26.4297 209.417 27.0443 209.104 27.6172C208.79 28.1901 208.347 28.6172 207.773 28.8984C207.2 29.1745 206.486 29.3125 205.63 29.3125C204.385 29.3125 203.428 28.9792 202.761 28.3125C202.094 27.6406 201.695 26.6641 201.565 25.3828Z" fill="black"/>
<path d="M209.789 20.8125H211.798L213.505 26.7031L215.171 20.8125H217.126L214.607 28.7969L214.157 30.2422C213.991 30.7266 213.832 31.0964 213.68 31.3516C213.532 31.6068 213.359 31.8125 213.162 31.9688C212.97 32.1302 212.73 32.2552 212.443 32.3438C212.161 32.4323 211.841 32.4766 211.483 32.4766C211.12 32.4766 210.764 32.4323 210.414 32.3438L210.246 30.625C210.542 30.6927 210.808 30.7266 211.046 30.7266C211.485 30.7266 211.81 30.5755 212.02 30.2734C212.231 29.9766 212.392 29.5964 212.504 29.1328L209.789 20.8125Z" fill="black"/>
<path d="M217.127 26.7422L219.021 26.4062C219.102 26.8333 219.266 27.1589 219.512 27.3828C219.758 27.6016 220.103 27.7109 220.547 27.7109C221.035 27.7109 221.402 27.6068 221.648 27.3984C221.814 27.2526 221.897 27.0573 221.897 26.8125C221.897 26.6458 221.852 26.5078 221.763 26.3984C221.669 26.2943 221.458 26.1979 221.131 26.1094C219.608 25.7188 218.643 25.362 218.235 25.0391C217.671 24.5911 217.389 23.9688 217.389 23.1719C217.389 22.4531 217.633 21.849 218.121 21.3594C218.609 20.8698 219.366 20.625 220.392 20.625C221.369 20.625 222.094 20.8099 222.569 21.1797C223.044 21.5495 223.371 22.0964 223.55 22.8203L221.769 23.2031C221.693 22.8802 221.548 22.6328 221.333 22.4609C221.122 22.2891 220.82 22.2031 220.426 22.2031C219.928 22.2031 219.572 22.2839 219.357 22.4453C219.214 22.5599 219.142 22.7083 219.142 22.8906C219.142 23.0469 219.205 23.1797 219.331 23.2891C219.501 23.4349 220.087 23.6406 221.091 23.9062C222.099 24.1719 222.802 24.4974 223.201 24.8828C223.595 25.2734 223.792 25.8177 223.792 26.5156C223.792 27.276 223.519 27.9297 222.972 28.4766C222.426 29.0234 221.617 29.2969 220.547 29.2969C219.575 29.2969 218.804 29.0677 218.235 28.6094C217.671 28.151 217.301 27.5286 217.127 26.7422Z" fill="black"/>
<path d="M228.173 20.8125V22.5625H226.883V25.9062C226.883 26.5833 226.894 26.9792 226.916 27.0938C226.943 27.2031 226.999 27.2943 227.084 27.3672C227.174 27.4401 227.282 27.4766 227.407 27.4766C227.582 27.4766 227.835 27.4062 228.166 27.2656L228.327 28.9688C227.888 29.1875 227.391 29.2969 226.836 29.2969C226.495 29.2969 226.189 29.2318 225.915 29.1016C225.642 28.9661 225.441 28.7943 225.311 28.5859C225.185 28.3724 225.098 28.0859 225.049 27.7266C225.008 27.4714 224.988 26.9557 224.988 26.1797V22.5625H224.121V20.8125H224.988V19.1641L226.883 17.8828V20.8125H228.173Z" fill="black"/>
<path d="M233.065 26.4688L234.946 26.8359C234.704 27.638 234.321 28.25 233.797 28.6719C233.277 29.0885 232.626 29.2969 231.842 29.2969C230.601 29.2969 229.683 28.8255 229.087 27.8828C228.617 27.1276 228.382 26.1745 228.382 25.0234C228.382 23.6484 228.691 22.5729 229.309 21.7969C229.927 21.0156 230.709 20.625 231.654 20.625C232.715 20.625 233.553 21.0339 234.167 21.8516C234.78 22.6641 235.074 23.9115 235.047 25.5938H230.317C230.33 26.2448 230.482 26.7526 230.774 27.1172C231.065 27.4766 231.428 27.6562 231.862 27.6562C232.158 27.6562 232.406 27.5625 232.608 27.375C232.809 27.1875 232.962 26.8854 233.065 26.4688ZM233.172 24.25C233.159 23.6146 233.018 23.1328 232.749 22.8047C232.48 22.4714 232.153 22.3047 231.768 22.3047C231.356 22.3047 231.015 22.4792 230.747 22.8281C230.478 23.1771 230.346 23.651 230.35 24.25H233.172Z" fill="black"/>
<path d="M235.9 20.8125H237.641V21.9453C238.263 21.0651 239.005 20.625 239.864 20.625C240.321 20.625 240.718 20.7344 241.054 20.9531C241.39 21.1719 241.665 21.5026 241.88 21.9453C242.194 21.5026 242.532 21.1719 242.895 20.9531C243.257 20.7344 243.645 20.625 244.057 20.625C244.581 20.625 245.024 20.75 245.387 21C245.75 21.2448 246.021 21.6068 246.2 22.0859C246.33 22.4401 246.395 23.013 246.395 23.8047V29.1094H244.507V24.3672C244.507 23.5443 244.442 23.013 244.312 22.7734C244.138 22.4609 243.869 22.3047 243.506 22.3047C243.242 22.3047 242.993 22.3984 242.76 22.5859C242.527 22.7734 242.359 23.0495 242.256 23.4141C242.153 23.7734 242.102 24.3438 242.102 25.125V29.1094H240.214V24.5625C240.214 23.7552 240.18 23.2344 240.113 23C240.046 22.7656 239.941 22.5911 239.797 22.4766C239.658 22.362 239.468 22.3047 239.226 22.3047C238.935 22.3047 238.673 22.3958 238.44 22.5781C238.207 22.7604 238.039 23.0234 237.936 23.3672C237.838 23.7109 237.788 24.2812 237.788 25.0781V29.1094H235.9V20.8125Z" fill="black"/>
</g>
<g id="Nepal Government">
<path d="M0.0810547 9.10938V0.519531H1.76855L5.28418 6.25586V0.519531H6.89551V9.10938H5.15527L1.69238 3.50781V9.10938H0.0810547Z" fill="black"/>
<path d="M12.2071 7.12891L13.8478 7.4043C13.6368 8.00586 13.3029 8.46484 12.8458 8.78125C12.3927 9.09375 11.8243 9.25 11.1407 9.25C10.0587 9.25 9.25793 8.89648 8.7384 8.18945C8.32824 7.62305 8.12316 6.9082 8.12316 6.04492C8.12316 5.01367 8.3927 4.20703 8.93176 3.625C9.47082 3.03906 10.1525 2.74609 10.9767 2.74609C11.9025 2.74609 12.6329 3.05273 13.1681 3.66602C13.7032 4.27539 13.9591 5.21094 13.9357 6.47266H9.81066C9.82238 6.96094 9.9552 7.3418 10.2091 7.61523C10.463 7.88477 10.7794 8.01953 11.1583 8.01953C11.4161 8.01953 11.6329 7.94922 11.8087 7.80859C11.9845 7.66797 12.1173 7.44141 12.2071 7.12891ZM12.3009 5.46484C12.2892 4.98828 12.1661 4.62695 11.9318 4.38086C11.6974 4.13086 11.4122 4.00586 11.0763 4.00586C10.7169 4.00586 10.42 4.13672 10.1857 4.39844C9.95129 4.66016 9.83605 5.01562 9.83996 5.46484H12.3009Z" fill="black"/>
<path d="M15.1164 2.88672H16.6516V3.80078C16.8508 3.48828 17.1204 3.23438 17.4602 3.03906C17.8 2.84375 18.177 2.74609 18.5911 2.74609C19.3137 2.74609 19.927 3.0293 20.4309 3.5957C20.9348 4.16211 21.1868 4.95117 21.1868 5.96289C21.1868 7.00195 20.9329 7.81055 20.425 8.38867C19.9172 8.96289 19.302 9.25 18.5793 9.25C18.2356 9.25 17.9231 9.18164 17.6418 9.04492C17.3645 8.9082 17.0715 8.67383 16.7629 8.3418V11.4766H15.1164V2.88672ZM16.7454 5.89258C16.7454 6.5918 16.884 7.10938 17.1614 7.44531C17.4387 7.77734 17.7766 7.94336 18.175 7.94336C18.5579 7.94336 18.8762 7.79102 19.1301 7.48633C19.384 7.17773 19.511 6.67383 19.511 5.97461C19.511 5.32227 19.3801 4.83789 19.1184 4.52148C18.8567 4.20508 18.5325 4.04688 18.1457 4.04688C17.7434 4.04688 17.4094 4.20312 17.1438 4.51562C16.8782 4.82422 16.7454 5.2832 16.7454 5.89258Z" fill="black"/>
<path d="M23.6097 4.78516L22.1156 4.51562C22.2836 3.91406 22.5726 3.46875 22.9828 3.17969C23.3929 2.89062 24.0023 2.74609 24.8109 2.74609C25.5453 2.74609 26.0921 2.83398 26.4515 3.00977C26.8109 3.18164 27.0629 3.40234 27.2074 3.67188C27.3558 3.9375 27.43 4.42773 27.43 5.14258L27.4125 7.06445C27.4125 7.61133 27.4379 8.01562 27.4886 8.27734C27.5433 8.53516 27.6429 8.8125 27.7875 9.10938H26.1586C26.1156 9 26.0629 8.83789 26.0004 8.62305C25.973 8.52539 25.9535 8.46094 25.9418 8.42969C25.6605 8.70312 25.3597 8.9082 25.0394 9.04492C24.7191 9.18164 24.3773 9.25 24.014 9.25C23.3734 9.25 22.8675 9.07617 22.4964 8.72852C22.1293 8.38086 21.9457 7.94141 21.9457 7.41016C21.9457 7.05859 22.0296 6.74609 22.1976 6.47266C22.3656 6.19531 22.6 5.98438 22.9007 5.83984C23.2054 5.69141 23.6429 5.5625 24.2132 5.45312C24.9828 5.30859 25.516 5.17383 25.8129 5.04883V4.88477C25.8129 4.56836 25.7347 4.34375 25.5785 4.21094C25.4222 4.07422 25.1273 4.00586 24.6937 4.00586C24.4007 4.00586 24.1722 4.06445 24.0082 4.18164C23.8441 4.29492 23.7113 4.49609 23.6097 4.78516ZM25.8129 6.12109C25.6019 6.19141 25.2679 6.27539 24.8109 6.37305C24.3539 6.4707 24.055 6.56641 23.9144 6.66016C23.6996 6.8125 23.5921 7.00586 23.5921 7.24023C23.5921 7.4707 23.6781 7.66992 23.85 7.83789C24.0218 8.00586 24.2406 8.08984 24.5062 8.08984C24.8031 8.08984 25.0863 7.99219 25.3558 7.79688C25.555 7.64844 25.6859 7.4668 25.7484 7.25195C25.7914 7.11133 25.8129 6.84375 25.8129 6.44922V6.12109Z" fill="black"/>
<path d="M28.9389 9.10938V0.519531H30.5854V9.10938H28.9389Z" fill="black"/>
<path d="M39.3864 5.95117V4.50391H43.1247V7.92578C42.7614 8.27734 42.2341 8.58789 41.5427 8.85742C40.8552 9.12305 40.1579 9.25586 39.4509 9.25586C38.5525 9.25586 37.7693 9.06836 37.1013 8.69336C36.4333 8.31445 35.9314 7.77539 35.5954 7.07617C35.2595 6.37305 35.0915 5.60938 35.0915 4.78516C35.0915 3.89062 35.279 3.0957 35.654 2.40039C36.029 1.70508 36.5779 1.17188 37.3005 0.800781C37.8513 0.515625 38.5368 0.373047 39.3571 0.373047C40.4236 0.373047 41.2556 0.597656 41.8532 1.04688C42.4548 1.49219 42.8415 2.10938 43.0134 2.89844L41.2907 3.2207C41.1696 2.79883 40.9411 2.4668 40.6052 2.22461C40.2732 1.97852 39.8571 1.85547 39.3571 1.85547C38.5993 1.85547 37.9958 2.0957 37.5466 2.57617C37.1013 3.05664 36.8786 3.76953 36.8786 4.71484C36.8786 5.73438 37.1052 6.5 37.5583 7.01172C38.0114 7.51953 38.6052 7.77344 39.3396 7.77344C39.7029 7.77344 40.0661 7.70312 40.4294 7.5625C40.7966 7.41797 41.1111 7.24414 41.3728 7.04102V5.95117H39.3864Z" fill="black"/>
<path d="M44.2176 5.91016C44.2176 5.36328 44.3524 4.83398 44.6219 4.32227C44.8914 3.81055 45.2723 3.41992 45.7645 3.15039C46.2606 2.88086 46.8133 2.74609 47.4227 2.74609C48.3641 2.74609 49.1356 3.05273 49.7371 3.66602C50.3387 4.27539 50.6395 5.04688 50.6395 5.98047C50.6395 6.92188 50.3348 7.70312 49.7254 8.32422C49.12 8.94141 48.3563 9.25 47.4344 9.25C46.8641 9.25 46.3192 9.12109 45.7996 8.86328C45.284 8.60547 44.8914 8.22852 44.6219 7.73242C44.3524 7.23242 44.2176 6.625 44.2176 5.91016ZM45.9051 5.99805C45.9051 6.61523 46.0516 7.08789 46.3446 7.41602C46.6375 7.74414 46.9989 7.9082 47.4286 7.9082C47.8582 7.9082 48.2176 7.74414 48.5067 7.41602C48.7996 7.08789 48.9461 6.61133 48.9461 5.98633C48.9461 5.37695 48.7996 4.9082 48.5067 4.58008C48.2176 4.25195 47.8582 4.08789 47.4286 4.08789C46.9989 4.08789 46.6375 4.25195 46.3446 4.58008C46.0516 4.9082 45.9051 5.38086 45.9051 5.99805Z" fill="black"/>
<path d="M53.5254 9.10938L51.0175 2.88672H52.7461L53.9179 6.0625L54.2578 7.12305C54.3476 6.85352 54.4043 6.67578 54.4277 6.58984C54.4824 6.41406 54.541 6.23828 54.6035 6.0625L55.7871 2.88672H57.4804L55.0078 9.10938H53.5254Z" fill="black"/>
<path d="M61.9776 7.12891L63.6182 7.4043C63.4073 8.00586 63.0733 8.46484 62.6163 8.78125C62.1632 9.09375 61.5948 9.25 60.9112 9.25C59.8292 9.25 59.0284 8.89648 58.5089 8.18945C58.0987 7.62305 57.8936 6.9082 57.8936 6.04492C57.8936 5.01367 58.1632 4.20703 58.7022 3.625C59.2413 3.03906 59.9229 2.74609 60.7471 2.74609C61.6729 2.74609 62.4034 3.05273 62.9386 3.66602C63.4737 4.27539 63.7296 5.21094 63.7061 6.47266H59.5811C59.5928 6.96094 59.7257 7.3418 59.9796 7.61523C60.2335 7.88477 60.5499 8.01953 60.9288 8.01953C61.1866 8.01953 61.4034 7.94922 61.5792 7.80859C61.755 7.66797 61.8878 7.44141 61.9776 7.12891ZM62.0714 5.46484C62.0596 4.98828 61.9366 4.62695 61.7022 4.38086C61.4678 4.13086 61.1827 4.00586 60.8468 4.00586C60.4874 4.00586 60.1905 4.13672 59.9561 4.39844C59.7218 4.66016 59.6065 5.01562 59.6104 5.46484H62.0714Z" fill="black"/>
<path d="M66.51 9.10938H64.8635V2.88672H66.3928V3.77148C66.6545 3.35352 66.8889 3.07812 67.0959 2.94531C67.3068 2.8125 67.5451 2.74609 67.8107 2.74609C68.1857 2.74609 68.5471 2.84961 68.8947 3.05664L68.385 4.49219C68.1076 4.3125 67.8498 4.22266 67.6115 4.22266C67.3811 4.22266 67.1857 4.28711 67.0256 4.41602C66.8654 4.54102 66.7385 4.76953 66.6447 5.10156C66.5549 5.43359 66.51 6.12891 66.51 7.1875V9.10938Z" fill="black"/>
<path d="M75.1497 9.10938H73.5032V5.93359C73.5032 5.26172 73.4681 4.82812 73.3978 4.63281C73.3275 4.43359 73.2122 4.2793 73.0521 4.16992C72.8958 4.06055 72.7064 4.00586 72.4837 4.00586C72.1986 4.00586 71.9427 4.08398 71.7161 4.24023C71.4896 4.39648 71.3333 4.60352 71.2474 4.86133C71.1654 5.11914 71.1243 5.5957 71.1243 6.29102V9.10938H69.4779V2.88672H71.0071V3.80078C71.5501 3.09766 72.2337 2.74609 73.0579 2.74609C73.4212 2.74609 73.7532 2.8125 74.054 2.94531C74.3548 3.07422 74.5814 3.24023 74.7337 3.44336C74.89 3.64648 74.9974 3.87695 75.056 4.13477C75.1185 4.39258 75.1497 4.76172 75.1497 5.24219V9.10938Z" fill="black"/>
<path d="M76.5825 2.88672H78.1V3.73633C78.643 3.07617 79.2895 2.74609 80.0395 2.74609C80.4379 2.74609 80.7836 2.82812 81.0766 2.99219C81.3696 3.15625 81.6098 3.4043 81.7973 3.73633C82.0707 3.4043 82.3657 3.15625 82.6821 2.99219C82.9985 2.82812 83.3364 2.74609 83.6957 2.74609C84.1528 2.74609 84.5395 2.83984 84.8559 3.02734C85.1723 3.21094 85.4086 3.48242 85.5649 3.8418C85.6782 4.10742 85.7348 4.53711 85.7348 5.13086V9.10938H84.0883V5.55273C84.0883 4.93555 84.0317 4.53711 83.9184 4.35742C83.7661 4.12305 83.5317 4.00586 83.2153 4.00586C82.9848 4.00586 82.768 4.07617 82.5649 4.2168C82.3618 4.35742 82.2153 4.56445 82.1254 4.83789C82.0356 5.10742 81.9907 5.53516 81.9907 6.12109V9.10938H80.3442V5.69922C80.3442 5.09375 80.3149 4.70312 80.2563 4.52734C80.1977 4.35156 80.1059 4.2207 79.9809 4.13477C79.8598 4.04883 79.6938 4.00586 79.4828 4.00586C79.2289 4.00586 79.0004 4.07422 78.7973 4.21094C78.5942 4.34766 78.4477 4.54492 78.3578 4.80273C78.2719 5.06055 78.2289 5.48828 78.2289 6.08594V9.10938H76.5825V2.88672Z" fill="black"/>
<path d="M90.8648 7.12891L92.5054 7.4043C92.2945 8.00586 91.9605 8.46484 91.5035 8.78125C91.0504 9.09375 90.482 9.25 89.7984 9.25C88.7164 9.25 87.9156 8.89648 87.3961 8.18945C86.9859 7.62305 86.7808 6.9082 86.7808 6.04492C86.7808 5.01367 87.0504 4.20703 87.5894 3.625C88.1285 3.03906 88.8101 2.74609 89.6343 2.74609C90.5601 2.74609 91.2906 3.05273 91.8257 3.66602C92.3609 4.27539 92.6168 5.21094 92.5933 6.47266H88.4683C88.48 6.96094 88.6129 7.3418 88.8668 7.61523C89.1207 7.88477 89.4371 8.01953 89.816 8.01953C90.0738 8.01953 90.2906 7.94922 90.4664 7.80859C90.6422 7.66797 90.775 7.44141 90.8648 7.12891ZM90.9586 5.46484C90.9468 4.98828 90.8238 4.62695 90.5894 4.38086C90.355 4.13086 90.0699 4.00586 89.7339 4.00586C89.3746 4.00586 89.0777 4.13672 88.8433 4.39844C88.6089 4.66016 88.4937 5.01562 88.4976 5.46484H90.9586Z" fill="black"/>
<path d="M99.4811 9.10938H97.8346V5.93359C97.8346 5.26172 97.7995 4.82812 97.7292 4.63281C97.6589 4.43359 97.5436 4.2793 97.3835 4.16992C97.2272 4.06055 97.0378 4.00586 96.8151 4.00586C96.53 4.00586 96.2741 4.08398 96.0475 4.24023C95.821 4.39648 95.6647 4.60352 95.5788 4.86133C95.4968 5.11914 95.4557 5.5957 95.4557 6.29102V9.10938H93.8093V2.88672H95.3386V3.80078C95.8815 3.09766 96.5651 2.74609 97.3893 2.74609C97.7526 2.74609 98.0846 2.8125 98.3854 2.94531C98.6862 3.07422 98.9128 3.24023 99.0651 3.44336C99.2214 3.64648 99.3288 3.87695 99.3874 4.13477C99.4499 4.39258 99.4811 4.76172 99.4811 5.24219V9.10938Z" fill="black"/>
<path d="M103.89 2.88672V4.19922H102.765V6.70703C102.765 7.21484 102.775 7.51172 102.795 7.59766C102.818 7.67969 102.867 7.74805 102.941 7.80273C103.019 7.85742 103.113 7.88477 103.222 7.88477C103.375 7.88477 103.596 7.83203 103.885 7.72656L104.025 9.00391C103.642 9.16797 103.209 9.25 102.724 9.25C102.428 9.25 102.16 9.20117 101.922 9.10352C101.683 9.00195 101.508 8.87305 101.394 8.7168C101.285 8.55664 101.209 8.3418 101.166 8.07227C101.131 7.88086 101.113 7.49414 101.113 6.91211V4.19922H100.357V2.88672H101.113V1.65039L102.765 0.689453V2.88672H103.89Z" fill="black"/>
</g>
</g>
</g>
</svg>
