<svg width="193" height="46" viewBox="0 0 193 46" fill="none" xmlns="http://www.w3.org/2000/svg">
<g id="g]kfn ;/sf/ cy{ dGqfno dxfn]vf lgoGqs sfof{no">
<path d="M4.6239 5.8061C5.47324 6.1421 5.89324 6.7301 5.8839 7.5701C5.86524 9.15676 5.11857 9.96876 3.6439 10.0061C2.90657 10.0248 2.30924 9.80543 1.8519 9.3481C1.39457 8.89076 1.1659 8.29343 1.1659 7.5561C1.1659 6.64143 1.49257 5.9461 2.1459 5.4701C2.72457 5.05943 3.4899 4.8541 4.4419 4.8541C5.1139 4.8541 5.80924 4.97543 6.5279 5.2181L6.5139 4.2941H0.899902V3.4401H9.3139V4.2941H8.3199V10.4121H6.5279V6.2681C6.08924 6.0161 5.45457 5.8621 4.6239 5.8061ZM3.7839 6.5481L4.5399 5.9181C3.69057 5.93676 3.24724 6.48276 3.2099 7.5561C3.20057 7.82676 3.24724 8.08343 3.3499 8.3261C3.48057 8.64343 3.66257 8.8021 3.8959 8.8021C4.30657 8.8021 4.4979 8.40076 4.4699 7.5981C4.45124 6.8701 4.29257 6.5061 3.9939 6.5061C3.92857 6.5061 3.85857 6.5201 3.7839 6.5481Z" fill="black"/>
<path d="M3.39234 1.0461C3.71901 0.915431 4.10167 0.850098 4.54034 0.850098C5.29634 0.850098 5.87034 1.05076 6.26234 1.4521L8.19434 3.4261H6.09434L5.03034 2.2361C4.64767 1.89076 4.26967 1.7181 3.89634 1.7181C3.70967 1.7181 3.54167 1.76476 3.39234 1.8581V1.0461Z" fill="black"/>
<path d="M13.5143 8.1581V4.2801H11.4843V7.5421C11.4843 8.31676 11.8297 8.7041 12.5203 8.7041C13.043 8.7041 13.3743 8.5221 13.5143 8.1581ZM9.72034 7.6961V4.2801H9.07634V3.4401H16.1883V4.2801H15.2083V10.4121H13.5143V9.4461C13.1037 9.7821 12.6183 9.9501 12.0583 9.9501C11.3863 9.9501 10.8263 9.74476 10.3783 9.3341C9.93967 8.9141 9.72034 8.3681 9.72034 7.6961Z" fill="black"/>
<path d="M16.4436 10.4121V4.2801H15.9396V3.4401H19.2296V4.2801H18.2356V10.4121H16.4436Z" fill="black"/>
<path d="M22.8668 7.2061C22.8668 6.8981 22.8014 6.62743 22.6708 6.3941C22.5121 6.09543 22.2928 5.9461 22.0128 5.9461C21.6488 5.9461 21.3828 6.19343 21.2148 6.6881C21.0934 7.04276 21.0328 7.43943 21.0328 7.8781C21.0328 9.2501 21.5181 9.9361 22.4888 9.9361C22.9274 9.9361 23.4548 9.79143 24.0708 9.5021L23.7068 10.7201C23.2401 10.8414 22.7874 10.9021 22.3488 10.9021C21.4341 10.9021 20.6781 10.6548 20.0808 10.1601C19.4368 9.6281 19.1148 8.9141 19.1148 8.0181C19.1148 7.14076 19.3108 6.4221 19.7028 5.8621C20.1508 5.2181 20.7948 4.8961 21.6348 4.8961C22.1014 4.8961 22.5308 5.01743 22.9228 5.2601C23.3241 5.49343 23.6041 5.8201 23.7628 6.2401C23.8188 5.9041 23.9821 5.6381 24.2528 5.4421C24.5234 5.2461 24.8314 5.1481 25.1768 5.1481C25.5221 5.1481 25.7881 5.24143 25.9748 5.4281V4.2801H18.9748V3.4401H28.8448V4.2801H27.8648V10.4121H25.9748V6.5901C25.8068 6.43143 25.5874 6.3521 25.3168 6.3521C24.8594 6.3521 24.6308 6.65076 24.6308 7.2481V8.6481H22.8668V7.2061Z" fill="black"/>
<path d="M36.2854 6.4641C36.0801 6.83743 35.7675 7.1081 35.3475 7.2761C35.1141 7.36943 34.7735 7.44876 34.3255 7.5141C34.9788 7.66343 35.4501 8.0321 35.7394 8.6201C35.9634 9.0681 36.1315 9.37143 36.2435 9.5301C36.5141 9.8941 36.7895 10.0761 37.0695 10.0761C37.2281 10.0761 37.4194 10.0294 37.6434 9.9361L37.2654 10.9441C36.9575 11.0561 36.6634 11.1121 36.3834 11.1121C35.7581 11.1121 35.1935 10.8134 34.6894 10.2161C34.6614 10.1788 34.2928 9.6141 33.5835 8.5221C33.1915 7.91543 32.8321 7.6121 32.5054 7.6121C32.4028 7.6121 32.3001 7.63543 32.1974 7.6821V6.3381C32.6734 6.5061 33.0888 6.5901 33.4435 6.5901C34.2741 6.5901 34.6894 6.2121 34.6894 5.4561C34.6894 5.2041 34.6241 4.96143 34.4935 4.7281C34.3441 4.45743 34.1574 4.3081 33.9334 4.2801H32.1134V3.4401H40.9334V4.2801H39.9394V10.4121H38.1194V6.7721H36.2854C36.2761 6.64143 36.2761 6.53876 36.2854 6.4641ZM38.1194 5.8481V4.2801H35.6414C35.8561 4.32676 36.0475 4.48543 36.2155 4.7561C36.3834 5.02676 36.4674 5.27876 36.4674 5.5121C36.4674 5.63343 36.4488 5.74543 36.4114 5.8481H38.1194Z" fill="black"/>
<path d="M47.574 4.2801H44.76C45.0307 4.34543 45.25 4.52276 45.418 4.8121C45.586 5.10143 45.67 5.39543 45.67 5.6941C45.67 6.29143 45.3854 6.7441 44.816 7.0521C44.3867 7.28543 43.836 7.4161 43.164 7.4441C43.5187 7.5561 43.7847 7.72877 43.962 7.9621C43.9994 8.00876 44.1394 8.25143 44.382 8.6901C44.8394 9.51143 45.2827 9.9221 45.712 9.9221C46.0107 9.9221 46.4167 9.77277 46.93 9.4741L46.552 10.6781C46.048 10.8461 45.586 10.9301 45.166 10.9301C44.4007 10.9301 43.738 10.6454 43.178 10.0761C42.982 9.87076 42.6087 9.34343 42.058 8.4941C41.694 7.92476 41.358 7.6401 41.05 7.6401C40.9754 7.6401 40.9007 7.64943 40.826 7.6681V6.3241C41.4047 6.6041 41.918 6.7441 42.366 6.7441C42.7767 6.7441 43.108 6.62743 43.36 6.3941C43.612 6.16076 43.738 5.84343 43.738 5.4421C43.738 4.86343 43.5094 4.4761 43.052 4.2801H40.672V3.4401H47.574V4.2801Z" fill="black"/>
<path d="M50.9442 5.9461C50.6922 5.8061 50.4635 5.7361 50.2582 5.7361C49.8942 5.7361 49.6236 5.93676 49.4462 6.3381C49.3156 6.63676 49.2502 6.9961 49.2502 7.4161C49.2502 7.82676 49.3295 8.18143 49.4882 8.4801C49.6842 8.85343 49.9689 9.0401 50.3422 9.0401C50.5849 9.0401 50.8182 8.96543 51.0422 8.8161V4.2661H47.2482V3.4401H57.4122V4.2661H52.8342V5.1621C53.2635 4.90076 53.7349 4.7701 54.2482 4.7701C54.9949 4.7701 55.5969 5.0081 56.0542 5.4841C56.5115 5.9601 56.7355 6.57143 56.7262 7.3181C56.7169 8.1021 56.4555 8.75076 55.9422 9.2641C55.4289 9.77743 54.7849 10.0341 54.0102 10.0341C53.8516 10.0341 53.6929 10.0201 53.5342 9.9921L53.1702 8.7881C53.3662 8.9841 53.5809 9.0821 53.8142 9.0821C54.1595 9.0821 54.4162 8.8721 54.5842 8.4521C54.7056 8.1441 54.7662 7.78943 54.7662 7.3881C54.7569 6.39876 54.3929 5.9041 53.6742 5.9041C53.3942 5.9041 53.1189 5.98343 52.8482 6.1421L52.8342 10.4121H51.0142L51.0282 9.8521C50.8882 9.97343 50.5709 10.0341 50.0762 10.0341C49.2455 10.0341 48.5782 9.8241 48.0742 9.4041C47.5235 8.94676 47.2482 8.3121 47.2482 7.5001C47.2482 6.67876 47.4582 6.02543 47.8782 5.5401C48.3262 5.01743 48.9515 4.7561 49.7542 4.7561C50.0342 4.7561 50.3189 4.79343 50.6082 4.8681L50.9442 5.9461Z" fill="black"/>
<path d="M57.6643 10.4121V4.2801H57.1603V3.4401H60.4503V4.2801H59.4563V10.4121H57.6643Z" fill="black"/>
<path d="M67.0975 4.2801H64.2835C64.5541 4.34543 64.7735 4.52276 64.9415 4.8121C65.1095 5.10143 65.1935 5.39543 65.1935 5.6941C65.1935 6.29143 64.9088 6.7441 64.3395 7.0521C63.9101 7.28543 63.3595 7.4161 62.6875 7.4441C63.0421 7.5561 63.3081 7.72877 63.4855 7.9621C63.5228 8.00876 63.6628 8.25143 63.9055 8.6901C64.3628 9.51143 64.8061 9.9221 65.2355 9.9221C65.5341 9.9221 65.9401 9.77277 66.4535 9.4741L66.0755 10.6781C65.5715 10.8461 65.1095 10.9301 64.6895 10.9301C63.9241 10.9301 63.2615 10.6454 62.7015 10.0761C62.5055 9.87076 62.1321 9.34343 61.5815 8.4941C61.2175 7.92476 60.8815 7.6401 60.5735 7.6401C60.4988 7.6401 60.4241 7.64943 60.3495 7.6681V6.3241C60.9281 6.6041 61.4415 6.7441 61.8895 6.7441C62.3001 6.7441 62.6315 6.62743 62.8835 6.3941C63.1355 6.16076 63.2615 5.84343 63.2615 5.4421C63.2615 4.86343 63.0328 4.4761 62.5755 4.2801H60.1955V3.4401H67.0975V4.2801Z" fill="black"/>
<path d="M8.1279 17.4481H13.3839V18.5281H12.1059V26.4121H9.7659V22.3801H8.1459V21.1561H9.7659V18.5281H8.1279V17.4481ZM2.0619 18.5281H0.927902V17.4481H2.0619V18.5281ZM8.0919 19.6621C8.0919 20.2021 7.9479 20.6461 7.6599 20.9941C7.3479 21.3781 6.9279 21.5641 6.3999 21.5521C7.0599 21.5521 7.5939 21.7981 8.0019 22.2901C8.4099 22.7701 8.6139 23.3461 8.6139 24.0181C8.6139 24.8941 8.2719 25.5661 7.5879 26.0341C6.9879 26.4541 6.2319 26.6641 5.3199 26.6641C3.5919 26.6641 2.1519 25.9921 0.999902 24.6481L2.4039 23.0101C2.7879 24.3181 3.4599 24.9721 4.4199 24.9721C4.7919 24.9721 5.1219 24.8581 5.4099 24.6301C5.7099 24.4021 5.8599 24.1081 5.8599 23.7481C5.8599 22.6321 5.3199 22.0741 4.2399 22.0741C4.0239 22.0741 3.7839 22.0921 3.5199 22.1281V20.7961C3.6639 20.8561 3.8259 20.8861 4.0059 20.8861C4.4379 20.8861 4.7979 20.7661 5.0859 20.5261C5.3859 20.2741 5.5479 19.9381 5.5719 19.5181C5.5839 19.2181 5.4399 18.9721 5.1399 18.7801C4.8519 18.5881 4.5519 18.4921 4.2399 18.4921C3.5679 18.4921 2.8719 18.8281 2.1519 19.5001V17.8801C2.8239 17.4721 3.6399 17.2681 4.5999 17.2681C5.6799 17.2681 6.4839 17.4541 7.0119 17.8261C7.7319 18.3301 8.0919 18.9421 8.0919 19.6621Z" fill="black"/>
<path d="M16.5655 17.2501C17.8735 17.2501 18.8215 17.7901 19.4095 18.8701C19.6855 19.3741 19.8235 19.8781 19.8235 20.3821C19.8235 20.9101 19.6735 21.4261 19.3735 21.9301C18.7135 23.0341 17.5075 23.6161 15.7555 23.6761C17.0155 24.5281 17.9815 24.9541 18.6535 24.9541C19.4095 24.9541 20.0815 24.5281 20.6695 23.6761V18.5281H19.5175V17.4481H24.2515V18.5281H22.8835V26.4121H20.6875V25.4941C19.9795 26.0341 19.1155 26.3041 18.0955 26.3041C17.1715 26.3041 16.2775 26.0941 15.4135 25.6741C14.4775 25.2301 13.7875 24.6361 13.3435 23.8921V21.8941C14.0755 22.2421 14.7295 22.4161 15.3055 22.4161C15.9895 22.4161 16.5355 22.1881 16.9435 21.7321C17.3635 21.2641 17.5735 20.6821 17.5735 19.9861C17.5735 19.6261 17.5075 19.3021 17.3755 19.0141C17.2075 18.6541 16.9675 18.4561 16.6555 18.4201C16.3555 18.3841 16.1155 18.4861 15.9355 18.7261C15.7675 18.9541 15.6835 19.2241 15.6835 19.5361C15.6835 20.1721 15.9535 20.4901 16.4935 20.4901C16.5655 20.4901 16.6435 20.4841 16.7275 20.4721L15.7915 21.2641C15.6835 21.2881 15.5635 21.3001 15.4315 21.3001C14.9275 21.3001 14.4775 21.1321 14.0815 20.7961C13.6855 20.4481 13.4875 20.0281 13.4875 19.5361C13.4875 19.2001 13.5955 18.8641 13.8115 18.5281H13.1095V17.4481H14.1355V17.9881C14.6275 17.4961 15.4375 17.2501 16.5655 17.2501Z" fill="black"/>
<path d="M22.7505 17.4481H20.4465C20.1585 17.1961 20.0385 16.7461 20.0865 16.0981C20.1465 15.2101 20.6625 14.7061 21.6345 14.5861C22.1985 14.5141 22.7925 14.5621 23.4165 14.7301L23.6685 16.0081C23.3805 15.8041 23.1225 15.7021 22.8945 15.7021C22.6185 15.7021 22.4385 15.8581 22.3545 16.1701C22.3065 16.3501 22.2825 16.5061 22.2825 16.6381C22.2825 17.0221 22.4385 17.2921 22.7505 17.4481Z" fill="black"/>
<path d="M39.2925 17.4481V18.5281H38.0325V26.4121H35.7105V21.7321H34.2525C34.2765 22.9801 34.1385 23.9281 33.8385 24.5761C33.4185 25.4641 32.6505 25.9321 31.5345 25.9801C30.5985 26.0161 29.8605 25.7941 29.3205 25.3141C28.7805 24.8221 28.5105 24.1081 28.5105 23.1721C28.5105 22.4041 28.7385 21.7621 29.1945 21.2461C29.6505 20.7301 30.2565 20.4721 31.0125 20.4721C31.2165 20.4721 31.4265 20.4961 31.6425 20.5441L32.0385 21.7321C31.8705 21.6601 31.7145 21.6241 31.5705 21.6241C31.2225 21.6241 30.9525 21.8041 30.7605 22.1641C30.6045 22.4521 30.5265 22.7881 30.5265 23.1721C30.5265 23.5561 30.6045 23.8981 30.7605 24.1981C30.9525 24.5821 31.2225 24.7741 31.5705 24.7741C32.0025 24.7741 32.2185 24.4081 32.2185 23.6761V18.5281H28.4025V17.4481H39.2925ZM34.2345 18.5281V20.5441H35.7105V18.5281H34.2345Z" fill="black"/>
<path d="M42.6565 21.4441L43.6285 20.6341C42.5365 20.6581 41.9665 21.3601 41.9185 22.7401C41.9065 23.0881 41.9665 23.4181 42.0985 23.7301C42.2665 24.1381 42.5005 24.3421 42.8005 24.3421C43.3285 24.3421 43.5745 23.8261 43.5385 22.7941C43.5145 21.8581 43.3105 21.3901 42.9265 21.3901C42.8425 21.3901 42.7525 21.4081 42.6565 21.4441ZM38.9845 18.5281V17.4481H47.3185V18.5281H38.9845ZM47.1565 21.3001C46.5325 20.7121 45.6805 20.4181 44.6005 20.4181C44.2885 20.4181 44.0005 20.4421 43.7365 20.4901C44.8285 20.9221 45.3685 21.6781 45.3565 22.7581C45.3325 24.7981 44.3725 25.8421 42.4765 25.8901C41.5285 25.9141 40.7605 25.6321 40.1725 25.0441C39.5845 24.4561 39.2905 23.6881 39.2905 22.7401C39.2905 21.1801 40.0825 20.1121 41.6665 19.5361C42.3625 19.2841 43.1185 19.1581 43.9345 19.1581C45.0745 19.1581 46.1485 19.4221 47.1565 19.9501V21.3001Z" fill="black"/>
<path d="M52.1814 23.8561C52.0134 22.9681 51.8814 22.3861 51.7854 22.1101C51.5454 21.4261 51.1974 21.0541 50.7414 20.9941C50.3814 20.9461 50.0994 21.0421 49.8954 21.2821C49.7034 21.5221 49.6074 21.8281 49.6074 22.2001C49.6074 22.4521 49.6494 22.7341 49.7334 23.0461L47.0514 21.9841C47.2074 20.5321 48.3594 19.7881 50.5074 19.7521C51.2874 19.7401 51.9234 19.9321 52.4154 20.3281C52.8234 20.6521 53.3154 21.3061 53.8914 22.2901V18.5281H46.3674V17.4481H57.4914V18.5281H56.2314V26.4121H53.8554V24.1801C51.5754 26.1601 49.7634 27.1501 48.4194 27.1501C47.8914 27.1501 47.4114 27.0121 46.9794 26.7361L46.6734 25.0261C47.3694 25.4581 47.9394 25.6741 48.3834 25.6741C49.2114 25.6741 50.4774 25.0681 52.1814 23.8561Z" fill="black"/>
<path d="M57.8083 26.4121V18.5281H57.1603V17.4481H61.3903V18.5281H60.1123V26.4121H57.8083Z" fill="black"/>
<path d="M66.0667 22.2901C66.0667 21.8941 65.9827 21.5461 65.8147 21.2461C65.6107 20.8621 65.3287 20.6701 64.9687 20.6701C64.5007 20.6701 64.1587 20.9881 63.9427 21.6241C63.7867 22.0801 63.7087 22.5901 63.7087 23.1541C63.7087 24.9181 64.3327 25.8001 65.5807 25.8001C66.1447 25.8001 66.8227 25.6141 67.6147 25.2421L67.1467 26.8081C66.5467 26.9641 65.9647 27.0421 65.4007 27.0421C64.2247 27.0421 63.2527 26.7241 62.4847 26.0881C61.6567 25.4041 61.2427 24.4861 61.2427 23.3341C61.2427 22.2061 61.4947 21.2821 61.9987 20.5621C62.5747 19.7341 63.4027 19.3201 64.4827 19.3201C65.0827 19.3201 65.6347 19.4761 66.1387 19.7881C66.6547 20.0881 67.0147 20.5081 67.2187 21.0481C67.2907 20.6161 67.5007 20.2741 67.8487 20.0221C68.1967 19.7701 68.5927 19.6441 69.0367 19.6441C69.4807 19.6441 69.8227 19.7641 70.0627 20.0041V18.5281H61.0627V17.4481H73.7527V18.5281H72.4927V26.4121H70.0627V21.4981C69.8467 21.2941 69.5647 21.1921 69.2167 21.1921C68.6287 21.1921 68.3347 21.5761 68.3347 22.3441V24.1441H66.0667V22.2901Z" fill="black"/>
<path d="M84.4893 17.4481V18.5281H83.2292V26.4121H81.0152V25.4941C80.4512 25.9261 79.7673 26.1421 78.9632 26.1421C77.9792 26.1421 76.9832 25.8541 75.9752 25.2781C74.9792 24.7021 74.2232 23.9881 73.7072 23.1361V21.0301C74.5232 21.4501 75.2432 21.6601 75.8672 21.6601C76.3952 21.6601 76.8272 21.5041 77.1632 21.1921C77.4992 20.8681 77.6672 20.4421 77.6672 19.9141C77.6672 19.5541 77.5713 19.2361 77.3792 18.9601C77.1872 18.6721 76.9232 18.5281 76.5872 18.5281H73.4552V17.4481H84.4893ZM79.3232 18.5281C79.7913 18.8401 80.0252 19.3741 80.0252 20.1301C80.0252 21.0061 79.7012 21.6901 79.0532 22.1821C78.4652 22.6381 77.7212 22.8661 76.8212 22.8661C76.5812 22.8661 76.3232 22.8481 76.0472 22.8121C76.3712 23.3401 76.8213 23.7961 77.3972 24.1801C77.9852 24.5641 78.5673 24.7561 79.1432 24.7561C79.9232 24.7561 80.5472 24.3961 81.0152 23.6761V18.5281H79.3232Z" fill="black"/>
<path d="M13.0279 34.4521V35.6521H11.6279V44.4121H9.0479V39.2121H7.4279C7.45457 40.5988 7.30124 41.6521 6.9679 42.3721C6.50124 43.3588 5.6479 43.8788 4.4079 43.9321C3.3679 43.9721 2.5479 43.7254 1.9479 43.1921C1.3479 42.6454 1.0479 41.8521 1.0479 40.8121C1.0479 39.9588 1.30124 39.2454 1.8079 38.6721C2.31457 38.0988 2.9879 37.8121 3.8279 37.8121C4.05457 37.8121 4.2879 37.8388 4.5279 37.8921L4.9679 39.2121C4.78124 39.1321 4.6079 39.0921 4.4479 39.0921C4.06124 39.0921 3.76124 39.2921 3.5479 39.6921C3.37457 40.0121 3.2879 40.3854 3.2879 40.8121C3.2879 41.2388 3.37457 41.6188 3.5479 41.9521C3.76124 42.3788 4.06124 42.5921 4.4479 42.5921C4.9279 42.5921 5.1679 42.1854 5.1679 41.3721V35.6521H0.927902V34.4521H13.0279ZM7.4079 35.6521V37.8921H9.0479V35.6521H7.4079Z" fill="black"/>
<path d="M18.8057 43.0521L18.2857 41.9321C19.059 41.9054 19.4457 41.6254 19.4457 41.0921C19.4457 40.7321 19.2524 40.4521 18.8657 40.2521C18.559 40.0921 18.2057 40.0054 17.8057 39.9921C16.259 39.9654 15.4457 40.5854 15.3657 41.8521C15.3124 42.6654 15.6057 43.2921 16.2457 43.7321C16.779 44.1054 17.4724 44.2921 18.3257 44.2921C19.7924 44.2921 21.0324 43.8388 22.0457 42.9321L21.5657 45.0121C20.139 45.4654 18.8257 45.6921 17.6257 45.6921C16.3857 45.6921 15.299 45.4254 14.3657 44.8921C13.2324 44.2388 12.6657 43.3388 12.6657 42.1921C12.6657 40.9921 13.2924 40.1254 14.5457 39.5921C13.6124 39.4588 13.1257 39.0654 13.0857 38.4121C13.0457 37.7188 13.319 37.2054 13.9057 36.8721C14.3857 36.5921 14.9924 36.4521 15.7257 36.4521H18.6257V35.6521H12.6857V34.4521H23.2057V35.6521H21.1857V37.6321H16.5657C16.0857 37.6321 15.8457 37.8254 15.8457 38.2121C15.8457 38.5054 16.019 38.7121 16.3657 38.8321C16.9657 38.7388 17.579 38.6921 18.2057 38.6921C20.579 38.6921 21.8524 39.4054 22.0257 40.8321C22.1057 41.4988 21.7457 42.0588 20.9457 42.5121C20.2924 42.8854 19.659 43.0721 19.0457 43.0721C18.9524 43.0721 18.8724 43.0654 18.8057 43.0521Z" fill="black"/>
<path d="M23.601 44.4121V35.6521H22.881V34.4521H27.581V35.6521H26.161V44.4121H23.601Z" fill="black"/>
<path d="M32.777 39.8321C32.777 39.3921 32.6836 39.0054 32.497 38.6721C32.2703 38.2454 31.957 38.0321 31.557 38.0321C31.037 38.0321 30.657 38.3854 30.417 39.0921C30.2436 39.5988 30.157 40.1654 30.157 40.7921C30.157 42.7521 30.8503 43.7321 32.237 43.7321C32.8636 43.7321 33.617 43.5254 34.497 43.1121L33.977 44.8521C33.3103 45.0254 32.6636 45.1121 32.037 45.1121C30.7303 45.1121 29.6503 44.7588 28.797 44.0521C27.877 43.2921 27.417 42.2721 27.417 40.9921C27.417 39.7388 27.697 38.7121 28.257 37.9121C28.897 36.9921 29.817 36.5321 31.017 36.5321C31.6836 36.5321 32.297 36.7054 32.857 37.0521C33.4303 37.3854 33.8303 37.8521 34.057 38.4521C34.137 37.9721 34.3703 37.5921 34.757 37.3121C35.1436 37.0321 35.5836 36.8921 36.077 36.8921C36.5703 36.8921 36.9503 37.0254 37.217 37.2921V35.6521H27.217V34.4521H41.317V35.6521H39.917V44.4121H37.217V38.9521C36.977 38.7254 36.6636 38.6121 36.277 38.6121C35.6236 38.6121 35.297 39.0388 35.297 39.8921V41.8921H32.777V39.8321Z" fill="black"/>
<path d="M32.8665 31.0321C33.3332 30.8454 33.8798 30.7521 34.5065 30.7521C35.5865 30.7521 36.4065 31.0388 36.9665 31.6121L39.7265 34.4321H36.7265L35.2065 32.7321C34.6598 32.2388 34.1198 31.9921 33.5865 31.9921C33.3198 31.9921 33.0798 32.0588 32.8665 32.1921V31.0321Z" fill="black"/>
<path d="M55.7665 35.6521H54.2865V44.4121H51.6665V41.9921C51.4665 42.1788 51.1598 42.2721 50.7465 42.2721C49.9865 42.2721 49.3332 42.0254 48.7865 41.5321C48.2532 41.0254 47.9798 40.3921 47.9665 39.6321C47.9532 38.7921 48.1865 38.0854 48.6665 37.5121C49.1598 36.9388 49.8198 36.6521 50.6465 36.6521C51.0598 36.6521 51.3932 36.7454 51.6465 36.9321V35.6521H46.8265C47.2132 35.7454 47.5265 35.9988 47.7665 36.4121C48.0065 36.8254 48.1265 37.2454 48.1265 37.6721C48.1265 38.5254 47.7198 39.1721 46.9065 39.6121C46.2932 39.9454 45.5065 40.1321 44.5465 40.1721C45.3865 40.3588 46.1265 40.9121 46.7665 41.8321C47.6065 43.0321 48.3998 43.6321 49.1465 43.6321C49.6265 43.6321 50.1665 43.4521 50.7665 43.0921L50.2265 44.8521C49.5198 45.0788 48.8532 45.1921 48.2265 45.1921C47.0398 45.1921 45.9598 44.7454 44.9865 43.8521C44.8932 43.7721 44.2265 42.9721 42.9865 41.4521C42.4398 40.7854 41.9398 40.4521 41.4865 40.4521C41.3932 40.4521 41.2998 40.4654 41.2065 40.4921L41.2265 38.5721C42.0532 38.9721 42.7865 39.1721 43.4265 39.1721C43.9865 39.1721 44.4532 39.0054 44.8265 38.6721C45.1998 38.3388 45.3865 37.8921 45.3865 37.3321C45.3865 36.4921 45.0532 35.9321 44.3865 35.6521H40.9865V34.4521H55.7665V35.6521ZM51.6465 40.5321V38.3921C51.5265 38.2321 51.3598 38.1521 51.1465 38.1521C50.5198 38.1521 50.2065 38.6054 50.2065 39.5121C50.2065 39.8454 50.2798 40.1321 50.4265 40.3721C50.5998 40.6654 50.8465 40.8121 51.1665 40.8121C51.4065 40.8121 51.5665 40.7188 51.6465 40.5321Z" fill="black"/>
<path d="M56.101 44.4121V35.6521H55.381V34.4521H60.081V35.6521H58.661V44.4121H56.101Z" fill="black"/>
<path d="M69.357 34.4521V35.6521H67.957V44.4121H65.397V35.6521H64.717V34.4521H65.477C65.2103 34.2254 65.0636 33.9654 65.037 33.6721C64.9303 32.5521 65.3436 31.7121 66.277 31.1521C66.9836 30.7254 67.9503 30.4854 69.177 30.4321C70.417 30.3788 71.7636 30.5988 73.217 31.0921C74.897 31.6654 76.2103 32.4654 77.157 33.4921L74.517 34.4321C73.5303 32.7788 72.1236 31.9521 70.297 31.9521C68.5903 31.9521 67.657 32.4388 67.497 33.4121C67.4303 33.7854 67.5903 34.1321 67.977 34.4521H69.357Z" fill="black"/>
<path d="M74.2743 37.8321C75.4876 38.3121 76.0876 39.1521 76.0743 40.3521C76.0476 42.6188 74.981 43.7788 72.8743 43.8321C71.821 43.8588 70.9676 43.5454 70.3143 42.8921C69.661 42.2388 69.3343 41.3854 69.3343 40.3321C69.3343 39.0254 69.801 38.0321 70.7343 37.3521C71.561 36.7654 72.6543 36.4721 74.0143 36.4721C74.9743 36.4721 75.9676 36.6454 76.9943 36.9921L76.9743 35.6721H68.9543V34.4521H80.9743V35.6721H79.5543V44.4121H76.9943V38.4921C76.3676 38.1321 75.461 37.9121 74.2743 37.8321ZM73.0743 38.8921L74.1543 37.9921C72.941 38.0188 72.3076 38.7988 72.2543 40.3321C72.241 40.7188 72.3076 41.0854 72.4543 41.4321C72.641 41.8854 72.901 42.1121 73.2343 42.1121C73.821 42.1121 74.0943 41.5388 74.0543 40.3921C74.0276 39.3521 73.801 38.8321 73.3743 38.8321C73.281 38.8321 73.181 38.8521 73.0743 38.8921Z" fill="black"/>
<path d="M92.8949 34.4521V35.6521H91.4949V44.4121H89.0349V43.3921C88.4083 43.8721 87.6483 44.1121 86.7549 44.1121C85.6616 44.1121 84.5549 43.7921 83.4349 43.1521C82.3283 42.5121 81.4883 41.7188 80.9149 40.7721V38.4321C81.8216 38.8988 82.6216 39.1321 83.3149 39.1321C83.9016 39.1321 84.3816 38.9588 84.7549 38.6121C85.1283 38.2521 85.3149 37.7788 85.3149 37.1921C85.3149 36.7921 85.2083 36.4388 84.9949 36.1321C84.7816 35.8121 84.4883 35.6521 84.1149 35.6521H80.6349V34.4521H92.8949ZM87.1549 35.6521C87.6749 35.9988 87.9349 36.5921 87.9349 37.4321C87.9349 38.4054 87.5749 39.1654 86.8549 39.7121C86.2016 40.2188 85.3749 40.4721 84.3749 40.4721C84.1083 40.4721 83.8216 40.4521 83.5149 40.4121C83.8749 40.9988 84.3749 41.5054 85.0149 41.9321C85.6683 42.3588 86.3149 42.5721 86.9549 42.5721C87.8216 42.5721 88.5149 42.1721 89.0349 41.3721V35.6521H87.1549Z" fill="black"/>
<path d="M96.5899 38.8921L97.6699 37.9921C96.4566 38.0188 95.8233 38.7988 95.7699 40.3321C95.7566 40.7188 95.8233 41.0854 95.9699 41.4321C96.1566 41.8854 96.4166 42.1121 96.7499 42.1121C97.3366 42.1121 97.6099 41.5388 97.5699 40.3921C97.5433 39.3521 97.3166 38.8321 96.8899 38.8321C96.7966 38.8321 96.6966 38.8521 96.5899 38.8921ZM92.5099 35.6521V34.4521H101.77V35.6521H92.5099ZM101.59 38.7321C100.897 38.0788 99.9499 37.7521 98.7499 37.7521C98.4033 37.7521 98.0833 37.7788 97.7899 37.8321C99.0033 38.3121 99.6033 39.1521 99.5899 40.3521C99.5633 42.6188 98.4966 43.7788 96.3899 43.8321C95.3366 43.8588 94.4833 43.5454 93.8299 42.8921C93.1766 42.2388 92.8499 41.3854 92.8499 40.3321C92.8499 38.5988 93.7299 37.4121 95.4899 36.7721C96.2633 36.4921 97.1033 36.3521 98.0099 36.3521C99.2766 36.3521 100.47 36.6454 101.59 37.2321V38.7321Z" fill="black"/>
<path d="M107.173 41.5721C106.986 40.5854 106.84 39.9388 106.733 39.6321C106.466 38.8721 106.08 38.4588 105.573 38.3921C105.173 38.3388 104.86 38.4454 104.633 38.7121C104.42 38.9788 104.313 39.3188 104.313 39.7321C104.313 40.0121 104.36 40.3254 104.453 40.6721L101.473 39.4921C101.646 37.8788 102.926 37.0521 105.313 37.0121C106.18 36.9988 106.886 37.2121 107.433 37.6521C107.886 38.0121 108.433 38.7388 109.073 39.8321V35.6521H100.713V34.4521H113.073V35.6521H111.673V44.4121H109.033V41.9321C106.5 44.1321 104.486 45.2321 102.993 45.2321C102.406 45.2321 101.873 45.0788 101.393 44.7721L101.053 42.8721C101.826 43.3521 102.46 43.5921 102.953 43.5921C103.873 43.5921 105.28 42.9188 107.173 41.5721Z" fill="black"/>
<path d="M117.985 38.0321C117.625 37.8321 117.299 37.7321 117.005 37.7321C116.485 37.7321 116.099 38.0188 115.845 38.5921C115.659 39.0188 115.565 39.5321 115.565 40.1321C115.565 40.7188 115.679 41.2254 115.905 41.6521C116.185 42.1854 116.592 42.4521 117.125 42.4521C117.472 42.4521 117.805 42.3454 118.125 42.1321V35.6321H112.705V34.4521H127.225V35.6321H120.685V36.9121C121.299 36.5388 121.972 36.3521 122.705 36.3521C123.772 36.3521 124.632 36.6921 125.285 37.3721C125.939 38.0521 126.259 38.9254 126.245 39.9921C126.232 41.1121 125.859 42.0388 125.125 42.7721C124.392 43.5054 123.472 43.8721 122.365 43.8721C122.139 43.8721 121.912 43.8521 121.685 43.8121L121.165 42.0921C121.445 42.3721 121.752 42.5121 122.085 42.5121C122.579 42.5121 122.945 42.2121 123.185 41.6121C123.359 41.1721 123.445 40.6654 123.445 40.0921C123.432 38.6788 122.912 37.9721 121.885 37.9721C121.485 37.9721 121.092 38.0854 120.705 38.3121L120.685 44.4121H118.085L118.105 43.6121C117.905 43.7854 117.452 43.8721 116.745 43.8721C115.559 43.8721 114.605 43.5721 113.885 42.9721C113.099 42.3188 112.705 41.4121 112.705 40.2521C112.705 39.0788 113.005 38.1454 113.605 37.4521C114.245 36.7054 115.139 36.3321 116.285 36.3321C116.685 36.3321 117.092 36.3854 117.505 36.4921L117.985 38.0321Z" fill="black"/>
<path d="M137.145 38.0321C136.785 37.8321 136.459 37.7321 136.165 37.7321C135.645 37.7321 135.259 38.0188 135.005 38.5921C134.819 39.0188 134.725 39.5321 134.725 40.1321C134.725 40.7188 134.839 41.2254 135.065 41.6521C135.345 42.1854 135.752 42.4521 136.285 42.4521C136.632 42.4521 136.965 42.3454 137.285 42.1321V35.6321H131.865V34.4521H146.385V35.6321H139.845V36.9121C140.459 36.5388 141.132 36.3521 141.865 36.3521C142.932 36.3521 143.792 36.6921 144.445 37.3721C145.099 38.0521 145.419 38.9254 145.405 39.9921C145.392 41.1121 145.019 42.0388 144.285 42.7721C143.552 43.5054 142.632 43.8721 141.525 43.8721C141.299 43.8721 141.072 43.8521 140.845 43.8121L140.325 42.0921C140.605 42.3721 140.912 42.5121 141.245 42.5121C141.739 42.5121 142.105 42.2121 142.345 41.6121C142.519 41.1721 142.605 40.6654 142.605 40.0921C142.592 38.6788 142.072 37.9721 141.045 37.9721C140.645 37.9721 140.252 38.0854 139.865 38.3121L139.845 44.4121H137.245L137.265 43.6121C137.065 43.7854 136.612 43.8721 135.905 43.8721C134.719 43.8721 133.765 43.5721 133.045 42.9721C132.259 42.3188 131.865 41.4121 131.865 40.2521C131.865 39.0788 132.165 38.1454 132.765 37.4521C133.405 36.7054 134.299 36.3321 135.445 36.3321C135.845 36.3321 136.252 36.3854 136.665 36.4921L137.145 38.0321Z" fill="black"/>
<path d="M146.746 44.4121V35.6521H146.026V34.4521H150.726V35.6521H149.306V44.4121H146.746Z" fill="black"/>
<path d="M162.621 34.4521V35.6521H161.221V44.4121H158.761V43.3921C158.135 43.8721 157.375 44.1121 156.481 44.1121C155.388 44.1121 154.281 43.7921 153.161 43.1521C152.055 42.5121 151.215 41.7188 150.641 40.7721V38.4321C151.548 38.8988 152.348 39.1321 153.041 39.1321C153.628 39.1321 154.108 38.9588 154.481 38.6121C154.855 38.2521 155.041 37.7788 155.041 37.1921C155.041 36.7921 154.935 36.4388 154.721 36.1321C154.508 35.8121 154.215 35.6521 153.841 35.6521H150.361V34.4521H162.621ZM156.882 35.6521C157.402 35.9988 157.661 36.5921 157.661 37.4321C157.661 38.4054 157.301 39.1654 156.581 39.7121C155.928 40.2188 155.102 40.4721 154.102 40.4721C153.835 40.4721 153.548 40.4521 153.242 40.4121C153.602 40.9988 154.102 41.5054 154.742 41.9321C155.395 42.3588 156.042 42.5721 156.682 42.5721C157.548 42.5721 158.241 42.1721 158.761 41.3721V35.6521H156.882Z" fill="black"/>
<path d="M162.956 44.4121V35.6521H162.236V34.4521H166.936V35.6521H165.516V44.4121H162.956Z" fill="black"/>
<path d="M165.292 34.4521H162.732C162.412 34.1721 162.279 33.6721 162.332 32.9521C162.399 31.9654 162.972 31.4054 164.052 31.2721C164.679 31.1921 165.339 31.2454 166.032 31.4321L166.312 32.8521C165.992 32.6254 165.706 32.5121 165.452 32.5121C165.146 32.5121 164.946 32.6854 164.852 33.0321C164.799 33.2321 164.772 33.4054 164.772 33.5521C164.772 33.9788 164.946 34.2788 165.292 34.4521Z" fill="black"/>
<path d="M172.132 39.8321C172.132 39.3921 172.039 39.0054 171.852 38.6721C171.626 38.2454 171.312 38.0321 170.912 38.0321C170.392 38.0321 170.012 38.3854 169.772 39.0921C169.599 39.5988 169.512 40.1654 169.512 40.7921C169.512 42.7521 170.206 43.7321 171.592 43.7321C172.219 43.7321 172.972 43.5254 173.852 43.1121L173.332 44.8521C172.666 45.0254 172.019 45.1121 171.392 45.1121C170.086 45.1121 169.006 44.7588 168.152 44.0521C167.232 43.2921 166.772 42.2721 166.772 40.9921C166.772 39.7388 167.052 38.7121 167.612 37.9121C168.252 36.9921 169.172 36.5321 170.372 36.5321C171.039 36.5321 171.652 36.7054 172.212 37.0521C172.786 37.3854 173.186 37.8521 173.412 38.4521C173.492 37.9721 173.726 37.5921 174.112 37.3121C174.499 37.0321 174.939 36.8921 175.432 36.8921C175.926 36.8921 176.306 37.0254 176.572 37.2921V35.6521H166.572V34.4521H180.672V35.6521H179.272V44.4121H176.572V38.9521C176.332 38.7254 176.019 38.6121 175.632 38.6121C174.979 38.6121 174.652 39.0388 174.652 39.8921V41.8921H172.132V39.8321Z" fill="black"/>
<path d="M192.602 34.4521V35.6521H191.202V44.4121H188.742V43.3921C188.115 43.8721 187.355 44.1121 186.462 44.1121C185.369 44.1121 184.262 43.7921 183.142 43.1521C182.035 42.5121 181.195 41.7188 180.622 40.7721V38.4321C181.529 38.8988 182.329 39.1321 183.022 39.1321C183.609 39.1321 184.089 38.9588 184.462 38.6121C184.835 38.2521 185.022 37.7788 185.022 37.1921C185.022 36.7921 184.915 36.4388 184.702 36.1321C184.489 35.8121 184.195 35.6521 183.822 35.6521H180.342V34.4521H192.602ZM186.862 35.6521C187.382 35.9988 187.642 36.5921 187.642 37.4321C187.642 38.4054 187.282 39.1654 186.562 39.7121C185.909 40.2188 185.082 40.4721 184.082 40.4721C183.815 40.4721 183.529 40.4521 183.222 40.4121C183.582 40.9988 184.082 41.5054 184.722 41.9321C185.375 42.3588 186.022 42.5721 186.662 42.5721C187.529 42.5721 188.222 42.1721 188.742 41.3721V35.6521H186.862Z" fill="black"/>
</g>
</svg>
