<svg width="237" height="31" viewBox="0 0 237 31" fill="none" xmlns="http://www.w3.org/2000/svg">
<path d="M3.30457 5.70014C4.05825 6.03614 4.43094 6.62414 4.42266 7.46414C4.4061 9.05081 3.74353 9.86281 2.43495 9.90014C1.78066 9.91881 1.2506 9.69947 0.844778 9.24214C0.438953 8.78481 0.236041 8.18747 0.236041 7.45014C0.236041 6.53547 0.525916 5.84014 1.10567 5.36414C1.61916 4.95347 2.29829 4.74814 3.14307 4.74814C3.73939 4.74814 4.3564 4.86947 4.99413 5.11214L4.98171 4.18814H0V3.33414H7.46635V4.18814H6.5843V10.3061H4.99413V6.16214C4.60487 5.91014 4.04168 5.75614 3.30457 5.70014ZM2.55918 6.44214L3.23003 5.81214C2.47636 5.83081 2.08296 6.37681 2.04983 7.45014C2.04155 7.72081 2.08296 7.97747 2.17406 8.22014C2.29001 8.53747 2.45151 8.69614 2.65857 8.69614C3.02298 8.69614 3.19276 8.29481 3.16792 7.49214C3.15135 6.76414 3.01056 6.40014 2.74553 6.40014C2.68755 6.40014 2.62544 6.41414 2.55918 6.44214Z" fill="black"/>
<path d="M2.21172 0.94014C2.50159 0.809474 2.84116 0.744141 3.23042 0.744141C3.90128 0.744141 4.41063 0.944807 4.75848 1.34614L6.47288 3.32014H4.6094L3.66523 2.13014C3.32567 1.78481 2.99024 1.61214 2.65895 1.61214C2.49331 1.61214 2.34423 1.65881 2.21172 1.75214V0.94014Z" fill="black"/>
<path d="M11.1937 8.05214V4.17414H9.39233V7.43614C9.39233 8.21081 9.69877 8.59814 10.3117 8.59814C10.7755 8.59814 11.0695 8.41614 11.1937 8.05214ZM7.82701 7.59014V4.17414H7.25554V3.33414H13.5665V4.17414H12.6969V10.3061H11.1937V9.34014C10.8293 9.67614 10.3986 9.84414 9.90169 9.84414C9.30537 9.84414 8.80844 9.63881 8.4109 9.22814C8.02164 8.80814 7.82701 8.26214 7.82701 7.59014Z" fill="black"/>
<path d="M13.7931 10.3061V4.17414H13.3458V3.33414H16.2653V4.17414H15.3832V10.3061H13.7931Z" fill="black"/>
<path d="M19.4928 7.10014C19.4928 6.79214 19.4348 6.52147 19.3189 6.28814C19.1781 5.98947 18.9834 5.84014 18.735 5.84014C18.412 5.84014 18.1759 6.08747 18.0269 6.58214C17.9192 6.93681 17.8654 7.33347 17.8654 7.77214C17.8654 9.14414 18.296 9.83014 19.1574 9.83014C19.5466 9.83014 20.0146 9.68547 20.5612 9.39614L20.2382 10.6141C19.8241 10.7355 19.4224 10.7961 19.0331 10.7961C18.2215 10.7961 17.5506 10.5488 17.0206 10.0541C16.4491 9.52214 16.1634 8.80814 16.1634 7.91214C16.1634 7.03481 16.3373 6.31614 16.6851 5.75614C17.0827 5.11214 17.6542 4.79014 18.3995 4.79014C18.8137 4.79014 19.1946 4.91147 19.5425 5.15414C19.8986 5.38747 20.1471 5.71414 20.2879 6.13414C20.3376 5.79814 20.4825 5.53214 20.7227 5.33614C20.9629 5.14014 21.2362 5.04214 21.5426 5.04214C21.8491 5.04214 22.0851 5.13547 22.2507 5.32214V4.17414H16.0391V3.33414H24.7975V4.17414H23.9279V10.3061H22.2507V6.48414C22.1017 6.32547 21.907 6.24614 21.6669 6.24614C21.261 6.24614 21.0581 6.54481 21.0581 7.14214V8.54214H19.4928V7.10014Z" fill="black"/>
<path d="M31.4001 6.35814C31.2179 6.73147 30.9405 7.00214 30.5678 7.17014C30.3607 7.26347 30.0584 7.34281 29.6609 7.40814C30.2406 7.55747 30.6589 7.92614 30.9156 8.51414C31.1144 8.96214 31.2635 9.26547 31.3629 9.42414C31.6031 9.78814 31.8474 9.97014 32.0958 9.97014C32.2366 9.97014 32.4064 9.92347 32.6052 9.83014L32.2698 10.8381C31.9965 10.9501 31.7356 11.0061 31.4871 11.0061C30.9322 11.0061 30.4311 10.7075 29.9839 10.1101C29.9591 10.0728 29.6319 9.50814 29.0025 8.41614C28.6546 7.80947 28.3358 7.50614 28.0459 7.50614C27.9548 7.50614 27.8637 7.52947 27.7726 7.57614V6.23214C28.195 6.40014 28.5635 6.48414 28.8782 6.48414C29.6153 6.48414 29.9839 6.10614 29.9839 5.35014C29.9839 5.09814 29.9259 4.85547 29.81 4.62214C29.6775 4.35147 29.5118 4.20214 29.313 4.17414H27.698V3.33414H35.5247V4.17414H34.6426V10.3061H33.0276V6.66614H31.4001C31.3919 6.53547 31.3919 6.43281 31.4001 6.35814ZM33.0276 5.74214V4.17414H30.8287C31.0192 4.22081 31.1889 4.37947 31.338 4.65014C31.4871 4.92081 31.5616 5.17281 31.5616 5.40614C31.5616 5.52747 31.5451 5.63947 31.512 5.74214H33.0276Z" fill="black"/>
<path d="M41.4173 4.17414H38.9203C39.1604 4.23947 39.3551 4.41681 39.5042 4.70614C39.6532 4.99547 39.7278 5.28947 39.7278 5.58814C39.7278 6.18547 39.4752 6.63814 38.97 6.94614C38.589 7.17947 38.1003 7.31014 37.504 7.33814C37.8187 7.45014 38.0548 7.62281 38.2121 7.85614C38.2453 7.90281 38.3695 8.14547 38.5848 8.58414C38.9907 9.40547 39.3841 9.81614 39.765 9.81614C40.0301 9.81614 40.3903 9.66681 40.8459 9.36814L40.5104 10.5721C40.0632 10.7401 39.6532 10.8241 39.2805 10.8241C38.6014 10.8241 38.0134 10.5395 37.5164 9.97014C37.3425 9.76481 37.0112 9.23747 36.5226 8.38814C36.1996 7.81881 35.9014 7.53414 35.6281 7.53414C35.5619 7.53414 35.4956 7.54347 35.4293 7.56214V6.21814C35.9428 6.49814 36.3983 6.63814 36.7959 6.63814C37.1603 6.63814 37.4543 6.52147 37.6779 6.28814C37.9016 6.05481 38.0134 5.73747 38.0134 5.33614C38.0134 4.75747 37.8105 4.37014 37.4046 4.17414H35.2927V3.33414H41.4173V4.17414Z" fill="black"/>
<path d="M44.4079 5.84014C44.1843 5.70014 43.9814 5.63014 43.7992 5.63014C43.4762 5.63014 43.236 5.83081 43.0786 6.23214C42.9627 6.53081 42.9047 6.89014 42.9047 7.31014C42.9047 7.72081 42.9751 8.07547 43.1159 8.37414C43.2898 8.74747 43.5424 8.93414 43.8737 8.93414C44.0891 8.93414 44.2961 8.85947 44.4949 8.71014V4.16014H41.1282V3.33414H50.1474V4.16014H46.0851V5.05614C46.466 4.79481 46.8843 4.66414 47.3398 4.66414C48.0024 4.66414 48.5366 4.90214 48.9424 5.37814C49.3482 5.85414 49.547 6.46547 49.5387 7.21214C49.5304 7.99614 49.2985 8.64481 48.843 9.15814C48.3875 9.67147 47.816 9.92814 47.1286 9.92814C46.9878 9.92814 46.847 9.91414 46.7062 9.88614L46.3832 8.68214C46.5571 8.87814 46.7476 8.97614 46.9547 8.97614C47.2611 8.97614 47.4889 8.76614 47.638 8.34614C47.7456 8.03814 47.7995 7.68347 47.7995 7.28214C47.7912 6.29281 47.4682 5.79814 46.8304 5.79814C46.582 5.79814 46.3377 5.87747 46.0975 6.03614L46.0851 10.3061H44.47L44.4825 9.74614C44.3582 9.86747 44.0766 9.92814 43.6377 9.92814C42.9006 9.92814 42.3084 9.71814 41.8612 9.29814C41.3725 8.84081 41.1282 8.20614 41.1282 7.39414C41.1282 6.57281 41.3145 5.91947 41.6872 5.43414C42.0848 4.91147 42.6397 4.65014 43.352 4.65014C43.6004 4.65014 43.853 4.68747 44.1098 4.76214L44.4079 5.84014Z" fill="black"/>
<path d="M50.3712 10.3061V4.17414H49.9239V3.33414H52.8434V4.17414H51.9613V10.3061H50.3712Z" fill="black"/>
<path d="M58.7419 4.17414H56.2448C56.485 4.23947 56.6796 4.41681 56.8287 4.70614C56.9778 4.99547 57.0523 5.28947 57.0523 5.58814C57.0523 6.18547 56.7997 6.63814 56.2945 6.94614C55.9135 7.17947 55.4249 7.31014 54.8286 7.33814C55.1433 7.45014 55.3793 7.62281 55.5367 7.85614C55.5698 7.90281 55.694 8.14547 55.9094 8.58414C56.3152 9.40547 56.7086 9.81614 57.0896 9.81614C57.3546 9.81614 57.7149 9.66681 58.1704 9.36814L57.835 10.5721C57.3877 10.7401 56.9778 10.8241 56.6051 10.8241C55.9259 10.8241 55.3379 10.5395 54.841 9.97014C54.6671 9.76481 54.3358 9.23747 53.8471 8.38814C53.5241 7.81881 53.226 7.53414 52.9527 7.53414C52.8864 7.53414 52.8201 7.54347 52.7539 7.56214V6.21814C53.2674 6.49814 53.7229 6.63814 54.1204 6.63814C54.4849 6.63814 54.7789 6.52147 55.0025 6.28814C55.2261 6.05481 55.3379 5.73747 55.3379 5.33614C55.3379 4.75747 55.135 4.37014 54.7292 4.17414H52.6172V3.33414H58.7419V4.17414Z" fill="black"/>
<path d="M7.76273 23.1061H5.43782C5.41415 22.9195 5.40824 22.7728 5.42007 22.6661C5.15977 23.1995 4.76341 23.5861 4.23099 23.8261C3.9352 23.9595 3.50335 24.0728 2.93543 24.1661C3.76364 24.3795 4.36114 24.9061 4.72792 25.7461C5.01188 26.3861 5.22485 26.8195 5.36683 27.0461C5.70994 27.5661 6.05898 27.8261 6.41393 27.8261C6.61506 27.8261 6.85761 27.7595 7.14157 27.6261L6.66239 29.0661C6.27195 29.2261 5.89925 29.3061 5.5443 29.3061C4.62143 29.3061 3.86421 28.8128 3.27263 27.8261C3.01233 27.3861 2.5154 26.5395 1.78184 25.2861C1.40323 24.6461 1.00687 24.3261 0.592765 24.3261C0.474448 24.3261 0.356132 24.3528 0.237816 24.4061V22.4861C0.841229 22.7261 1.36182 22.8461 1.79959 22.8461C2.86444 22.8461 3.39686 22.3061 3.39686 21.2261C3.39686 20.8661 3.31404 20.5195 3.1484 20.1861C2.95909 19.7861 2.72246 19.5661 2.4385 19.5261H0.0248464V18.3461H7.88696V19.5261H4.60369C4.93497 19.5661 5.19527 19.7595 5.38457 20.1061C5.55022 20.3995 5.63304 20.7461 5.63304 21.1461C5.63304 21.3461 5.61529 21.5595 5.5798 21.7861H7.76273V23.1061Z" fill="black"/>
<path d="M10.7462 18.1261C12.0359 18.1261 12.9706 18.7261 13.5503 19.9261C13.8225 20.4861 13.9585 21.0461 13.9585 21.6061C13.9585 22.1928 13.8106 22.7661 13.5148 23.3261C12.8641 24.5528 11.675 25.1995 9.94761 25.2661C11.1899 26.2128 12.1424 26.6861 12.8049 26.6861C13.5503 26.6861 14.2129 26.2128 14.7927 25.2661V19.5461H13.6568V18.3461H18.3244V19.5461H16.9756V28.3061H14.8104V27.2861C14.1123 27.8861 13.2605 28.1861 12.2548 28.1861C11.3437 28.1861 10.4623 27.9528 9.61041 27.4861C8.68754 26.9928 8.00722 26.3328 7.56945 25.5061V23.2861C8.29118 23.6728 8.936 23.8661 9.50392 23.8661C10.1783 23.8661 10.7167 23.6128 11.1189 23.1061C11.533 22.5861 11.7401 21.9395 11.7401 21.1661C11.7401 20.7661 11.675 20.4061 11.5449 20.0861C11.3792 19.6861 11.1426 19.4661 10.835 19.4261C10.5392 19.3861 10.3026 19.4995 10.1251 19.7661C9.95944 20.0195 9.87662 20.3195 9.87662 20.6661C9.87662 21.3728 10.1428 21.7261 10.6753 21.7261C10.7462 21.7261 10.8231 21.7195 10.906 21.7061L9.9831 22.5861C9.87662 22.6128 9.7583 22.6261 9.62815 22.6261C9.13122 22.6261 8.68754 22.4395 8.29709 22.0661C7.90665 21.6795 7.71143 21.2128 7.71143 20.6661C7.71143 20.2928 7.81791 19.9195 8.03088 19.5461H7.33873V18.3461H8.35034V18.9461C8.83543 18.3995 9.63407 18.1261 10.7462 18.1261Z" fill="black"/>
<path d="M18.6192 28.3061V19.5461H17.9803V18.3461H22.1509V19.5461H20.8908V28.3061H18.6192Z" fill="black"/>
<path d="M26.5132 21.7261C27.5899 22.2061 28.1223 23.0461 28.1104 24.2461C28.0868 26.5128 27.1403 27.6728 25.2709 27.7261C24.3362 27.7528 23.5789 27.4395 22.9992 26.7861C22.4194 26.1328 22.1296 25.2795 22.1296 24.2261C22.1296 22.9195 22.5437 21.9261 23.3719 21.2461C24.1054 20.6595 25.0756 20.3661 26.2825 20.3661C27.1343 20.3661 28.0158 20.5395 28.9268 20.8861L28.9091 19.5661H21.7924V18.3461H32.4586V19.5661H31.1985V28.3061H28.9268V22.3861C28.3707 22.0261 27.5662 21.8061 26.5132 21.7261ZM25.4483 22.7861L26.4067 21.8861C25.33 21.9128 24.768 22.6928 24.7207 24.2261C24.7089 24.6128 24.768 24.9795 24.8982 25.3261C25.0638 25.7795 25.2945 26.0061 25.5903 26.0061C26.1109 26.0061 26.3535 25.4328 26.318 24.2861C26.2943 23.2461 26.0932 22.7261 25.7145 22.7261C25.6317 22.7261 25.543 22.7461 25.4483 22.7861Z" fill="black"/>
<path d="M30.9506 16.1661C30.5483 16.2061 30.3472 16.3928 30.3472 16.7261C30.3472 16.9928 30.4714 17.2928 30.7199 17.6261C30.8382 17.7861 31.0689 18.0328 31.412 18.3661H28.9096C28.4364 17.8461 28.1997 17.2861 28.1997 16.6861C28.1997 16.0061 28.4719 15.4928 29.0161 15.1461C29.4539 14.8661 29.9981 14.7261 30.6489 14.7261C31.4889 14.7261 32.2698 14.9928 32.9915 15.5261C33.5713 15.9528 34.2694 16.6795 35.0857 17.7061L33.6305 18.3461H36.5233V19.5461H35.281V28.3061H33.0093V19.5461H32.1574V18.3461H32.9028C32.8555 17.8128 32.6307 17.3061 32.2284 16.8261C31.838 16.3328 31.412 16.1128 30.9506 16.1661Z" fill="black"/>
<path d="M47.0748 18.3461V19.5461H45.8325V28.3061H43.6496V27.2861C43.0935 27.7661 42.4191 28.0061 41.6264 28.0061C40.6562 28.0061 39.6742 27.6861 38.6803 27.0461C37.6983 26.4061 36.9529 25.6128 36.4441 24.6661V22.3261C37.2487 22.7928 37.9586 23.0261 38.5738 23.0261C39.0944 23.0261 39.5203 22.8528 39.8516 22.5061C40.1829 22.1461 40.3486 21.6728 40.3486 21.0861C40.3486 20.6861 40.2539 20.3328 40.0646 20.0261C39.8753 19.7061 39.615 19.5461 39.2837 19.5461H36.1957V18.3461H47.0748ZM41.9813 19.5461C42.4428 19.8928 42.6735 20.4861 42.6735 21.3261C42.6735 22.2995 42.354 23.0595 41.7151 23.6061C41.1354 24.1128 40.4018 24.3661 39.5144 24.3661C39.2778 24.3661 39.0234 24.3461 38.7513 24.3061C39.0707 24.8928 39.5144 25.3995 40.0823 25.8261C40.6621 26.2528 41.2359 26.4661 41.8038 26.4661C42.5729 26.4661 43.1881 26.0661 43.6496 25.2661V19.5461H41.9813Z" fill="black"/>
<path d="M56.4588 22.6661C56.1985 23.1995 55.8021 23.5861 55.2697 23.8261C54.9739 23.9595 54.5421 24.0728 53.9742 24.1661C54.8024 24.3795 55.3999 24.9061 55.7666 25.7461C56.0506 26.3861 56.2636 26.8195 56.4056 27.0461C56.7487 27.5661 57.0977 27.8261 57.4527 27.8261C57.6538 27.8261 57.8963 27.7595 58.1803 27.6261L57.7011 29.0661C57.3107 29.2261 56.938 29.3061 56.583 29.3061C55.7903 29.3061 55.0745 28.8795 54.4356 28.0261C54.4001 27.9728 53.9327 27.1661 53.0335 25.6061C52.5366 24.7395 52.0811 24.3061 51.667 24.3061C51.5368 24.3061 51.4067 24.3395 51.2765 24.4061V22.4861C51.88 22.7261 52.4065 22.8461 52.8561 22.8461C53.9091 22.8461 54.4356 22.3061 54.4356 21.2261C54.4356 20.8661 54.3528 20.5195 54.1871 20.1861C53.9978 19.7995 53.7612 19.5861 53.4772 19.5461H51.1701V18.3461H62.3509V19.5461H61.0909V28.3061H58.7837V23.1061H56.4588C56.447 22.9195 56.447 22.7728 56.4588 22.6661ZM58.7837 21.7861V19.5461H55.6424C55.9145 19.6128 56.1571 19.8395 56.3701 20.2261C56.583 20.6128 56.6895 20.9728 56.6895 21.3061C56.6895 21.4795 56.6658 21.6395 56.6185 21.7861H58.7837Z" fill="black"/>
<path d="M66.137 18.3461V19.5461H64.8947V28.3061H62.623V19.5461H62.0196V18.3461H62.694C62.4573 18.1195 62.3272 17.8595 62.3035 17.5661C62.2089 16.4461 62.5757 15.6061 63.4039 15.0461C64.0309 14.6195 64.8887 14.3795 65.9772 14.3261C67.0776 14.2728 68.2726 14.4928 69.5622 14.9861C71.053 15.5595 72.2184 16.3595 73.0585 17.3861L70.7158 18.3261C69.8403 16.6728 68.592 15.8461 66.9711 15.8461C65.4567 15.8461 64.6284 16.3328 64.4865 17.3061C64.4273 17.6795 64.5693 18.0261 64.9124 18.3461H66.137Z" fill="black"/>
<path d="M65.8152 19.5661V18.3461H74.4404V19.5661H65.8152ZM74.3339 24.3461H72.4705C72.4468 25.4528 72.0623 26.4128 71.3169 27.2261C70.5833 28.0261 69.7255 28.4261 68.7435 28.4261C67.655 28.4261 66.6907 27.8661 65.8507 26.7461L66.8623 24.4861C66.8504 25.0995 67.0161 25.6261 67.3592 26.0661C67.7141 26.5061 68.1637 26.7261 68.708 26.7261C69.2523 26.7261 69.6664 26.4861 69.9503 26.0061C70.1988 25.5928 70.3171 25.0661 70.3053 24.4261C70.2934 23.7461 70.1278 23.1795 69.8083 22.7261C69.4534 22.2195 68.986 21.9661 68.4063 21.9661C67.7319 21.9661 67.1935 22.3261 66.7913 23.0461L66.809 20.9461C67.4361 20.4661 68.1637 20.2261 68.992 20.2261C69.8557 20.2261 70.6011 20.4795 71.2281 20.9861C71.9025 21.5195 72.3166 22.2461 72.4705 23.1661H74.3339V24.3461Z" fill="black"/>
<path d="M80.1916 19.5461H73.909V18.3461H83.8475V19.5461H82.6052V28.3061H80.1916V27.0861C79.6946 27.5928 79.0321 27.8461 78.2038 27.8461C77.3401 27.8461 76.5238 27.5861 75.7547 27.0661C74.8792 26.4661 74.4414 25.7061 74.4414 24.7861C74.4414 24.0795 74.6544 23.4195 75.0803 22.8061C75.5062 22.1928 76.0268 21.8795 76.6421 21.8661H74.3349V20.7061H79.5172V21.9061L78.7895 21.8861C78.2689 21.8728 77.8371 22.1128 77.4939 22.6061C77.1627 23.0861 76.997 23.6261 76.997 24.2261C76.997 24.7861 77.1627 25.2128 77.4939 25.5061C77.8252 25.7995 78.2453 25.9461 78.754 25.9461C79.3574 25.9461 79.8366 25.7395 80.1916 25.3261V19.5461Z" fill="black"/>
<path d="M89.3309 28.3061V22.3261C88.8577 22.0595 88.414 21.9261 87.9999 21.9261C87.361 21.9261 86.8818 22.2195 86.5623 22.8061C86.2784 23.2995 86.1423 23.9261 86.1541 24.6861C86.166 26.5795 86.7753 27.5195 87.9821 27.5061C88.2069 27.5061 88.4081 27.4861 88.5855 27.4461L87.8402 29.0261C86.657 28.9995 85.6986 28.6395 84.9651 27.9461C84.1842 27.2128 83.7701 26.1928 83.7227 24.8861C83.6754 23.5261 84.0008 22.4661 84.6989 21.7061C85.4088 20.9461 86.373 20.5661 87.5917 20.5661C88.1478 20.5661 88.7275 20.6528 89.3309 20.8261V19.5461H83.5453V18.3461H92.9869V19.5461H91.7446L91.7268 28.3061H89.3309Z" fill="black"/>
<path d="M101.801 21.9261C101.482 21.7261 101.192 21.6261 100.932 21.6261C100.47 21.6261 100.127 21.9128 99.9022 22.4861C99.7365 22.9128 99.6537 23.4261 99.6537 24.0261C99.6537 24.6128 99.7543 25.1195 99.9554 25.5461C100.204 26.0795 100.565 26.3461 101.038 26.3461C101.346 26.3461 101.641 26.2395 101.925 26.0261V19.5261H97.1158V18.3461H110V19.5261H104.197V20.8061C104.741 20.4328 105.339 20.2461 105.99 20.2461C106.936 20.2461 107.699 20.5861 108.279 21.2661C108.859 21.9461 109.143 22.8195 109.131 23.8861C109.119 25.0061 108.788 25.9328 108.137 26.6661C107.486 27.3995 106.67 27.7661 105.688 27.7661C105.487 27.7661 105.286 27.7461 105.084 27.7061L104.623 25.9861C104.871 26.2661 105.144 26.4061 105.439 26.4061C105.877 26.4061 106.203 26.1061 106.415 25.5061C106.569 25.0661 106.646 24.5595 106.646 23.9861C106.634 22.5728 106.173 21.8661 105.262 21.8661C104.907 21.8661 104.558 21.9795 104.215 22.2061L104.197 28.3061H101.89L101.908 27.5061C101.73 27.6795 101.328 27.7661 100.701 27.7661C99.6478 27.7661 98.8018 27.4661 98.1629 26.8661C97.4649 26.2128 97.1158 25.3061 97.1158 24.1461C97.1158 22.9728 97.382 22.0395 97.9145 21.3461C98.4824 20.5995 99.2751 20.2261 100.293 20.2261C100.648 20.2261 101.008 20.2795 101.375 20.3861L101.801 21.9261Z" fill="black"/>
<path d="M110.32 28.3061V19.5461H109.681V18.3461H113.852V19.5461H112.592V28.3061H110.32Z" fill="black"/>
<path d="M106.323 14.9261C106.737 14.7395 107.222 14.6461 107.779 14.6461C108.737 14.6461 109.465 14.9328 109.962 15.5061L112.411 18.3261H109.749L108.4 16.6261C107.915 16.1328 107.435 15.8861 106.962 15.8861C106.726 15.8861 106.513 15.9528 106.323 16.0861V14.9261Z" fill="black"/>
<path d="M119.368 25.1261L116.581 20.4261V24.2061C116.581 25.3261 117.066 25.8861 118.037 25.8861C118.746 25.8861 119.19 25.6328 119.368 25.1261ZM120.415 18.3461V19.5461H117.398L120.379 24.3861L120.362 26.1261C119.77 27.0061 118.9 27.4461 117.753 27.4461C116.877 27.4461 116.114 27.1928 115.463 26.6861C114.718 26.1128 114.345 25.3595 114.345 24.4261V19.5461H113.529V18.3461H120.415Z" fill="black"/>
<path d="M119.488 28.3061V19.5461H118.85V18.3461H123.02V19.5461H121.76V28.3061H119.488Z" fill="black"/>
<path d="M129.494 23.1661C129.447 23.4728 129.423 23.7661 129.423 24.0461C129.423 24.6595 129.536 25.1795 129.761 25.6061C130.033 26.1128 130.423 26.3661 130.932 26.3661C131.18 26.3661 131.405 26.2861 131.606 26.1261L129.494 23.1661ZM127.134 19.5461V18.3461H132.227V19.5461H127.134ZM131.979 27.5061C131.742 27.7328 131.245 27.8461 130.488 27.8461C129.435 27.8461 128.613 27.5261 128.021 26.8861C127.442 26.2461 127.146 25.3328 127.134 24.1461C127.122 22.9728 127.382 22.0395 127.915 21.3461C128.471 20.5995 129.258 20.2261 130.275 20.2261C130.666 20.2261 131.032 20.2928 131.376 20.4261L131.748 21.9261C131.429 21.7261 131.115 21.6261 130.808 21.6261C130.453 21.6261 130.175 21.7928 129.974 22.1261L131.979 24.7061V27.5061Z" fill="black"/>
<path d="M142.433 18.3461V19.5461H141.19V28.3061H139.007V27.2861C138.451 27.7661 137.777 28.0061 136.984 28.0061C136.014 28.0061 135.032 27.6861 134.038 27.0461C133.056 26.4061 132.311 25.6128 131.802 24.6661V22.3261C132.606 22.7928 133.316 23.0261 133.932 23.0261C134.452 23.0261 134.878 22.8528 135.209 22.5061C135.541 22.1461 135.706 21.6728 135.706 21.0861C135.706 20.6861 135.612 20.3328 135.422 20.0261C135.233 19.7061 134.973 19.5461 134.642 19.5461H131.553V18.3461H142.433ZM137.339 19.5461C137.801 19.8928 138.031 20.4861 138.031 21.3261C138.031 22.2995 137.712 23.0595 137.073 23.6061C136.493 24.1128 135.76 24.3661 134.872 24.3661C134.636 24.3661 134.381 24.3461 134.109 24.3061C134.429 24.8928 134.872 25.3995 135.44 25.8261C136.02 26.2528 136.594 26.4661 137.162 26.4661C137.931 26.4661 138.546 26.0661 139.007 25.2661V19.5461H137.339Z" fill="black"/>
<path d="M146.723 21.9061C146.475 21.7461 146.22 21.6661 145.96 21.6661C144.978 21.6795 144.487 22.4928 144.487 24.1061C144.487 24.6661 144.576 25.1528 144.753 25.5661C144.978 26.0995 145.315 26.3661 145.765 26.3661C146.12 26.3661 146.469 26.1995 146.812 25.8661V19.5461H142.091V18.3461H150.326V19.5461H149.084V28.3061H146.812V27.5061C146.563 27.7461 146.09 27.8661 145.392 27.8661C144.375 27.8661 143.576 27.5395 142.996 26.8861C142.416 26.2195 142.115 25.3061 142.091 24.1461C142.067 22.9595 142.31 22.0261 142.819 21.3461C143.351 20.6128 144.132 20.2461 145.161 20.2461C145.528 20.2461 145.895 20.2995 146.262 20.4061L146.723 21.9061Z" fill="black"/>
<path d="M157.749 23.1061H155.424C155.401 22.9195 155.395 22.7728 155.407 22.6661C155.146 23.1995 154.75 23.5861 154.218 23.8261C153.922 23.9595 153.49 24.0728 152.922 24.1661C153.75 24.3795 154.348 24.9061 154.715 25.7461C154.999 26.3861 155.212 26.8195 155.354 27.0461C155.697 27.5661 156.046 27.8261 156.401 27.8261C156.602 27.8261 156.844 27.7595 157.128 27.6261L156.649 29.0661C156.259 29.2261 155.886 29.3061 155.531 29.3061C154.608 29.3061 153.851 28.8128 153.259 27.8261C152.999 27.3861 152.502 26.5395 151.769 25.2861C151.39 24.6461 150.994 24.3261 150.579 24.3261C150.461 24.3261 150.343 24.3528 150.224 24.4061V22.4861C150.828 22.7261 151.348 22.8461 151.786 22.8461C152.851 22.8461 153.384 22.3061 153.384 21.2261C153.384 20.8661 153.301 20.5195 153.135 20.1861C152.946 19.7861 152.709 19.5661 152.425 19.5261H150.012V18.3461H157.874V19.5261H154.59C154.922 19.5661 155.182 19.7595 155.371 20.1061C155.537 20.3995 155.62 20.7461 155.62 21.1461C155.62 21.3461 155.602 21.5595 155.566 21.7861H157.749V23.1061Z" fill="black"/>
<path d="M160.733 18.1261C162.023 18.1261 162.957 18.7261 163.537 19.9261C163.809 20.4861 163.945 21.0461 163.945 21.6061C163.945 22.1928 163.797 22.7661 163.502 23.3261C162.851 24.5528 161.662 25.1995 159.934 25.2661C161.177 26.2128 162.129 26.6861 162.792 26.6861C163.537 26.6861 164.2 26.2128 164.779 25.2661V19.5461H163.643V18.3461H168.311V19.5461H166.962V28.3061H164.797V27.2861C164.099 27.8861 163.247 28.1861 162.241 28.1861C161.33 28.1861 160.449 27.9528 159.597 27.4861C158.674 26.9928 157.994 26.3328 157.556 25.5061V23.2861C158.278 23.6728 158.923 23.8661 159.491 23.8661C160.165 23.8661 160.703 23.6128 161.106 23.1061C161.52 22.5861 161.727 21.9395 161.727 21.1661C161.727 20.7661 161.662 20.4061 161.532 20.0861C161.366 19.6861 161.129 19.4661 160.822 19.4261C160.526 19.3861 160.289 19.4995 160.112 19.7661C159.946 20.0195 159.863 20.3195 159.863 20.6661C159.863 21.3728 160.129 21.7261 160.662 21.7261C160.733 21.7261 160.81 21.7195 160.893 21.7061L159.97 22.5861C159.863 22.6128 159.745 22.6261 159.615 22.6261C159.118 22.6261 158.674 22.4395 158.284 22.0661C157.893 21.6795 157.698 21.2128 157.698 20.6661C157.698 20.2928 157.805 19.9195 158.018 19.5461H157.325V18.3461H158.337V18.9461C158.822 18.3995 159.621 18.1261 160.733 18.1261Z" fill="black"/>
<path d="M168.606 28.3061V19.5461H167.967V18.3461H172.138V19.5461H170.878V28.3061H168.606Z" fill="black"/>
<path d="M177.44 25.0861V19.5461H174.867V24.2061C174.867 25.3128 175.305 25.8661 176.18 25.8661C176.843 25.8661 177.263 25.6061 177.44 25.0861ZM172.631 24.4261V19.5461H171.815V18.3461H180.83V19.5461H179.588V28.3061H177.44V26.9261C176.92 27.4061 176.305 27.6461 175.595 27.6461C174.743 27.6461 174.033 27.3528 173.465 26.7661C172.909 26.1661 172.631 25.3861 172.631 24.4261Z" fill="black"/>
<path d="M185.2 21.7261C186.277 22.2061 186.809 23.0461 186.798 24.2461C186.774 26.5128 185.827 27.6728 183.958 27.7261C183.023 27.7528 182.266 27.4395 181.686 26.7861C181.107 26.1328 180.817 25.2795 180.817 24.2261C180.817 22.9195 181.231 21.9261 182.059 21.2461C182.793 20.6595 183.763 20.3661 184.97 20.3661C185.821 20.3661 186.703 20.5395 187.614 20.8861L187.596 19.5661H180.479V18.3461H191.146V19.5661H189.886V28.3061H187.614V22.3861C187.058 22.0261 186.253 21.8061 185.2 21.7261ZM184.135 22.7861L185.094 21.8861C184.017 21.9128 183.455 22.6928 183.408 24.2261C183.396 24.6128 183.455 24.9795 183.585 25.3261C183.751 25.7795 183.982 26.0061 184.277 26.0061C184.798 26.0061 185.041 25.4328 185.005 24.2861C184.981 23.2461 184.78 22.7261 184.402 22.7261C184.319 22.7261 184.23 22.7461 184.135 22.7861Z" fill="black"/>
<path d="M200.907 25.0861V19.5461H198.334V24.2061C198.334 25.3128 198.772 25.8661 199.647 25.8661C200.31 25.8661 200.73 25.6061 200.907 25.0861ZM196.098 24.4261V19.5461H195.281V18.3461H204.297V19.5461H203.055V28.3061H200.907V26.9261C200.387 27.4061 199.771 27.6461 199.062 27.6461C198.21 27.6461 197.5 27.3528 196.932 26.7661C196.376 26.1661 196.098 25.3861 196.098 24.4261Z" fill="black"/>
<path d="M201.568 26.8661L199.492 28.9661C198.758 29.5795 197.9 29.9595 196.918 30.1061L196.439 28.0061C196.782 28.1661 197.137 28.2461 197.504 28.2461C198.782 28.2461 200.142 27.2128 201.586 25.1461L201.568 26.8661Z" fill="black"/>
<path d="M206.928 19.5461V22.8461C206.928 23.7128 206.975 24.3061 207.07 24.6261C207.212 25.1061 207.502 25.3461 207.939 25.3461C208.436 25.3461 208.756 25.1128 208.898 24.6461C208.969 24.4061 209.004 23.9195 209.004 23.1861C209.004 21.9595 208.904 21.1595 208.703 20.7861C208.501 20.3995 208.146 20.1995 207.638 20.1861L208.667 19.5461H206.928ZM203.982 19.5461V18.3461H212.447L212.465 19.5461H209.448C210.028 19.6661 210.471 20.0661 210.779 20.7461C211.039 21.3195 211.169 21.9728 211.169 22.7061C211.169 23.6661 210.945 24.5128 210.495 25.2461C210.057 25.9795 209.436 26.4995 208.632 26.8061C208.383 26.8995 208.105 26.9461 207.797 26.9461C207.04 26.9461 206.342 26.7195 205.703 26.2661C204.97 25.7595 204.603 25.0995 204.603 24.2861V19.5461H203.982Z" fill="black"/>
<path d="M212.749 28.3061V19.5461H212.11V18.3461H216.281V19.5461H215.021V28.3061H212.749Z" fill="black"/>
<path d="M216.597 28.3061V19.5461H215.958V18.3461H220.128V19.5461H218.868V28.3061H216.597Z" fill="black"/>
<path d="M224.739 23.7261C224.739 23.2861 224.656 22.8995 224.491 22.5661C224.29 22.1395 224.012 21.9261 223.657 21.9261C223.195 21.9261 222.858 22.2795 222.645 22.9861C222.491 23.4928 222.414 24.0595 222.414 24.6861C222.414 26.6461 223.03 27.6261 224.26 27.6261C224.816 27.6261 225.485 27.4195 226.265 27.0061L225.804 28.7461C225.212 28.9195 224.639 29.0061 224.083 29.0061C222.923 29.0061 221.965 28.6528 221.207 27.9461C220.391 27.1861 219.983 26.1661 219.983 24.8861C219.983 23.6328 220.231 22.6061 220.728 21.8061C221.296 20.8861 222.113 20.4261 223.177 20.4261C223.769 20.4261 224.313 20.5995 224.81 20.9461C225.319 21.2795 225.674 21.7461 225.875 22.3461C225.946 21.8661 226.153 21.4861 226.496 21.2061C226.839 20.9261 227.23 20.7861 227.668 20.7861C228.105 20.7861 228.443 20.9195 228.679 21.1861V19.5461H219.805V18.3461H232.317V19.5461H231.075V28.3061H228.679V22.8461C228.466 22.6195 228.188 22.5061 227.845 22.5061C227.265 22.5061 226.975 22.9328 226.975 23.7861V25.7861H224.739V23.7261Z" fill="black"/>
<path d="M230.817 16.1661C230.415 16.2061 230.214 16.3928 230.214 16.7261C230.214 16.9928 230.338 17.2928 230.587 17.6261C230.705 17.7861 230.936 18.0328 231.279 18.3661H228.776C228.303 17.8461 228.066 17.2861 228.066 16.6861C228.066 16.0061 228.339 15.4928 228.883 15.1461C229.321 14.8661 229.865 14.7261 230.516 14.7261C231.356 14.7261 232.137 14.9928 232.858 15.5261C233.438 15.9528 234.136 16.6795 234.952 17.7061L233.497 18.3461H236.39V19.5461H235.148V28.3061H232.876V19.5461H232.024V18.3461H232.77C232.722 17.8128 232.497 17.3061 232.095 16.8261C231.705 16.3328 231.279 16.1128 230.817 16.1661Z" fill="black"/>
</svg>
